<?xml version="1.0" encoding="UTF-8"?><svg id="_イヤー_2" xmlns="http://www.w3.org/2000/svg" viewBox="0 0 156.7 64.07"><defs><style>.cls-1{fill:#e6442b;}</style></defs><g id="_イヤー_1-2"><g><path class="cls-1" d="M29.51,0C14.65,0,2.57,12.08,2.57,26.94c0,6.72,2.49,13.16,7.01,18.12,.02,.03,.05,.05,.07,.07,4.5,4.51,9.8,6.16,13.86,4.31,3.22-1.47,4.96-4.78,4.67-8.86,0-.07-.04-.13-.09-.17-.05-.04-.12-.07-.19-.06l-3.84,.28c-.14,0-.25,.13-.24,.27,.16,2.22-.61,3.89-2.13,4.58-1.84,.84-5.15,.38-8.92-3.38-3.77-4.16-5.84-9.54-5.84-15.15C6.94,14.49,17.06,4.36,29.51,4.36s22.57,10.13,22.57,22.57c0,8.53-4.72,16.24-12.32,20.12-.12,.06-.17,.21-.12,.34l.86,1.83,.83,1.64c.04,.09,.13,.14,.23,.14,.04,0,.08,0,.12-.03,9.11-4.62,14.77-13.83,14.77-24.04C56.44,12.08,44.36,0,29.51,0Z"/><path class="cls-1" d="M39.67,11.79c-1.48-2.17-3.88-3.64-6.76-4.15-2.24-.39-4.88-.08-6.5,.4-1.3,.39-2.29,.86-2.9,1.2-.12,.06-.17,.21-.11,.33l1.61,3.46c.03,.07,.09,.11,.16,.14,.07,.02,.14,.01,.21-.02,.23-.14,1.07-.61,2.27-.96,1.14-.34,3.06-.54,4.52-.29,1.72,.3,3.12,1.13,3.94,2.33,.63,.92,.85,1.97,.64,3.03-.65,3.28-4.03,3.89-6.73,3.41-1.14-.2-4.13-.82-4.74-1.14-.07-.04-.15-.04-.22,0-.07,.03-.12,.09-.15,.17l-.85,3.02c-.03,.12,.02,.24,.13,.29,1.14,.61,3.87,1.71,5.08,1.92,.81,.14,1.61,.21,2.38,.21,4.82,0,8.48-2.76,9.33-7.04,.44-2.19-.03-4.43-1.31-6.31Z"/><path class="cls-1" d="M30.76,20.98c-.6-.22-2.26-.73-3.72-1.18-.83-.25-1.6-.49-2.1-.65-.07-.02-.14-.01-.2,.02-.06,.03-.11,.09-.12,.16l-1.02,3.87c-.02,.07,0,.15,.03,.21,.04,.06,.11,.1,.18,.11,.77,.1,4.4,1.17,5.46,1.56,6.68,2.43,9.02,7.51,7.82,11.05-.62,1.82-1.82,3.14-3.58,3.91-1.5,.66-3.39,.9-5.37,.69,.03-.05,.04-.1,.04-.16-.47-6.55-3.05-11.9-6.57-13.63-1.93-.95-4.02-.8-5.87,.43-1.83,1.22-2.73,3.16-2.53,5.48,.36,4.07,4.14,8.68,8.8,10.71,2.42,1.05,5.01,1.61,7.5,1.61,2.08,0,4.07-.4,5.76-1.15,2.88-1.27,4.94-3.52,5.95-6.5,2.19-6.47-2.3-13.58-10.46-16.55Zm-7.08,18.56c-3.43-1.53-5.93-4.87-6.12-7.06-.08-.89,.26-1.24,.59-1.46,.33-.22,.61-.32,.89-.32,.2,0,.41,.05,.64,.17,1.56,.77,3.4,3.97,4,8.67Z"/><path class="cls-1" d="M59,63.35l-.14-.43-1.47-3.15c-.05-.11-.17-.17-.28-.14-1.97,.41-4.36-.7-9.33-3.51-5.5-3.11-8.4-1.99-13.22-.13l-.09,.04c-.48,.19-.99,.38-1.53,.58l-.59,.22c-.46,.18-1.23,.47-1.34,.48-.19-.04-1.08-.6-1.67-.97-1.04-.66-2.47-1.56-4.66-2.78-6.47-3.61-11.13-1.16-16.53,1.68-2.28,1.2-4.87,2.56-7.97,3.68-.06,.02-.12,.07-.14,.13s-.03,.13,0,.2l1.63,3.53c.06,.12,.2,.18,.32,.13,3.26-1.2,5.89-2.58,8.2-3.8,4.96-2.61,7.96-4.19,12.37-1.73,2.08,1.16,3.46,2.03,4.46,2.66,2.99,1.88,3.7,2.1,6.9,.88l.57-.22c.56-.21,1.09-.41,1.59-.61l.07-.03c4.57-1.76,5.79-2.24,9.5-.14,4.31,2.44,7.59,4.16,10.69,4.16,.87,0,1.69-.13,2.52-.4,.13-.04,.21-.19,.16-.32Z"/></g><g><g><path class="cls-1" d="M82.71,20.08h-7.68v-4.64h7.15c.35,0,.63-.28,.63-.63v-2.44c0-.35-.28-.63-.63-.63h-7.15V7.21h7.42c.35,0,.63-.28,.63-.63v-2.42c0-.35-.28-.63-.63-.63h-10.78c-.35,0-.63,.28-.63,.63V23.14c0,.35,.28,.63,.63,.63h11.04c.35,0,.63-.28,.63-.63v-2.42c0-.35-.28-.63-.63-.63Z"/><path class="cls-1" d="M100.27,12.93c1.26-.92,1.9-2.21,1.9-3.83,0-1.09-.27-2.06-.79-2.9-.52-.84-1.29-1.5-2.28-1.98-.98-.47-2.27-.7-3.95-.7h-4.98c-.35,0-.63,.28-.63,.63V23.16c0,.35,.28,.63,.63,.63h6.44c1.54,0,2.86-.27,3.91-.79,1.06-.53,1.89-1.23,2.45-2.09,.57-.86,.85-1.86,.85-2.95,0-1.38-.47-2.59-1.4-3.59-.59-.63-1.3-1.12-2.15-1.46Zm-6.74,2.42h1.91c1.27,0,2.19,.11,2.74,.31,.51,.19,.89,.47,1.15,.85,.27,.38,.39,.78,.39,1.23s-.12,.84-.38,1.23c-.26,.39-.58,.67-1,.85-.31,.13-1.04,.29-2.77,.29h-2.05v-4.76Zm3.85-4.36c-.49,.44-1.39,.67-2.67,.67h-1.18V7.21h1.71c2.53,0,2.85,1.12,2.85,2.1,0,.7-.23,1.25-.71,1.68Z"/><rect class="cls-1" x="109.83" y="3.52" width="3.99" height="20.28" rx=".63" ry=".63"/><path class="cls-1" d="M128.59,12.4l-2.08-1.23c-.87-.51-1.5-.99-1.87-1.43-.32-.38-.48-.77-.48-1.19s.19-.77,.59-1.06c.46-.33,1.07-.5,1.82-.5,1.42,0,3.01,.51,4.27,1.72,.18,.18,.35,.3,.58,.21,.2-.08,.2-.33,.2-.58v-3.09c0-.21-.1-.41-.28-.53-1.42-.96-3.01-1.44-4.72-1.44-1.81,0-3.32,.53-4.47,1.56-1.17,1.06-1.77,2.44-1.77,4.12,0,1.13,.32,2.14,.94,3.02,.6,.84,1.57,1.67,2.96,2.51l2.07,1.25c1.46,.91,2.2,1.84,2.2,2.75,0,.53-.2,.94-.62,1.3-.45,.38-1.02,.56-1.72,.56-1.74,0-3.51-.77-4.87-2.49-.17-.21-.35-.38-.61-.29-.26,.09-.26,.35-.26,.62v3.46c0,.2,.09,.39,.25,.51,1.65,1.23,3.5,1.86,5.51,1.86,1.79,0,3.28-.54,4.41-1.6,1.15-1.07,1.73-2.48,1.73-4.18,0-2.37-1.27-4.33-3.79-5.83Z"/><path class="cls-1" d="M155.07,3.52h-2.73c-.35,0-.63,.28-.63,.63V14.94c0,1.76-.17,2.57-.31,2.94-.2,.52-.52,.96-.97,1.34-.89,.74-2.09,1.12-3.54,1.12-1.03,0-1.93-.19-2.67-.56-.73-.37-1.25-.84-1.6-1.44-.24-.41-.53-1.33-.53-3.41V4.15c0-.35-.28-.63-.63-.63h-2.74c-.35,0-.63,.28-.63,.63V14.92c0,1.61,.11,2.77,.33,3.55,.22,.77,.51,1.44,.85,1.98,.35,.54,.77,1.04,1.27,1.48,1.61,1.38,3.75,2.09,6.37,2.09s4.7-.71,6.32-2.1c.5-.43,.93-.92,1.27-1.47,.34-.54,.63-1.22,.86-2.02,.23-.81,.34-1.95,.34-3.48V4.15c0-.35-.28-.63-.63-.63Z"/></g><g><path class="cls-1" d="M86.82,43.22h1.76c.21,0,.38-.17,.38-.38v-5.33h4.4c.21,0,.38-.17,.38-.38v-1.56c0-.21-.17-.38-.38-.38h-4.4v-2.66h4.4c.21,0,.38-.17,.38-.38v-1.56c0-.21-.17-.38-.38-.38h-6.54c-.21,0-.38,.17-.38,.38v12.26c0,.21,.17,.38,.38,.38Z"/><path class="cls-1" d="M102.42,43.36c2.03,0,3.73-.63,5.07-1.88,1.35-1.26,2.03-2.86,2.03-4.77s-.68-3.52-2.01-4.79c-1.33-1.26-3.01-1.91-5-1.91s-3.66,.64-4.97,1.91c-1.31,1.27-1.98,2.89-1.98,4.82s.66,3.48,1.96,4.73c1.3,1.25,2.94,1.89,4.89,1.89Zm.11-2.38c-1.27,0-2.3-.4-3.14-1.21-.84-.81-1.24-1.8-1.24-3.03s.41-2.28,1.24-3.09c.84-.81,1.88-1.21,3.19-1.21,1.24,0,2.26,.4,3.11,1.22,.84,.82,1.26,1.8,1.26,3s-.41,2.24-1.26,3.07c-.85,.83-1.88,1.23-3.16,1.23Z"/><path class="cls-1" d="M118.48,43.36c2.03,0,3.73-.63,5.07-1.88,1.35-1.26,2.03-2.86,2.03-4.77s-.68-3.52-2.01-4.79c-1.33-1.26-3.01-1.91-5-1.91s-3.66,.64-4.97,1.91c-1.31,1.27-1.98,2.89-1.98,4.82s.66,3.48,1.96,4.73c1.3,1.25,2.94,1.89,4.89,1.89Zm.11-2.38c-1.27,0-2.3-.4-3.14-1.21-.84-.81-1.24-1.8-1.24-3.03s.41-2.28,1.24-3.09c.84-.81,1.88-1.21,3.19-1.21,1.24,0,2.26,.4,3.11,1.22,.84,.82,1.26,1.8,1.26,3s-.41,2.24-1.26,3.07c-.85,.83-1.88,1.23-3.16,1.23Z"/><path class="cls-1" d="M138.35,41.31c.62-.6,1.1-1.31,1.44-2.1,.33-.79,.5-1.64,.5-2.5,0-1.21-.31-2.35-.91-3.37-.61-1.03-1.44-1.82-2.47-2.35-1.02-.53-2.41-.79-4.14-.79h-4.14c-.21,0-.38,.17-.38,.38v12.25c0,.21,.17,.38,.38,.38h3.88c1.12,0,1.86-.03,2.27-.1,.41-.07,.87-.2,1.35-.38,.84-.32,1.58-.79,2.21-1.41Zm-7.57-8.79h1.81c.82,0,1.41,.03,1.77,.09,.35,.06,.72,.18,1.11,.36,.39,.18,.73,.42,1.03,.7,.82,.76,1.21,1.72,1.21,2.94s-.39,2.25-1.19,3.06c-.24,.24-.52,.45-.81,.62-.29,.17-.67,.31-1.12,.42-.45,.11-1.11,.17-1.95,.17h-1.86v-8.35Z"/><path class="cls-1" d="M77.95,49.51h-6.54c-.21,0-.38,.17-.38,.38v12.26c0,.21,.17,.38,.38,.38h1.76c.21,0,.38-.17,.38-.38v-5.33h4.4c.21,0,.38-.17,.38-.38v-1.56c0-.21-.17-.38-.38-.38h-4.4v-2.66h4.4c.21,0,.38-.17,.38-.38v-1.56c0-.21-.17-.38-.38-.38Z"/><path class="cls-1" d="M116.99,49.5h-10.25c-.21,0-.38,.17-.38,.38v1.56c0,.21,.17,.38,.38,.38h3.82v10.34c0,.21,.17,.38,.38,.38h1.76c.21,0,.38-.17,.38-.38v-10.34h3.89c.21,0,.38-.17,.38-.38v-1.56c0-.21-.17-.38-.38-.38Z"/><path class="cls-1" d="M125.39,49.34c-1.99,0-3.66,.64-4.97,1.91-1.31,1.27-1.98,2.89-1.98,4.82s.66,3.48,1.96,4.73c1.3,1.25,2.94,1.89,4.89,1.89s3.73-.63,5.07-1.88c1.35-1.26,2.03-2.86,2.03-4.77s-.68-3.52-2.01-4.79c-1.33-1.26-3.01-1.91-5-1.91Zm.02,10.97c-1.27,0-2.3-.4-3.14-1.21-.84-.81-1.24-1.8-1.24-3.03s.41-2.28,1.24-3.09c.84-.81,1.88-1.21,3.19-1.21,1.24,0,2.26,.4,3.11,1.22,.84,.82,1.26,1.8,1.26,3s-.41,2.24-1.26,3.07c-.85,.83-1.88,1.23-3.16,1.23Z"/><path class="cls-1" d="M104.19,58.82c-.14-.02-.26,.03-.42,.14-1.33,.87-2.72,1.3-4.11,1.3-1.32,0-2.37-.39-3.2-1.18-.83-.79-1.24-1.77-1.24-3.01s.41-2.21,1.26-3.02c.85-.81,1.9-1.21,3.2-1.21s2.62,.39,3.98,1.17c.13,.07,.26,.13,.4,.11,.16-.02,.21-.12,.21-.27v-2.07c0-.16-.1-.31-.25-.38-3.99-1.7-7.16-1.26-9.4,.89-1.35,1.29-2.03,2.89-2.03,4.78,0,1.19,.3,2.3,.88,3.33,.59,1.02,1.4,1.83,2.41,2.41,1.01,.58,2.24,.88,3.67,.88,1.74,0,3.3-.37,4.64-1.1,.13-.07,.21-.21,.21-.36v-2.17c0-.13-.1-.22-.21-.23Z"/><path class="cls-1" d="M144.58,61.02c-.25-.34-.59-.85-1-1.54-.7-1.13-1.22-1.91-1.61-2.37-.16-.2-.33-.36-.5-.52,.16-.05,.31-.11,.45-.19,.45-.26,.81-.6,1.09-1.01,.4-.59,.61-1.28,.61-2.08,0-1.16-.41-2.11-1.23-2.8-.8-.67-1.88-1.01-3.21-1.01h-3.68c-.23,0-.41,.18-.41,.41v12.21c0,.23,.18,.41,.41,.41h1.75c.23,0,.41-.18,.41-.41v-4.91h.04c.66,0,.93,.09,1.03,.15,.21,.11,.45,.3,.72,.57,.28,.28,.6,.66,.93,1.12l1.14,1.87,.35,.49c.04,.06,.07,.1,.09,.13l.53,.8c.08,.11,.2,.18,.34,.18h2.08c.15,0,.43,.01,.5-.12,.07-.14,.02-.22-.07-.35l-.75-1.05Zm-4.41-6.35c-.19,.09-.63,.19-1.65,.19h-.88v-3.04h.74c1.01,0,1.48,.09,1.71,.17,.28,.1,.5,.26,.65,.5,.16,.25,.24,.51,.24,.82s-.07,.59-.22,.83c-.14,.23-.33,.41-.59,.52Z"/><path class="cls-1" d="M156.67,49.64c-.05-.08-.12-.12-.27-.12h-2.39c-.13,0-.24,.06-.32,.16l-2.99,3.8-2.95-3.8c-.08-.1-.2-.16-.32-.16h-2.4c-.15,0-.23,.04-.27,.12-.06,.12,0,.25,.1,.37l4.55,5.81v6.32c0,.23,.18,.41,.41,.41h1.79c.23,0,.41-.18,.41-.41v-6.32l4.56-5.83c.1-.12,.15-.25,.08-.36Z"/><path class="cls-1" d="M86.42,49.69c-.07-.15-.21-.24-.37-.24h-1.22c-.16,0-.31,.1-.38,.25l-5.29,12.38c-.05,.13-.06,.24,.02,.35,.08,.1,.27,.09,.41,.09h1.79c.16,0,.31-.1,.38-.25l1.09-2.58h5.35l1.14,2.53,.03,.08c.06,.15,.21,.25,.38,.25h1.79c.14,0,.33,0,.41-.09,.08-.1,.08-.22,.02-.35l-5.54-12.42Zm-2.54,7.63l1.56-3.75,1.67,3.75h-3.23Z"/></g></g></g></svg>