<?xml version="1.0" encoding="UTF-8"?><svg id="_イヤー_2" xmlns="http://www.w3.org/2000/svg" viewBox="0 0 189.46 64.41"><defs><style>.cls-1{fill:#825a17;}</style></defs><g id="_イヤー_1-2"><g><g><path class="cls-1" d="M29.66,0C14.73,0,2.58,12.15,2.58,27.08c0,6.76,2.5,13.23,7.04,18.22,.02,.03,.05,.05,.07,.07,4.52,4.53,9.86,6.19,13.93,4.34,3.23-1.48,4.99-4.81,4.69-8.91,0-.07-.04-.13-.09-.18-.05-.04-.12-.07-.19-.06l-3.86,.28c-.14,.01-.25,.13-.24,.27,.16,2.23-.62,3.91-2.14,4.6-1.85,.84-5.17,.39-8.97-3.4-3.79-4.18-5.87-9.59-5.87-15.23C6.97,14.57,17.15,4.39,29.66,4.39s22.69,10.18,22.69,22.69c0,8.57-4.75,16.32-12.39,20.22-.12,.06-.17,.21-.12,.34l.86,1.84,.84,1.65c.05,.09,.14,.14,.23,.14,.04,0,.08,0,.12-.03,9.16-4.64,14.85-13.9,14.85-24.17C56.74,12.15,44.59,0,29.66,0Z"/><path class="cls-1" d="M39.88,11.86c-1.49-2.18-3.9-3.66-6.79-4.17-2.25-.4-4.9-.08-6.54,.4-1.3,.39-2.31,.87-2.92,1.2-.12,.06-.17,.21-.11,.33l1.62,3.48c.03,.07,.09,.12,.16,.14,.07,.02,.14,.01,.21-.02,.23-.14,1.07-.61,2.28-.97,1.14-.34,3.07-.55,4.55-.29,1.73,.31,3.14,1.14,3.96,2.34,.63,.93,.86,1.98,.65,3.04-.66,3.3-4.05,3.91-6.77,3.43-1.15-.2-4.15-.82-4.77-1.15-.07-.04-.15-.04-.22,0-.07,.03-.13,.09-.15,.17l-.86,3.04c-.03,.12,.02,.24,.13,.3,1.15,.61,3.89,1.72,5.11,1.93,.81,.14,1.62,.22,2.4,.22,4.84,0,8.53-2.78,9.38-7.07,.44-2.21-.03-4.46-1.32-6.34Z"/><path class="cls-1" d="M30.93,21.09c-.6-.22-2.27-.73-3.74-1.18-.83-.25-1.61-.49-2.11-.65-.07-.02-.14-.01-.2,.02-.06,.03-.11,.09-.12,.16l-1.03,3.89c-.02,.07,0,.15,.04,.21,.04,.06,.11,.1,.18,.11,.77,.1,4.42,1.18,5.49,1.57,6.72,2.45,9.06,7.55,7.86,11.11-.62,1.83-1.83,3.15-3.6,3.94-1.5,.66-3.41,.9-5.4,.69,.03-.05,.04-.1,.04-.16-.47-6.59-3.07-11.97-6.6-13.7-1.94-.95-4.04-.8-5.9,.43-1.84,1.22-2.75,3.18-2.54,5.51,.36,4.1,4.16,8.73,8.85,10.77,2.43,1.06,5.03,1.62,7.54,1.62,2.09,0,4.09-.4,5.8-1.15,2.89-1.28,4.96-3.54,5.98-6.54,2.2-6.5-2.32-13.66-10.51-16.64Zm-7.11,18.66c-3.45-1.54-5.96-4.9-6.16-7.1-.08-.9,.26-1.25,.6-1.47,.33-.22,.61-.32,.89-.32,.2,0,.41,.06,.64,.17,1.57,.77,3.42,3.99,4.02,8.72Z"/><path class="cls-1" d="M59.31,63.69l-.14-.44-1.48-3.17c-.05-.11-.17-.17-.28-.14-1.98,.41-4.38-.7-9.37-3.53-5.53-3.13-8.45-2-13.29-.13l-.1,.04c-.48,.19-.99,.38-1.54,.59l-.59,.22c-.46,.18-1.24,.47-1.35,.48-.19-.04-1.09-.6-1.68-.98-1.05-.66-2.49-1.57-4.69-2.79-6.51-3.63-11.19-1.17-16.62,1.69-2.3,1.21-4.9,2.58-8.01,3.7-.06,.02-.12,.07-.15,.13s-.03,.13,0,.2l1.64,3.54c.06,.12,.2,.18,.32,.13,3.28-1.21,5.92-2.6,8.24-3.82,4.99-2.63,8-4.21,12.44-1.74,2.1,1.17,3.48,2.04,4.49,2.67,3,1.89,3.72,2.11,6.93,.88l.57-.22c.57-.21,1.1-.42,1.6-.61l.07-.03c4.59-1.77,5.83-2.25,9.55-.14,4.33,2.45,7.63,4.19,10.75,4.19,.87,0,1.7-.13,2.53-.4,.13-.04,.21-.19,.17-.32Z"/></g><g><path class="cls-1" d="M151.06,49.96c-.25-.04-.47,.06-.77,.25-2.41,1.58-4.93,2.35-7.46,2.35-2.39,0-4.29-.7-5.81-2.14-1.51-1.43-2.24-3.21-2.24-5.45s.75-4.01,2.28-5.47c1.54-1.48,3.44-2.19,5.8-2.19s4.76,.71,7.22,2.12c.23,.13,.48,.23,.72,.2,.28-.04,.39-.22,.39-.5v-3.75c0-.3-.18-.57-.45-.68-7.23-3.09-12.97-2.28-17.05,1.62-2.44,2.33-3.68,5.25-3.68,8.66,0,2.15,.54,4.18,1.6,6.03,1.06,1.85,2.53,3.32,4.36,4.37,1.83,1.05,4.07,1.59,6.66,1.59,3.15,0,5.98-.67,8.4-1.99,.24-.13,.39-.38,.39-.65v-3.94c0-.23-.19-.4-.38-.42Z"/><path class="cls-1" d="M106.94,33.41c-.12-.27-.38-.44-.68-.44h-2.22c-.3,0-.57,.18-.68,.45l-9.58,22.44c-.1,.23-.1,.44,.04,.63,.14,.17,.49,.17,.73,.17h3.25c.3,0,.57-.18,.68-.45l1.97-4.67h9.69l2.06,4.59,.06,.14c.12,.27,.38,.45,.68,.45h3.25c.25,0,.6,0,.73-.17,.15-.19,.14-.4,.04-.63l-10.04-22.51Zm-4.61,13.83l2.82-6.8,3.04,6.8h-5.86Z"/><path class="cls-1" d="M171.35,9.43c-.07-.16-.23-.26-.4-.26h-1.32c-.18,0-.34,.11-.41,.27l-5.71,13.38c-.06,.14-.06,.26,.03,.38,.08,.1,.29,.1,.44,.1h1.94c.18,0,.34-.11,.41-.27l1.17-2.78h5.78l1.23,2.73,.04,.09c.07,.16,.23,.27,.41,.27h1.94c.15,0,.36,0,.44-.1,.09-.11,.08-.24,.03-.38l-5.99-13.42Zm-2.75,8.25l1.68-4.06,1.81,4.06h-3.49Z"/><g><path class="cls-1" d="M86.63,34.53c-1.85-.95-4.37-1.44-7.49-1.44h-7.47c-.41,0-.74,.33-.74,.74v22.11c0,.41,.33,.74,.74,.74h7.01c2.02,0,3.37-.06,4.11-.18,.75-.12,1.57-.35,2.44-.7,1.52-.57,2.87-1.43,4.01-2.56,1.12-1.09,2-2.37,2.61-3.81,.61-1.44,.91-2.97,.91-4.54,0-2.2-.56-4.25-1.66-6.11-1.1-1.87-2.61-3.3-4.48-4.27Zm-11.04,2.86h3.22c1.47,0,2.55,.06,3.19,.16,.62,.1,1.29,.32,1.99,.65,.69,.32,1.31,.74,1.85,1.25,1.46,1.37,2.17,3.09,2.17,5.28s-.7,4.03-2.13,5.49c-.44,.44-.93,.81-1.45,1.11-.53,.3-1.2,.55-2.01,.75-.81,.2-2,.3-3.52,.3h-3.32v-14.99Z"/><rect class="cls-1" x="120.51" y="33.1" width="4.65" height="23.62" rx=".74" ry=".74"/><path class="cls-1" d="M176.3,33.1h-3.17c-.41,0-.74,.33-.74,.74v8.84h-10.97v-8.84c0-.41-.33-.74-.74-.74h-3.17c-.41,0-.74,.33-.74,.74v22.15c0,.41,.33,.74,.74,.74h3.17c.41,0,.74-.33,.74-.74v-8.9h10.97v8.9c0,.41,.33,.74,.74,.74h3.17c.41,0,.74-.33,.74-.74v-22.15c0-.41-.33-.74-.74-.74Z"/><rect class="cls-1" x="183.4" y="33.1" width="4.65" height="23.62" rx=".74" ry=".74"/></g><g><path class="cls-1" d="M148.13,9.26h-1.77c-.13,0-.25,.06-.32,.16l-4.06,5.04-4.08-5.04c-.08-.1-.2-.15-.32-.15h-1.8c-.23,0-.42,.19-.42,.42v13.26c0,.23,.19,.42,.42,.42h1.9c.23,0,.42-.19,.42-.42V13.8l3.38,4.2c.08,.1,.2,.16,.32,.16h.35c.13,0,.25-.06,.33-.16l3.33-4.19v9.12c0,.23,.19,.42,.42,.42h1.91c.23,0,.42-.19,.42-.42V9.68c0-.23-.19-.42-.42-.42Z"/><path class="cls-1" d="M161.01,20.81h-5.38v-3.29h5.01c.23,0,.42-.19,.42-.42v-1.7c0-.23-.19-.42-.42-.42h-5.01v-3.21h5.2c.23,0,.42-.19,.42-.42v-1.69c0-.23-.19-.42-.42-.42h-7.51c-.23,0-.42,.19-.42,.42v13.24c0,.23,.19,.42,.42,.42h7.7c.23,0,.42-.19,.42-.42v-1.69c0-.23-.19-.42-.42-.42Z"/><path class="cls-1" d="M189.05,9.24h-11.07c-.23,0-.42,.19-.42,.42v1.69c0,.23,.19,.42,.42,.42h4.13v11.17c0,.23,.19,.42,.42,.42h1.91c.23,0,.42-.19,.42-.42V11.76h4.2c.23,0,.42-.19,.42-.42v-1.69c0-.23-.19-.42-.42-.42Z"/></g><g><path class="cls-1" d="M79.05,20.76h-5.34v-3.22h4.97c.24,0,.44-.2,.44-.44v-1.69c0-.24-.2-.44-.44-.44h-4.97v-3.15h5.16c.24,0,.44-.2,.44-.44v-1.68c0-.24-.2-.44-.44-.44h-7.49c-.24,0-.44,.2-.44,.44v13.19c0,.24,.2,.44,.44,.44h7.67c.24,0,.44-.2,.44-.44v-1.68c0-.24-.2-.44-.44-.44Z"/><path class="cls-1" d="M90.46,15.79c.88-.64,1.32-1.53,1.32-2.66,0-.76-.18-1.43-.55-2.02-.36-.58-.9-1.05-1.58-1.37-.68-.33-1.58-.48-2.74-.48h-3.46c-.24,0-.44,.2-.44,.44v13.21c0,.24,.2,.44,.44,.44h4.47c1.07,0,1.99-.18,2.72-.55,.74-.37,1.31-.85,1.7-1.45,.39-.6,.59-1.29,.59-2.05,0-.96-.33-1.8-.97-2.49-.41-.44-.91-.78-1.49-1.02Zm-4.68,1.68h1.33c.88,0,1.52,.07,1.91,.22,.35,.13,.62,.33,.8,.59,.18,.26,.27,.54,.27,.85s-.09,.58-.26,.85c-.18,.27-.41,.46-.7,.59-.21,.09-.72,.2-1.93,.2h-1.42v-3.31Zm2.67-3.03c-.34,.31-.96,.46-1.85,.46h-.82v-3.09h1.19c1.75,0,1.98,.78,1.98,1.46,0,.49-.16,.87-.49,1.17Z"/><rect class="cls-1" x="96.3" y="9.26" width="2.77" height="14.09" rx=".44" ry=".44"/><path class="cls-1" d="M108.51,15.43l-1.45-.86c-.6-.35-1.04-.69-1.3-.99-.22-.27-.33-.54-.33-.83s.13-.54,.41-.74c.32-.23,.74-.35,1.26-.35,.99,0,2.09,.35,2.97,1.19,.13,.12,.24,.21,.41,.14,.14-.06,.14-.23,.14-.4v-2.15c0-.15-.07-.28-.19-.37-.99-.67-2.09-1-3.28-1-1.26,0-2.31,.37-3.11,1.09-.82,.73-1.23,1.7-1.23,2.86,0,.78,.22,1.49,.65,2.1,.42,.59,1.09,1.16,2.05,1.74l1.43,.87c1.01,.63,1.53,1.27,1.53,1.91,0,.37-.14,.65-.43,.9-.31,.26-.71,.39-1.2,.39-1.21,0-2.44-.54-3.38-1.73-.12-.15-.24-.26-.42-.2-.18,.06-.18,.24-.18,.43v2.4c0,.14,.07,.27,.18,.35,1.14,.86,2.43,1.29,3.83,1.29,1.24,0,2.28-.37,3.07-1.11,.8-.75,1.2-1.72,1.2-2.9,0-1.65-.89-3.01-2.63-4.05Z"/><path class="cls-1" d="M126.23,9.26h-1.9c-.24,0-.44,.2-.44,.44v7.5c0,1.22-.12,1.79-.22,2.05-.14,.36-.36,.67-.67,.93-.62,.52-1.45,.78-2.46,.78-.71,0-1.34-.13-1.85-.39-.51-.26-.87-.58-1.11-1-.17-.28-.36-.93-.36-2.37v-7.5c0-.24-.2-.44-.44-.44h-1.9c-.24,0-.44,.2-.44,.44v7.48c0,1.12,.08,1.92,.23,2.47,.15,.54,.35,1,.59,1.38,.24,.38,.54,.72,.88,1.03,1.12,.96,2.61,1.45,4.43,1.45s3.27-.49,4.39-1.46c.35-.3,.64-.64,.88-1.02,.24-.38,.44-.85,.6-1.4,.16-.56,.24-1.35,.24-2.42v-7.5c0-.24-.2-.44-.44-.44Z"/></g></g></g></g></svg>