<?xml version="1.0" encoding="UTF-8"?><svg id="_イヤー_2" xmlns="http://www.w3.org/2000/svg" viewBox="0 0 97.07 167.74"><defs><style>.cls-1{fill:#e6442b;}</style></defs><g id="_イヤー_1-2"><g><g><path class="cls-1" d="M47.97,0C27.29,0,10.45,16.83,10.45,37.52c0,9.36,3.47,18.32,9.76,25.24,.03,.04,.06,.07,.09,.1,6.26,6.28,13.66,8.58,19.31,6.01,4.48-2.04,6.91-6.66,6.5-12.35,0-.09-.05-.18-.12-.24-.07-.06-.16-.09-.26-.09l-5.35,.39c-.2,.01-.34,.18-.33,.38,.22,3.09-.86,5.42-2.96,6.38-2.56,1.16-7.17,.53-12.42-4.71-5.25-5.79-8.14-13.28-8.14-21.11,0-17.34,14.1-31.44,31.44-31.44s31.44,14.1,31.44,31.44c0,11.88-6.58,22.62-17.17,28.02-.17,.09-.24,.29-.16,.47l1.19,2.55,1.16,2.29c.06,.12,.19,.2,.32,.2,.05,0,.11-.01,.16-.04,12.69-6.43,20.58-19.26,20.58-33.49C85.49,16.83,68.66,0,47.97,0Z"/><path class="cls-1" d="M62.13,16.43c-2.06-3.02-5.41-5.07-9.41-5.77-3.12-.55-6.8-.12-9.06,.56-1.81,.54-3.2,1.2-4.05,1.67-.16,.09-.23,.29-.15,.46l2.25,4.82c.04,.09,.12,.16,.22,.19,.1,.03,.2,.02,.29-.03,.32-.19,1.48-.84,3.16-1.34,1.58-.47,4.26-.76,6.3-.4,2.4,.42,4.35,1.58,5.49,3.25,.88,1.28,1.19,2.74,.89,4.22-.91,4.57-5.62,5.41-9.37,4.75-1.59-.28-5.75-1.14-6.6-1.59-.09-.05-.21-.05-.31-.01-.1,.04-.17,.13-.2,.23l-1.18,4.21c-.05,.16,.03,.33,.18,.41,1.59,.84,5.39,2.38,7.08,2.68,1.12,.2,2.24,.3,3.32,.3,6.71,0,11.81-3.85,13-9.8,.61-3.06-.04-6.18-1.83-8.79Z"/><path class="cls-1" d="M49.72,29.22c-.83-.3-3.14-1.01-5.19-1.64-1.15-.35-2.22-.68-2.93-.91-.09-.03-.19-.02-.28,.03-.09,.05-.15,.13-.17,.22l-1.42,5.39c-.03,.1,0,.2,.05,.29,.06,.08,.15,.14,.25,.15,1.07,.14,6.12,1.63,7.61,2.17,9.31,3.39,12.56,10.46,10.89,15.39-.86,2.54-2.54,4.37-4.98,5.45-2.08,.92-4.73,1.25-7.49,.96,.04-.06,.06-.14,.06-.22-.66-9.13-4.25-16.58-9.15-18.99-2.69-1.32-5.59-1.11-8.17,.6-2.55,1.69-3.8,4.4-3.52,7.63,.5,5.68,5.76,12.09,12.26,14.92,3.36,1.47,6.98,2.24,10.44,2.24,2.89,0,5.67-.55,8.03-1.6,4.01-1.77,6.88-4.91,8.28-9.06,3.05-9.01-3.21-18.92-14.57-23.06Zm-9.86,25.85c-4.78-2.13-8.26-6.79-8.53-9.83-.11-1.24,.36-1.73,.83-2.04,.46-.3,.85-.44,1.24-.44,.28,0,.57,.08,.89,.23,2.17,1.07,4.74,5.53,5.58,12.08Z"/><path class="cls-1" d="M89.06,88.24l-.2-.6-2.05-4.39c-.07-.15-.23-.23-.39-.2-2.74,.57-6.07-.97-12.99-4.89-7.66-4.34-11.71-2.78-18.41-.19l-.13,.05c-.67,.26-1.38,.53-2.13,.81l-.82,.31c-.64,.25-1.72,.66-1.87,.67-.26-.05-1.5-.84-2.33-1.36-1.45-.92-3.44-2.17-6.49-3.87-9.02-5.03-15.51-1.62-23.03,2.34-3.18,1.67-6.79,3.57-11.1,5.12-.09,.03-.16,.1-.2,.18s-.04,.18-.01,.27l2.28,4.91c.08,.17,.27,.25,.45,.18,4.54-1.68,8.2-3.6,11.42-5.3,6.91-3.64,11.09-5.83,17.23-2.41,2.9,1.62,4.82,2.83,6.22,3.71,4.16,2.62,5.16,2.92,9.61,1.22l.8-.3c.78-.29,1.52-.58,2.21-.85l.1-.04c6.36-2.46,8.07-3.12,13.23-.2,6,3.4,10.57,5.8,14.89,5.8,1.21,0,2.35-.18,3.51-.56,.19-.06,.29-.26,.23-.45Z"/></g><g><g><path class="cls-1" d="M13.24,119.46H4.54v-5.25H12.64c.4,0,.72-.32,.72-.72v-2.76c0-.4-.32-.72-.72-.72H4.54v-5.13H12.94c.4,0,.72-.32,.72-.72v-2.74c0-.4-.32-.72-.72-.72H.73c-.4,0-.72,.32-.72,.72v21.51c0,.4,.32,.72,.72,.72H13.24c.4,0,.72-.32,.72-.72v-2.74c0-.4-.32-.72-.72-.72Z"/><path class="cls-1" d="M33.14,111.36c1.43-1.05,2.16-2.5,2.16-4.34,0-1.23-.3-2.34-.9-3.29-.59-.95-1.46-1.7-2.58-2.24-1.11-.53-2.57-.79-4.47-.79h-5.64c-.4,0-.72,.32-.72,.72v21.54c0,.4,.32,.72,.72,.72h7.29c1.75,0,3.24-.3,4.43-.89,1.2-.6,2.14-1.39,2.77-2.36,.64-.98,.97-2.1,.97-3.34,0-1.57-.53-2.94-1.59-4.07-.66-.71-1.48-1.27-2.43-1.66Zm-7.64,2.74h2.16c1.44,0,2.48,.12,3.11,.35,.58,.22,1.01,.53,1.31,.96,.3,.43,.45,.88,.45,1.39s-.14,.95-.43,1.39c-.29,.44-.66,.75-1.14,.96-.35,.15-1.18,.33-3.14,.33h-2.32v-5.39Zm4.36-4.94c-.55,.5-1.57,.75-3.02,.75h-1.33v-5.04h1.93c2.86,0,3.23,1.27,3.23,2.38,0,.79-.26,1.41-.8,1.9Z"/><rect class="cls-1" x="43.97" y="100.7" width="4.52" height="22.98" rx=".72" ry=".72"/><path class="cls-1" d="M65.22,110.77l-2.36-1.4c-.98-.57-1.69-1.12-2.12-1.62-.37-.43-.54-.87-.54-1.35s.21-.88,.67-1.21c.52-.37,1.21-.56,2.06-.56,1.61,0,3.41,.57,4.84,1.94,.21,.2,.39,.34,.66,.23,.23-.09,.23-.37,.23-.66v-3.5c0-.24-.12-.46-.32-.6-1.61-1.09-3.41-1.64-5.35-1.64-2.05,0-3.76,.6-5.07,1.77-1.33,1.2-2,2.77-2,4.67,0,1.28,.36,2.43,1.07,3.42,.68,.96,1.78,1.89,3.35,2.85l2.34,1.42c1.65,1.03,2.49,2.08,2.49,3.12,0,.6-.22,1.07-.71,1.47-.51,.43-1.15,.64-1.95,.64-1.97,0-3.98-.87-5.52-2.82-.19-.24-.4-.43-.69-.32-.29,.1-.3,.39-.3,.7v3.92c0,.23,.11,.44,.29,.58,1.87,1.4,3.97,2.1,6.24,2.1,2.03,0,3.71-.61,5-1.81,1.3-1.22,1.96-2.81,1.96-4.74,0-2.68-1.44-4.91-4.29-6.61Z"/><path class="cls-1" d="M95.22,100.7h-3.1c-.4,0-.72,.32-.72,.72v12.23c0,1.99-.19,2.91-.35,3.34-.23,.59-.59,1.09-1.1,1.52-1.01,.84-2.36,1.27-4.01,1.27-1.17,0-2.18-.21-3.02-.64-.83-.42-1.42-.95-1.82-1.63-.27-.46-.6-1.51-.6-3.86v-12.23c0-.4-.32-.72-.72-.72h-3.1c-.4,0-.72,.32-.72,.72v12.2c0,1.82,.12,3.14,.37,4.02,.25,.88,.57,1.63,.96,2.25,.39,.62,.87,1.18,1.44,1.68,1.82,1.57,4.25,2.36,7.22,2.36s5.33-.8,7.16-2.38c.56-.49,1.05-1.05,1.44-1.66,.39-.62,.72-1.39,.98-2.29,.26-.92,.39-2.21,.39-3.94v-12.23c0-.4-.32-.72-.72-.72Z"/></g><g><path class="cls-1" d="M17.89,145.68h1.99c.24,0,.44-.2,.44-.44v-6.04h4.99c.24,0,.44-.2,.44-.44v-1.77c0-.24-.2-.44-.44-.44h-4.99v-3.01h4.99c.24,0,.44-.2,.44-.44v-1.77c0-.24-.2-.44-.44-.44h-7.41c-.24,0-.44,.2-.44,.44v13.9c0,.24,.2,.44,.44,.44Z"/><path class="cls-1" d="M35.57,145.84c2.3,0,4.23-.72,5.75-2.13,1.53-1.42,2.3-3.24,2.3-5.41s-.77-3.99-2.28-5.43c-1.51-1.43-3.41-2.16-5.66-2.16s-4.15,.73-5.63,2.16c-1.49,1.44-2.24,3.28-2.24,5.47s.75,3.94,2.23,5.36c1.47,1.42,3.34,2.14,5.54,2.14Zm.13-2.7c-1.44,0-2.6-.45-3.55-1.37-.95-.92-1.41-2.04-1.41-3.43s.46-2.58,1.4-3.5c.95-.92,2.13-1.37,3.62-1.37,1.41,0,2.56,.45,3.52,1.38,.96,.93,1.42,2.04,1.42,3.4s-.47,2.54-1.42,3.48c-.96,.94-2.13,1.4-3.58,1.4Z"/><path class="cls-1" d="M53.76,145.84c2.3,0,4.23-.72,5.75-2.13,1.53-1.42,2.3-3.24,2.3-5.41s-.77-3.99-2.28-5.43c-1.51-1.43-3.41-2.16-5.66-2.16s-4.15,.73-5.63,2.16c-1.49,1.44-2.24,3.28-2.24,5.47s.75,3.94,2.23,5.36c1.47,1.42,3.34,2.14,5.54,2.14Zm.13-2.7c-1.44,0-2.6-.45-3.55-1.37-.95-.92-1.41-2.04-1.41-3.43s.46-2.58,1.4-3.5c.95-.92,2.13-1.37,3.62-1.37,1.41,0,2.56,.45,3.52,1.38,.96,.93,1.42,2.04,1.42,3.4s-.47,2.54-1.42,3.48c-.96,.94-2.13,1.4-3.58,1.4Z"/><path class="cls-1" d="M76.28,143.52c.7-.68,1.25-1.48,1.63-2.38,.38-.9,.57-1.85,.57-2.84,0-1.37-.35-2.66-1.04-3.82-.69-1.17-1.63-2.07-2.8-2.67-1.16-.6-2.74-.9-4.69-.9h-4.69c-.24,0-.44,.2-.44,.44v13.88c0,.24,.2,.44,.44,.44h4.4c1.27,0,2.11-.04,2.57-.11,.47-.07,.98-.22,1.53-.44,.95-.36,1.79-.9,2.51-1.6Zm-8.58-9.96h2.05c.93,0,1.6,.03,2.01,.1,.39,.07,.81,.21,1.26,.41,.44,.2,.83,.47,1.17,.79,.93,.86,1.37,1.95,1.37,3.33s-.44,2.55-1.34,3.46c-.28,.28-.59,.51-.92,.7-.33,.19-.76,.35-1.27,.47-.51,.13-1.26,.19-2.21,.19h-2.11v-9.46Z"/><path class="cls-1" d="M7.85,152.81H.44c-.24,0-.44,.2-.44,.44v13.9c0,.24,.2,.44,.44,.44h1.99c.24,0,.44-.2,.44-.44v-6.04H7.85c.24,0,.44-.2,.44-.44v-1.77c0-.24-.2-.44-.44-.44H2.86v-3.01H7.85c.24,0,.44-.2,.44-.44v-1.77c0-.24-.2-.44-.44-.44Z"/><path class="cls-1" d="M52.08,152.79h-11.61c-.24,0-.44,.2-.44,.44v1.77c0,.24,.2,.44,.44,.44h4.33v11.71c0,.24,.2,.44,.44,.44h2c.24,0,.44-.2,.44-.44v-11.71h4.41c.24,0,.44-.2,.44-.44v-1.77c0-.24-.2-.44-.44-.44Z"/><path class="cls-1" d="M61.59,152.61c-2.25,0-4.15,.73-5.63,2.16-1.49,1.44-2.24,3.28-2.24,5.47s.75,3.94,2.23,5.36c1.47,1.42,3.34,2.14,5.54,2.14s4.23-.72,5.75-2.13c1.53-1.42,2.3-3.24,2.3-5.41s-.77-3.99-2.28-5.43c-1.5-1.43-3.41-2.16-5.66-2.16Zm.02,12.42c-1.44,0-2.6-.45-3.55-1.37-.95-.92-1.41-2.04-1.41-3.43s.46-2.58,1.4-3.5c.95-.92,2.13-1.37,3.62-1.37,1.41,0,2.56,.45,3.52,1.38,.96,.93,1.42,2.04,1.42,3.4s-.47,2.54-1.42,3.48c-.96,.94-2.13,1.4-3.58,1.4Z"/><path class="cls-1" d="M37.57,163.36c-.16-.02-.3,.03-.48,.15-1.51,.99-3.08,1.47-4.66,1.47-1.5,0-2.68-.44-3.63-1.34-.94-.89-1.4-2.01-1.4-3.41s.47-2.5,1.43-3.42c.96-.92,2.15-1.37,3.62-1.37s2.97,.45,4.51,1.32c.14,.08,.3,.15,.45,.12,.18-.03,.24-.14,.24-.31v-2.34c0-.19-.11-.35-.28-.43-4.52-1.93-8.11-1.42-10.66,1.01-1.52,1.46-2.3,3.28-2.3,5.42,0,1.34,.34,2.61,1,3.77,.67,1.15,1.58,2.07,2.73,2.73,1.14,.66,2.54,.99,4.16,.99,1.97,0,3.74-.42,5.25-1.24,.15-.08,.24-.24,.24-.41v-2.46c0-.14-.12-.25-.23-.26Z"/><path class="cls-1" d="M83.34,165.85c-.28-.38-.66-.97-1.14-1.74-.79-1.28-1.39-2.16-1.82-2.68-.19-.22-.38-.4-.57-.59,.18-.06,.36-.13,.5-.21,.51-.3,.92-.68,1.24-1.15,.46-.66,.69-1.45,.69-2.35,0-1.32-.47-2.39-1.4-3.17-.9-.76-2.13-1.15-3.63-1.15h-4.17c-.26,0-.46,.21-.46,.46v13.84c0,.26,.21,.46,.46,.46h1.98c.26,0,.46-.21,.46-.46v-5.56h.05c.74,0,1.05,.1,1.16,.17,.24,.13,.51,.35,.82,.65,.32,.31,.68,.75,1.05,1.27l1.29,2.12,.39,.55c.05,.06,.08,.11,.1,.15l.6,.91c.09,.13,.23,.21,.39,.21h2.36c.18,0,.49,.01,.57-.14,.08-.16,.02-.25-.08-.39l-.84-1.19Zm-5-7.2c-.21,.1-.71,.22-1.87,.22h-1v-3.44h.84c1.14,0,1.68,.11,1.93,.19,.32,.11,.56,.3,.74,.56,.18,.28,.27,.58,.27,.93s-.08,.67-.25,.95c-.16,.27-.38,.46-.67,.59Z"/><path class="cls-1" d="M97.03,152.95c-.06-.09-.13-.14-.31-.14h-2.71c-.14,0-.28,.06-.36,.18l-3.39,4.3-3.34-4.3c-.09-.11-.22-.18-.37-.18h-2.72c-.17,0-.26,.04-.31,.13-.07,.14,0,.28,.12,.42l5.16,6.58v7.16c0,.26,.21,.46,.46,.46h2.03c.26,0,.46-.21,.46-.46v-7.16l5.17-6.6c.11-.14,.17-.29,.09-.4Z"/><path class="cls-1" d="M17.45,153.01c-.07-.17-.24-.27-.42-.27h-1.39c-.19,0-.35,.11-.43,.28l-5.99,14.02c-.06,.14-.06,.28,.03,.39,.09,.11,.3,.11,.46,.11h2.03c.19,0,.35-.11,.43-.28l1.23-2.92h6.06l1.29,2.87,.04,.09c.07,.17,.24,.28,.43,.28h2.03c.16,0,.37,0,.46-.11,.09-.12,.09-.25,.03-.39l-6.28-14.07Zm-2.88,8.65l1.76-4.25,1.9,4.25h-3.66Z"/></g></g></g></g></svg>