<?xml version="1.0" encoding="UTF-8"?><svg id="_イヤー_2" xmlns="http://www.w3.org/2000/svg" viewBox="0 0 128.6 164"><defs><style>.cls-1{fill:#fff;}</style></defs><g id="_イヤー_1-2"><g><g><path class="cls-1" d="M64.3,0C41.22,0,22.44,18.78,22.44,41.86c0,10.44,3.87,20.44,10.89,28.16,.04,.04,.07,.08,.11,.11,6.99,7.01,15.24,9.57,21.54,6.7,5-2.28,7.71-7.43,7.25-13.77,0-.1-.06-.2-.14-.27-.08-.07-.18-.1-.29-.1l-5.97,.43c-.22,.02-.38,.21-.37,.42,.25,3.45-.96,6.04-3.3,7.11-2.86,1.3-8,.6-13.86-5.26-5.85-6.46-9.08-14.82-9.08-23.54,0-19.34,15.73-35.07,35.07-35.07s35.07,15.73,35.07,35.07c0,13.25-7.34,25.23-19.15,31.26-.19,.1-.27,.33-.18,.52l1.33,2.85,1.29,2.55c.07,.14,.21,.22,.35,.22,.06,0,.12-.01,.18-.04,14.16-7.18,22.96-21.49,22.96-37.36C106.16,18.78,87.38,0,64.3,0Z"/><path class="cls-1" d="M80.1,18.33c-2.3-3.37-6.03-5.65-10.5-6.44-3.48-.61-7.58-.13-10.11,.62-2.01,.6-3.57,1.34-4.51,1.86-.18,.1-.26,.33-.17,.52l2.51,5.38c.05,.1,.14,.18,.24,.21,.11,.03,.22,.02,.32-.04,.35-.21,1.66-.94,3.52-1.5,1.77-.53,4.75-.85,7.03-.45,2.68,.47,4.85,1.76,6.13,3.62,.98,1.43,1.32,3.06,1,4.71-1.01,5.09-6.27,6.04-10.46,5.3-1.78-.31-6.42-1.27-7.37-1.77-.11-.06-.23-.06-.34-.01-.11,.05-.19,.14-.23,.26l-1.32,4.69c-.05,.18,.03,.37,.2,.46,1.77,.94,6.02,2.66,7.89,2.99,1.25,.22,2.5,.33,3.7,.33,7.49,0,13.18-4.29,14.5-10.93,.68-3.41-.05-6.89-2.04-9.81Z"/><path class="cls-1" d="M66.25,32.6c-.93-.34-3.51-1.13-5.79-1.83-1.28-.39-2.48-.76-3.26-1.01-.1-.03-.22-.02-.31,.03-.1,.05-.16,.14-.19,.25l-1.59,6.02c-.03,.11,0,.23,.05,.32,.06,.09,.16,.16,.28,.17,1.19,.16,6.83,1.82,8.49,2.42,10.39,3.78,14.01,11.67,12.15,17.17-.96,2.83-2.83,4.87-5.56,6.08-2.32,1.03-5.27,1.39-8.35,1.07,.05-.07,.07-.16,.06-.24-.73-10.18-4.74-18.5-10.2-21.18-3-1.47-6.24-1.24-9.11,.67-2.85,1.89-4.24,4.91-3.93,8.52,.55,6.33,6.43,13.49,13.67,16.65,3.75,1.64,7.78,2.5,11.65,2.5,3.23,0,6.32-.62,8.96-1.78,4.47-1.98,7.67-5.47,9.24-10.11,3.41-10.05-3.58-21.11-16.25-25.72Zm-11,28.84c-5.33-2.37-9.22-7.57-9.52-10.97-.12-1.38,.4-1.93,.92-2.27,.51-.34,.95-.5,1.38-.5,.31,0,.64,.09,1,.26,2.42,1.19,5.29,6.17,6.22,13.48Z"/><path class="cls-1" d="M110.13,98.44l-.22-.67-2.28-4.9c-.08-.17-.26-.26-.44-.22-3.06,.64-6.77-1.09-14.49-5.46-8.54-4.84-13.06-3.1-20.54-.21l-.15,.06c-.75,.29-1.53,.59-2.37,.91l-.92,.35c-.72,.27-1.92,.73-2.09,.75-.29-.06-1.68-.93-2.6-1.51-1.62-1.02-3.84-2.42-7.25-4.32-10.06-5.61-17.3-1.8-25.69,2.61-3.55,1.87-7.57,3.98-12.38,5.72-.1,.04-.18,.11-.22,.21s-.05,.2-.01,.3l2.54,5.48c.09,.19,.3,.27,.5,.2,5.07-1.87,9.15-4.02,12.74-5.91,7.71-4.06,12.37-6.51,19.23-2.69,3.24,1.81,5.37,3.15,6.93,4.13,4.64,2.92,5.75,3.26,10.72,1.36l.89-.34c.87-.33,1.69-.64,2.47-.94l.11-.04c7.1-2.74,9-3.48,14.76-.22,6.69,3.79,11.8,6.47,16.61,6.47,1.35,0,2.63-.2,3.91-.62,.21-.07,.32-.29,.26-.5Z"/></g><g><path class="cls-1" d="M86.93,156.4c-.27-.04-.52,.06-.83,.27-2.62,1.71-5.35,2.55-8.09,2.55-2.6,0-4.66-.76-6.3-2.32-1.63-1.55-2.43-3.48-2.43-5.91s.81-4.35,2.48-5.94c1.67-1.6,3.73-2.38,6.29-2.38s5.16,.77,7.83,2.3c.25,.14,.52,.25,.78,.21,.31-.04,.42-.24,.42-.54v-4.07c0-.32-.19-.61-.49-.74-7.84-3.35-14.07-2.47-18.5,1.76-2.65,2.53-3.99,5.69-3.99,9.4,0,2.33,.59,4.53,1.74,6.54,1.16,2,2.75,3.6,4.73,4.75,1.98,1.14,4.41,1.72,7.23,1.72,3.42,0,6.49-.73,9.12-2.16,.26-.14,.42-.41,.42-.71v-4.27c0-.25-.2-.43-.41-.46Z"/><path class="cls-1" d="M39.06,138.44c-.13-.29-.42-.48-.74-.48h-2.41c-.32,0-.61,.19-.74,.49l-10.4,24.34c-.11,.25-.11,.48,.05,.68,.15,.19,.53,.19,.8,.19h3.52c.32,0,.62-.19,.74-.49l2.14-5.07h10.51l2.24,4.98,.07,.16c.13,.3,.42,.49,.74,.49h3.52c.27,0,.65,0,.8-.19,.16-.2,.15-.43,.05-.68l-10.89-24.42Zm-5,15.01l3.06-7.38,3.29,7.38h-6.35Z"/><path class="cls-1" d="M108.95,112.42c-.08-.17-.25-.28-.44-.28h-1.44c-.19,0-.37,.11-.44,.29l-6.2,14.52c-.06,.15-.07,.29,.03,.41,.09,.11,.31,.11,.48,.11h2.1c.19,0,.37-.12,.44-.29l1.27-3.02h6.27l1.33,2.97,.04,.09c.07,.18,.25,.29,.44,.29h2.1c.16,0,.39,0,.48-.11,.09-.12,.09-.26,.03-.41l-6.5-14.56Zm-2.98,8.95l1.82-4.4,1.96,4.4h-3.79Z"/><g><path class="cls-1" d="M17.03,139.66c-2.01-1.04-4.74-1.56-8.12-1.56H.8c-.44,0-.8,.36-.8,.8v23.99c0,.44,.36,.8,.8,.8h7.6c2.2,0,3.65-.06,4.46-.19,.81-.13,1.71-.38,2.65-.75,1.64-.62,3.11-1.56,4.35-2.77,1.22-1.18,2.17-2.57,2.83-4.13,.66-1.56,.99-3.22,.99-4.92,0-2.38-.6-4.61-1.8-6.63-1.2-2.03-2.83-3.58-4.86-4.63Zm-11.98,3.11h3.5c1.6,0,2.76,.06,3.46,.18,.67,.11,1.4,.35,2.16,.71,.75,.35,1.42,.81,2,1.36,1.59,1.48,2.36,3.36,2.36,5.73s-.76,4.38-2.31,5.95c-.48,.48-1.01,.88-1.57,1.2-.57,.32-1.3,.6-2.18,.81-.88,.22-2.17,.33-3.81,.33h-3.6v-16.27Z"/><rect class="cls-1" x="53.79" y="138.1" width="5.04" height="25.63" rx=".8" ry=".8"/><path class="cls-1" d="M114.32,138.1h-3.44c-.44,0-.8,.36-.8,.8v9.59h-11.9v-9.59c0-.44-.36-.8-.8-.8h-3.44c-.44,0-.8,.36-.8,.8v24.03c0,.44,.36,.8,.8,.8h3.44c.44,0,.8-.36,.8-.8v-9.66h11.9v9.66c0,.44,.36,.8,.8,.8h3.44c.44,0,.8-.36,.8-.8v-24.03c0-.44-.36-.8-.8-.8Z"/><rect class="cls-1" x="122.02" y="138.1" width="5.04" height="25.63" rx=".8" ry=".8"/></g><g><path class="cls-1" d="M83.75,112.24h-1.93c-.14,0-.27,.06-.35,.17l-4.4,5.47-4.43-5.47c-.09-.11-.21-.17-.35-.17h-1.95c-.25,0-.45,.2-.45,.45v14.38c0,.25,.2,.45,.45,.45h2.06c.25,0,.45-.2,.45-.45v-9.91l3.67,4.56c.09,.11,.21,.17,.35,.17h.38c.14,0,.27-.06,.35-.17l3.62-4.55v9.9c0,.25,.2,.45,.45,.45h2.07c.25,0,.45-.2,.45-.45v-14.38c0-.25-.2-.45-.45-.45Z"/><path class="cls-1" d="M97.73,124.77h-5.84v-3.57h5.44c.25,0,.45-.2,.45-.45v-1.84c0-.25-.2-.45-.45-.45h-5.44v-3.48h5.64c.25,0,.45-.2,.45-.45v-1.83c0-.25-.2-.45-.45-.45h-8.15c-.25,0-.45,.2-.45,.45v14.36c0,.25,.2,.45,.45,.45h8.35c.25,0,.45-.2,.45-.45v-1.83c0-.25-.2-.45-.45-.45Z"/><path class="cls-1" d="M128.15,112.22h-12.01c-.25,0-.45,.2-.45,.45v1.83c0,.25,.2,.45,.45,.45h4.48v12.12c0,.25,.2,.45,.45,.45h2.07c.25,0,.45-.2,.45-.45v-12.12h4.56c.25,0,.45-.2,.45-.45v-1.83c0-.25-.2-.45-.45-.45Z"/></g><g><path class="cls-1" d="M8.8,124.72H3.01v-3.5h5.39c.26,0,.48-.21,.48-.48v-1.84c0-.26-.21-.48-.48-.48H3.01v-3.41h5.59c.26,0,.48-.21,.48-.48v-1.83c0-.26-.21-.48-.48-.48H.48c-.26,0-.48,.21-.48,.48v14.31c0,.26,.21,.48,.48,.48H8.8c.26,0,.48-.21,.48-.48v-1.83c0-.26-.21-.48-.48-.48Z"/><path class="cls-1" d="M21.19,119.33c.95-.7,1.43-1.66,1.43-2.89,0-.82-.2-1.56-.6-2.19-.4-.63-.97-1.13-1.72-1.49-.74-.35-1.71-.52-2.98-.52h-3.75c-.26,0-.48,.21-.48,.48v14.33c0,.26,.21,.48,.48,.48h4.85c1.16,0,2.15-.2,2.95-.59,.8-.4,1.42-.93,1.84-1.57,.43-.65,.64-1.4,.64-2.22,0-1.04-.36-1.95-1.06-2.71-.44-.47-.98-.84-1.62-1.1Zm-5.08,1.83h1.44c.96,0,1.65,.08,2.07,.24,.38,.14,.67,.35,.87,.64,.2,.28,.3,.59,.3,.92s-.09,.63-.29,.93c-.19,.29-.44,.5-.76,.64-.23,.1-.78,.22-2.09,.22h-1.54v-3.59Zm2.9-3.28c-.37,.33-1.05,.5-2.01,.5h-.89v-3.35h1.29c1.9,0,2.15,.85,2.15,1.58,0,.53-.17,.94-.54,1.27Z"/><rect class="cls-1" x="27.52" y="112.24" width="3.01" height="15.28" rx=".48" ry=".48"/><path class="cls-1" d="M40.76,118.94l-1.57-.93c-.65-.38-1.13-.74-1.41-1.08-.24-.29-.36-.58-.36-.9s.14-.58,.45-.8c.35-.25,.81-.37,1.37-.37,1.07,0,2.27,.38,3.22,1.29,.14,.13,.26,.23,.44,.16,.15-.06,.15-.25,.15-.44v-2.33c0-.16-.08-.31-.21-.4-1.07-.72-2.27-1.09-3.56-1.09-1.37,0-2.5,.4-3.37,1.18-.88,.8-1.33,1.84-1.33,3.1,0,.85,.24,1.61,.71,2.27,.46,.64,1.18,1.26,2.23,1.89l1.56,.95c1.1,.69,1.66,1.38,1.66,2.07,0,.4-.15,.71-.47,.98-.34,.29-.77,.42-1.3,.42-1.31,0-2.65-.58-3.67-1.88-.13-.16-.26-.28-.46-.22-.19,.07-.2,.26-.2,.46v2.61c0,.15,.07,.29,.19,.38,1.24,.93,2.64,1.4,4.15,1.4,1.35,0,2.47-.41,3.33-1.21,.87-.81,1.31-1.87,1.31-3.15,0-1.79-.96-3.27-2.86-4.4Z"/><path class="cls-1" d="M60,112.24h-2.06c-.26,0-.48,.21-.48,.48v8.13c0,1.33-.13,1.94-.24,2.22-.15,.39-.39,.73-.73,1.01-.67,.56-1.57,.84-2.67,.84-.78,0-1.45-.14-2.01-.43-.55-.28-.95-.63-1.21-1.08-.18-.31-.4-1.01-.4-2.57v-8.13c0-.26-.21-.48-.48-.48h-2.06c-.26,0-.48,.21-.48,.48v8.11c0,1.21,.08,2.09,.25,2.67,.17,.58,.38,1.09,.64,1.49,.26,.41,.58,.79,.96,1.12,1.21,1.04,2.83,1.57,4.8,1.57s3.55-.53,4.76-1.58c.38-.32,.7-.7,.96-1.11,.26-.41,.48-.92,.65-1.52,.17-.61,.26-1.47,.26-2.62v-8.13c0-.26-.21-.48-.48-.48Z"/></g></g></g></g></svg>