<?xml version="1.0" encoding="UTF-8"?><svg id="_イヤー_2" xmlns="http://www.w3.org/2000/svg" viewBox="0 0 101.12 38.25"><defs><style>.cls-1{fill:#e6442b;}.cls-2{fill:#ab8700;}.cls-3{fill:#231815;}.cls-4{fill:#549826;}</style></defs><g id="_イヤー_1-2"><g><g><g><path class="cls-3" d="M50.2,16.59h-5.31v-3.21h4.95c.24,0,.44-.2,.44-.44v-1.68c0-.24-.2-.44-.44-.44h-4.95v-3.13h5.13c.24,0,.44-.2,.44-.44v-1.68c0-.24-.2-.44-.44-.44h-7.46c-.24,0-.44,.2-.44,.44v13.13c0,.24,.2,.44,.44,.44h7.63c.24,0,.44-.2,.44-.44v-1.68c0-.24-.2-.44-.44-.44Z"/><path class="cls-3" d="M62.35,11.64c.87-.64,1.32-1.53,1.32-2.65,0-.75-.18-1.43-.55-2.01-.36-.58-.89-1.04-1.58-1.37-.68-.32-1.57-.48-2.73-.48h-3.45c-.24,0-.44,.2-.44,.44v13.15c0,.24,.2,.44,.44,.44h4.45c1.07,0,1.98-.18,2.7-.54,.74-.37,1.3-.85,1.69-1.44,.39-.6,.59-1.28,.59-2.04,0-.96-.33-1.79-.97-2.48-.41-.43-.9-.77-1.48-1.01Zm-4.66,1.68h1.32c.88,0,1.52,.07,1.9,.22,.35,.13,.61,.32,.8,.59,.18,.26,.27,.54,.27,.85s-.09,.58-.26,.85c-.18,.27-.4,.46-.69,.59-.21,.09-.72,.2-1.92,.2h-1.42v-3.29Zm2.66-3.01c-.34,.31-.96,.46-1.85,.46h-.81v-3.08h1.18c1.75,0,1.97,.78,1.97,1.45,0,.48-.16,.86-.49,1.16Z"/><rect class="cls-3" x="68.96" y="5.13" width="2.76" height="14.03" rx=".44" ry=".44"/><path class="cls-3" d="M81.94,11.27l-1.44-.85c-.6-.35-1.03-.68-1.29-.99-.22-.26-.33-.53-.33-.82s.13-.53,.41-.74c.32-.23,.74-.34,1.26-.34,.98,0,2.08,.35,2.95,1.19,.13,.12,.24,.21,.4,.14,.14-.06,.14-.23,.14-.4v-2.14c0-.15-.07-.28-.19-.36-.99-.66-2.08-1-3.27-1-1.25,0-2.3,.36-3.09,1.08-.81,.73-1.22,1.69-1.22,2.85,0,.78,.22,1.48,.65,2.09,.42,.58,1.09,1.15,2.04,1.74l1.43,.87c1.01,.63,1.52,1.27,1.52,1.9,0,.37-.14,.65-.43,.9-.31,.26-.7,.39-1.19,.39-1.21,0-2.43-.53-3.37-1.72-.12-.15-.24-.26-.42-.2-.18,.06-.18,.24-.18,.43v2.39c0,.14,.07,.27,.18,.35,1.14,.85,2.42,1.29,3.81,1.29,1.24,0,2.27-.37,3.05-1.11,.8-.74,1.2-1.72,1.2-2.89,0-1.64-.88-3-2.62-4.04Z"/><path class="cls-3" d="M100.25,5.13h-1.89c-.24,0-.44,.2-.44,.44v7.46c0,1.22-.12,1.78-.22,2.04-.14,.36-.36,.67-.67,.93-.62,.51-1.44,.77-2.45,.77-.71,0-1.33-.13-1.84-.39-.51-.26-.87-.58-1.11-.99-.17-.28-.36-.92-.36-2.36V5.57c0-.24-.2-.44-.44-.44h-1.89c-.24,0-.44,.2-.44,.44v7.45c0,1.11,.07,1.91,.23,2.45,.15,.53,.35,1,.59,1.37,.24,.38,.53,.72,.88,1.02,1.11,.96,2.6,1.44,4.41,1.44s3.25-.49,4.37-1.45c.34-.3,.64-.64,.88-1.02,.24-.38,.44-.85,.6-1.4,.16-.56,.24-1.35,.24-2.41V5.57c0-.24-.2-.44-.44-.44Z"/></g><g><path class="cls-3" d="M63.33,33.36c-.2-.27-.47-.68-.8-1.23-.56-.91-.98-1.53-1.29-1.89-.13-.16-.27-.29-.4-.42,.13-.04,.25-.09,.36-.15,.36-.21,.65-.48,.87-.81,.32-.47,.49-1.03,.49-1.66,0-.93-.33-1.69-.99-2.24-.64-.54-1.5-.81-2.57-.81h-2.95c-.18,0-.33,.15-.33,.33v9.78c0,.18,.15,.33,.33,.33h1.4c.18,0,.33-.15,.33-.33v-3.93h.04c.53,0,.74,.07,.82,.12,.17,.09,.36,.24,.58,.46,.22,.22,.48,.53,.75,.9l.91,1.5,.28,.39s.06,.08,.07,.1l.43,.64c.06,.09,.16,.15,.27,.15h1.67c.12,0,.35,.01,.4-.1,.06-.11,.01-.18-.06-.28l-.6-.84Zm-3.53-5.09c-.15,.07-.5,.15-1.32,.15h-.7v-2.43h.59c.81,0,1.19,.07,1.37,.14,.23,.08,.4,.21,.52,.4,.13,.2,.19,.41,.19,.66s-.06,.47-.17,.67c-.11,.19-.27,.33-.47,.42Z"/><path class="cls-3" d="M50.94,29.11h-3.29c-.18,0-.33,.15-.33,.33v1.25c0,.18,.15,.33,.33,.33h1.56v1.47c-.71,.23-1.32,.34-1.82,.34-1.08,0-1.93-.32-2.6-.97-.67-.65-1-1.46-1-2.49s.33-1.78,1-2.45c.68-.67,1.49-1,2.47-1,1.08,0,2.2,.33,3.31,.97,.1,.06,.21,.13,.34,.08,.1-.04,.15-.13,.15-.23v-1.56c0-.13-.08-.25-.2-.3-.77-.32-1.42-.55-1.93-.67-.52-.12-1.07-.19-1.65-.19-1.59,0-2.94,.52-4,1.55-1.07,1.03-1.61,2.34-1.61,3.88s.52,2.73,1.55,3.73c1.03,1,2.41,1.51,4.11,1.51,1.23,0,2.48-.27,3.72-.81,.12-.05,.2-.17,.2-.3v-4.15c0-.18-.15-.33-.33-.33Z"/><path class="cls-3" d="M71.77,24c-1.59,0-2.93,.51-3.98,1.53-1.05,1.02-1.58,2.32-1.58,3.86s.53,2.79,1.57,3.79c1.04,1,2.36,1.51,3.91,1.51s2.99-.51,4.06-1.51c1.08-1.01,1.63-2.29,1.63-3.82s-.54-2.82-1.61-3.84c-1.06-1.01-2.41-1.53-4-1.53Zm.01,8.75c-1.01,0-1.82-.31-2.49-.96-.66-.64-.99-1.43-.99-2.4s.32-1.81,.98-2.45c.66-.64,1.49-.96,2.53-.96,.98,0,1.79,.32,2.46,.97,.67,.65,1,1.43,1,2.38s-.33,1.78-1,2.44c-.67,.66-1.49,.98-2.51,.98Z"/><path class="cls-3" d="M89.75,24.14h-1.41c-.18,0-.33,.15-.33,.33v5.56c0,.91-.09,1.32-.16,1.52-.1,.27-.27,.5-.5,.69-.46,.38-1.07,.58-1.82,.58-.53,0-.99-.1-1.37-.29-.37-.19-.65-.44-.83-.74-.12-.21-.27-.69-.27-1.76v-5.56c0-.18-.15-.33-.33-.33h-1.41c-.18,0-.33,.15-.33,.33v5.54c0,.83,.06,1.42,.17,1.83,.11,.4,.26,.74,.44,1.02,.18,.28,.4,.54,.65,.76,.83,.71,1.93,1.07,3.28,1.07s2.42-.36,3.25-1.08c.26-.22,.48-.48,.66-.76,.18-.28,.33-.63,.44-1.04,.12-.42,.18-1,.18-1.79v-5.56c0-.18-.15-.33-.33-.33Z"/><path class="cls-3" d="M100.18,24.97c-.61-.56-1.44-.84-2.45-.84h-3.1c-.18,0-.33,.15-.33,.33v9.8c0,.18,.15,.33,.33,.33h1.41c.18,0,.33-.15,.33-.33v-3.92h.71c.98,0,1.71-.1,2.25-.32,.56-.22,1-.59,1.32-1.08,.32-.49,.48-1.06,.48-1.69,0-.94-.32-1.71-.94-2.27Zm-3.82,1.06h1.12c1.36,0,1.54,.63,1.54,1.18,0,.4-.11,.7-.35,.91-.25,.21-.62,.32-1.1,.32h-1.21v-2.41Z"/></g></g><g><path class="cls-1" d="M17.62,0C8.75,0,1.53,7.21,1.53,16.08c0,4.01,1.49,7.85,4.18,10.82,.01,.02,.03,.03,.04,.04,2.68,2.69,5.85,3.68,8.27,2.58,1.92-.88,2.96-2.85,2.79-5.29,0-.04-.02-.08-.05-.1-.03-.03-.07-.04-.11-.04l-2.29,.17c-.08,0-.15,.08-.14,.16,.1,1.32-.37,2.32-1.27,2.73-1.1,.5-3.07,.23-5.32-2.02-2.25-2.48-3.49-5.69-3.49-9.05,0-7.43,6.04-13.47,13.48-13.47s13.47,6.04,13.47,13.47c0,5.09-2.82,9.69-7.36,12.01-.07,.04-.1,.13-.07,.2l.51,1.09,.5,.98c.03,.05,.08,.08,.14,.08,.02,0,.05,0,.07-.02,5.44-2.76,8.82-8.26,8.82-14.35C33.7,7.21,26.48,0,17.62,0Z"/><path class="cls-4" d="M23.68,7.04c-.88-1.29-2.32-2.17-4.03-2.47-1.34-.24-2.91-.05-3.88,.24-.77,.23-1.37,.52-1.73,.71-.07,.04-.1,.13-.06,.2l.96,2.07s.05,.07,.09,.08c.04,.01,.09,0,.12-.01,.14-.08,.64-.36,1.35-.57,.68-.2,1.82-.33,2.7-.17,1.03,.18,1.86,.68,2.35,1.39,.38,.55,.51,1.18,.38,1.81-.39,1.96-2.41,2.32-4.02,2.04-.68-.12-2.47-.49-2.83-.68-.04-.02-.09-.02-.13,0-.04,.02-.07,.05-.09,.1l-.51,1.8c-.02,.07,.01,.14,.08,.18,.68,.36,2.31,1.02,3.03,1.15,.48,.08,.96,.13,1.42,.13,2.88,0,5.06-1.65,5.57-4.2,.26-1.31-.02-2.65-.78-3.77Z"/><path class="cls-2" d="M18.37,12.52c-.36-.13-1.35-.43-2.22-.7-.49-.15-.95-.29-1.25-.39-.04-.01-.08,0-.12,.01-.04,.02-.06,.05-.07,.09l-.61,2.31s0,.09,.02,.12c.02,.04,.06,.06,.11,.07,.46,.06,2.62,.7,3.26,.93,3.99,1.45,5.38,4.48,4.67,6.6-.37,1.09-1.09,1.87-2.14,2.34-.89,.39-2.03,.54-3.21,.41,.02-.03,.03-.06,.02-.09-.28-3.91-1.82-7.11-3.92-8.14-1.15-.57-2.4-.47-3.5,.26-1.09,.73-1.63,1.89-1.51,3.27,.21,2.43,2.47,5.18,5.25,6.4,1.44,.63,2.99,.96,4.47,.96,1.24,0,2.43-.24,3.44-.68,1.72-.76,2.95-2.1,3.55-3.88,1.31-3.86-1.38-8.11-6.24-9.88Zm-4.22,11.08c-2.05-.91-3.54-2.91-3.66-4.21-.05-.53,.15-.74,.35-.87,.2-.13,.36-.19,.53-.19,.12,0,.25,.03,.38,.1,.93,.46,2.03,2.37,2.39,5.18Z"/><path class="cls-1" d="M35.22,37.82l-.09-.26-.88-1.88c-.03-.06-.1-.1-.17-.08-1.17,.25-2.6-.42-5.57-2.1-3.28-1.86-5.02-1.19-7.89-.08l-.06,.02c-.29,.11-.59,.23-.91,.35l-.35,.13c-.28,.11-.74,.28-.8,.29-.11-.02-.64-.36-1-.58-.62-.39-1.48-.93-2.78-1.66-3.87-2.16-6.65-.69-9.87,1-1.36,.72-2.91,1.53-4.76,2.2-.04,.01-.07,.04-.09,.08s-.02,.08,0,.12l.98,2.1c.03,.07,.12,.11,.19,.08,1.95-.72,3.51-1.54,4.9-2.27,2.96-1.56,4.75-2.5,7.39-1.03,1.24,.69,2.06,1.21,2.66,1.59,1.78,1.12,2.21,1.25,4.12,.52l.34-.13c.34-.13,.65-.25,.95-.36l.04-.02c2.73-1.05,3.46-1.34,5.67-.08,2.57,1.46,4.53,2.49,6.38,2.49,.52,0,1.01-.08,1.5-.24,.08-.03,.12-.11,.1-.19Z"/></g></g></g></svg>