<?xml version="1.0" encoding="UTF-8"?><svg id="_イヤー_2" xmlns="http://www.w3.org/2000/svg" viewBox="0 0 168.66 64.07"><defs><style>.cls-1{fill:#345b91;}</style></defs><g id="_イヤー_1-2"><g><g><path class="cls-1" d="M84.09,28.52h-8.9v-5.37h8.28c.41,0,.73-.33,.73-.73v-2.82c0-.41-.33-.73-.73-.73h-8.28v-5.25h8.6c.41,0,.73-.33,.73-.73v-2.81c0-.41-.33-.73-.73-.73h-12.49c-.41,0-.73,.33-.73,.73v22c0,.41,.33,.73,.73,.73h12.79c.41,0,.73-.33,.73-.73v-2.81c0-.41-.33-.73-.73-.73Z"/><path class="cls-1" d="M104.44,20.23c1.46-1.07,2.2-2.56,2.2-4.44,0-1.26-.31-2.39-.92-3.36-.61-.97-1.5-1.74-2.64-2.29-1.13-.54-2.63-.81-4.57-.81h-5.77c-.41,0-.73,.33-.73,.73v22.03c0,.41,.33,.73,.73,.73h7.46c1.79,0,3.31-.31,4.53-.91,1.23-.61,2.19-1.43,2.83-2.42,.65-1,.99-2.15,.99-3.41,0-1.6-.55-3-1.62-4.16-.68-.73-1.51-1.29-2.49-1.7Zm-7.81,2.81h2.21c1.47,0,2.54,.12,3.18,.36,.59,.22,1.03,.54,1.34,.98,.31,.43,.46,.9,.46,1.42s-.14,.97-.44,1.42c-.3,.45-.68,.77-1.16,.98-.36,.16-1.2,.34-3.21,.34h-2.37v-5.52Zm4.46-5.05c-.57,.51-1.61,.77-3.09,.77h-1.36v-5.15h1.98c2.93,0,3.3,1.3,3.3,2.43,0,.81-.27,1.45-.82,1.95Z"/><rect class="cls-1" x="115.51" y="9.33" width="4.62" height="23.5" rx=".73" ry=".73"/><path class="cls-1" d="M137.25,19.62l-2.41-1.43c-1-.59-1.73-1.14-2.16-1.65-.37-.44-.56-.89-.56-1.38s.22-.9,.69-1.23c.53-.38,1.24-.58,2.11-.58,1.65,0,3.49,.59,4.95,1.99,.21,.2,.4,.35,.68,.24,.23-.09,.24-.38,.24-.67v-3.58c0-.24-.12-.47-.32-.61-1.65-1.11-3.49-1.67-5.47-1.67-2.1,0-3.85,.61-5.18,1.81-1.36,1.22-2.05,2.83-2.05,4.77,0,1.31,.37,2.48,1.09,3.49,.7,.98,1.82,1.93,3.43,2.91l2.39,1.45c1.69,1.05,2.55,2.13,2.55,3.19,0,.61-.23,1.09-.72,1.5-.53,.44-1.18,.65-2,.65-2.02,0-4.07-.89-5.64-2.88-.19-.25-.41-.44-.7-.33-.3,.1-.31,.4-.31,.71v4.01c0,.23,.11,.45,.29,.59,1.91,1.43,4.06,2.15,6.38,2.15,2.08,0,3.8-.62,5.11-1.85,1.33-1.24,2.01-2.87,2.01-4.84,0-2.75-1.48-5.02-4.39-6.76Z"/><path class="cls-1" d="M167.93,9.33h-3.17c-.41,0-.73,.33-.73,.73v12.5c0,2.04-.2,2.98-.36,3.41-.23,.6-.6,1.11-1.12,1.56-1.04,.86-2.42,1.3-4.1,1.3-1.19,0-2.23-.22-3.09-.65-.85-.43-1.45-.97-1.86-1.66-.28-.47-.61-1.55-.61-3.95V10.06c0-.41-.33-.73-.73-.73h-3.17c-.41,0-.73,.33-.73,.73v12.47c0,1.86,.13,3.21,.38,4.11,.26,.9,.59,1.67,.98,2.3,.4,.63,.89,1.21,1.47,1.72,1.86,1.6,4.35,2.42,7.39,2.42s5.45-.82,7.32-2.43c.58-.5,1.07-1.07,1.48-1.7,.4-.63,.73-1.42,1-2.34,.27-.94,.4-2.26,.4-4.03V10.06c0-.41-.33-.73-.73-.73Z"/></g><g><path class="cls-1" d="M167.54,54.51c-.29-.39-.68-.99-1.16-1.78-.81-1.31-1.42-2.21-1.87-2.74-.19-.23-.39-.41-.58-.6,.18-.06,.36-.13,.52-.21,.52-.31,.94-.7,1.27-1.17,.47-.68,.7-1.49,.7-2.41,0-1.35-.48-2.44-1.43-3.24-.92-.78-2.17-1.17-3.71-1.17h-4.27c-.26,0-.47,.21-.47,.47v14.15c0,.26,.21,.47,.47,.47h2.03c.26,0,.47-.21,.47-.47v-5.68h.05c.76,0,1.07,.11,1.19,.17,.24,.13,.52,.35,.83,.66,.33,.32,.7,.77,1.08,1.3l1.32,2.16,.4,.57c.05,.07,.08,.11,.11,.15l.62,.93c.09,.13,.24,.21,.4,.21h2.41c.18,0,.5,.02,.58-.14,.08-.16,.02-.26-.09-.4l-.86-1.22Zm-5.11-7.36c-.22,.1-.73,.22-1.91,.22h-1.02v-3.52h.86c1.17,0,1.72,.11,1.98,.2,.33,.11,.58,.3,.76,.58,.19,.28,.28,.6,.28,.95s-.08,.68-.25,.97c-.16,.27-.39,.47-.68,.61Z"/><path class="cls-1" d="M79.44,53.54h-5.95v-11.91c0-.25-.2-.45-.45-.45h-2.03c-.25,0-.45,.2-.45,.45v14.21c0,.25,.2,.45,.45,.45h8.43c.25,0,.45-.2,.45-.45v-1.85c0-.25-.2-.45-.45-.45Z"/><rect class="cls-1" x="85.37" y="41.18" width="2.93" height="15.1" rx=".45" ry=".45"/><path class="cls-1" d="M108.72,53.61c1.16-1.41,1.75-3.06,1.75-4.91,0-2.21-.78-4.06-2.32-5.53-1.53-1.45-3.48-2.19-5.78-2.19s-4.27,.74-5.79,2.21c-1.53,1.47-2.3,3.35-2.3,5.59,0,1.84,.6,3.48,1.79,4.89,1.17,1.38,2.66,2.25,4.44,2.6,1.17,.8,2.13,1.38,2.85,1.72,.74,.35,1.47,.63,2.19,.82,.72,.2,1.43,.32,2.09,.36h.02c.12,0,.23-.04,.31-.13l2.04-1.98c.15-.14,.22-.33,.12-.47s-.28-.12-.8-.07c-.79,.07-2.51,.04-3.79-.61,1.25-.47,2.31-1.24,3.18-2.29Zm-6.35-9.81c1.5,0,2.7,.46,3.67,1.4,.97,.94,1.44,2.1,1.44,3.54s-.48,2.56-1.47,3.51c-.99,.96-2.18,1.43-3.64,1.43s-2.67-.46-3.64-1.4c-.97-.93-1.44-2.08-1.44-3.49s.47-2.63,1.43-3.58c.97-.95,2.16-1.42,3.65-1.42Z"/><path class="cls-1" d="M128.63,41.18h-2.04c-.25,0-.45,.2-.45,.45v8.07c0,1.32-.13,1.93-.23,2.21-.15,.39-.4,.73-.73,1.02-.67,.56-1.57,.84-2.67,.84-.77,0-1.45-.14-2.01-.43-.54-.27-.95-.64-1.21-1.08-.18-.31-.4-1.01-.4-2.56v-8.07c0-.25-.2-.45-.45-.45h-2.04c-.25,0-.45,.2-.45,.45v8.05c0,1.2,.08,2.07,.25,2.64,.16,.57,.38,1.07,.63,1.47,.26,.4,.57,.77,.95,1.1,1.2,1.03,2.79,1.55,4.75,1.55s3.5-.53,4.71-1.56c.37-.32,.69-.69,.95-1.09,.26-.4,.47-.91,.64-1.5,.17-.6,.26-1.45,.26-2.59v-8.07c0-.25-.2-.45-.45-.45Z"/><path class="cls-1" d="M142.59,40.97c-2.31,0-4.24,.74-5.76,2.21-1.52,1.47-2.29,3.35-2.29,5.59s.77,4.03,2.28,5.48c1.51,1.45,3.41,2.18,5.66,2.18s4.33-.73,5.88-2.18c1.56-1.46,2.35-3.32,2.35-5.53s-.78-4.08-2.33-5.55c-1.54-1.46-3.49-2.21-5.79-2.21Zm.02,12.71c-1.47,0-2.66-.46-3.63-1.4-.97-.94-1.44-2.08-1.44-3.5s.47-2.64,1.44-3.58c.97-.94,2.18-1.4,3.7-1.4,1.44,0,2.61,.46,3.6,1.42,.98,.95,1.45,2.09,1.45,3.48s-.48,2.6-1.46,3.56c-.98,.96-2.18,1.43-3.66,1.43Z"/></g></g><g><path class="cls-1" d="M29.51,0C14.65,0,2.57,12.08,2.57,26.94c0,6.72,2.49,13.16,7.01,18.12,.02,.03,.05,.05,.07,.07,4.5,4.51,9.8,6.16,13.86,4.31,3.22-1.47,4.96-4.78,4.67-8.86,0-.07-.04-.13-.09-.17-.05-.04-.12-.07-.19-.06l-3.84,.28c-.14,0-.25,.13-.24,.27,.16,2.22-.61,3.89-2.13,4.58-1.84,.84-5.15,.38-8.92-3.38-3.77-4.16-5.84-9.54-5.84-15.15C6.94,14.49,17.06,4.36,29.51,4.36s22.57,10.13,22.57,22.57c0,8.53-4.72,16.24-12.32,20.12-.12,.06-.17,.21-.12,.34l.86,1.83,.83,1.64c.04,.09,.13,.14,.23,.14,.04,0,.08,0,.12-.03,9.11-4.62,14.77-13.83,14.77-24.04C56.44,12.08,44.36,0,29.51,0Z"/><path class="cls-1" d="M39.67,11.79c-1.48-2.17-3.88-3.64-6.76-4.15-2.24-.39-4.88-.08-6.5,.4-1.3,.39-2.29,.86-2.9,1.2-.12,.06-.17,.21-.11,.33l1.61,3.46c.03,.07,.09,.11,.16,.14,.07,.02,.14,.01,.21-.02,.23-.14,1.07-.61,2.27-.96,1.14-.34,3.06-.54,4.52-.29,1.72,.3,3.12,1.13,3.94,2.33,.63,.92,.85,1.97,.64,3.03-.65,3.28-4.03,3.89-6.73,3.41-1.14-.2-4.13-.82-4.74-1.14-.07-.04-.15-.04-.22,0-.07,.03-.12,.09-.15,.17l-.85,3.02c-.03,.12,.02,.24,.13,.29,1.14,.61,3.87,1.71,5.08,1.92,.81,.14,1.61,.21,2.38,.21,4.82,0,8.48-2.76,9.33-7.04,.44-2.19-.03-4.43-1.31-6.31Z"/><path class="cls-1" d="M30.76,20.98c-.6-.22-2.26-.73-3.72-1.18-.83-.25-1.6-.49-2.1-.65-.07-.02-.14-.01-.2,.02-.06,.03-.11,.09-.12,.16l-1.02,3.87c-.02,.07,0,.15,.03,.21,.04,.06,.11,.1,.18,.11,.77,.1,4.4,1.17,5.46,1.56,6.68,2.43,9.02,7.51,7.82,11.05-.62,1.82-1.82,3.14-3.58,3.91-1.5,.66-3.39,.9-5.37,.69,.03-.05,.04-.1,.04-.16-.47-6.55-3.05-11.9-6.57-13.63-1.93-.95-4.02-.8-5.87,.43-1.83,1.22-2.73,3.16-2.53,5.48,.36,4.07,4.14,8.68,8.8,10.71,2.42,1.05,5.01,1.61,7.5,1.61,2.08,0,4.07-.4,5.76-1.15,2.88-1.27,4.94-3.52,5.95-6.5,2.19-6.47-2.3-13.58-10.46-16.55Zm-7.08,18.56c-3.43-1.53-5.93-4.87-6.12-7.06-.08-.89,.26-1.24,.59-1.46,.33-.22,.61-.32,.89-.32,.2,0,.41,.05,.64,.17,1.56,.77,3.4,3.97,4,8.67Z"/><path class="cls-1" d="M59,63.35l-.14-.43-1.47-3.15c-.05-.11-.17-.17-.28-.14-1.97,.41-4.36-.7-9.33-3.51-5.5-3.11-8.4-1.99-13.22-.13l-.09,.04c-.48,.19-.99,.38-1.53,.58l-.59,.22c-.46,.18-1.23,.47-1.34,.48-.19-.04-1.08-.6-1.67-.97-1.04-.66-2.47-1.56-4.66-2.78-6.47-3.61-11.13-1.16-16.53,1.68-2.28,1.2-4.87,2.56-7.97,3.68-.06,.02-.12,.07-.14,.13s-.03,.13,0,.2l1.63,3.53c.06,.12,.2,.18,.32,.13,3.26-1.2,5.89-2.58,8.2-3.8,4.96-2.61,7.96-4.19,12.37-1.73,2.08,1.16,3.46,2.03,4.46,2.66,2.99,1.88,3.7,2.1,6.9,.88l.57-.22c.56-.21,1.09-.41,1.59-.61l.07-.03c4.57-1.76,5.79-2.24,9.5-.14,4.31,2.44,7.59,4.16,10.69,4.16,.87,0,1.69-.13,2.52-.4,.13-.04,.21-.19,.16-.32Z"/></g></g></svg>