<?xml version="1.0" encoding="UTF-8"?><svg id="_イヤー_2" xmlns="http://www.w3.org/2000/svg" viewBox="0 0 14.97 122.29"><defs><style>.cls-1{fill:#fff;}.cls-2{stroke-linecap:round;}.cls-2,.cls-3{fill:none;stroke:#fff;stroke-miterlimit:10;}</style></defs><g id="_イヤー_1-2"><g><g><line class="cls-3" x1="7.49" y1="66" x2="7.49" y2="113.63"/><polygon class="cls-2" points=".8 107.4 7.49 121.15 14.17 107.4 .8 107.4"/></g><g><g><path class="cls-1" d="M3.83,3.36c0-.71,.15-1.36,.45-1.95,.3-.59,.8-1.06,1.51-1.42l.66,1.17c-.4,.24-.72,.53-.95,.88-.23,.35-.34,.8-.34,1.36s.1,.96,.31,1.19c.2,.23,.48,.34,.84,.34,.22,0,.42-.05,.58-.15,.16-.1,.31-.31,.45-.63,.14-.32,.28-.8,.43-1.46,.18-.78,.48-1.35,.88-1.73,.4-.37,.91-.56,1.53-.56,.49,0,.92,.12,1.3,.35,.37,.24,.66,.57,.87,1,.21,.43,.31,.93,.31,1.51,0,.76-.17,1.41-.5,1.93-.33,.52-.72,.92-1.17,1.19l-.84-1.1c.19-.14,.38-.3,.56-.48,.18-.19,.33-.4,.45-.65,.12-.25,.17-.55,.17-.9,0-.42-.09-.76-.27-1.02-.18-.26-.45-.39-.81-.39-.16,0-.32,.04-.46,.11-.15,.08-.29,.25-.43,.51-.14,.26-.27,.67-.4,1.21-.22,.96-.54,1.66-.98,2.08-.43,.43-.98,.64-1.64,.64-.8,0-1.42-.28-1.85-.84-.43-.56-.64-1.29-.64-2.21Z"/><path class="cls-1" d="M3.8,12.32c0-.76,.18-1.44,.54-2.04,.36-.6,.87-1.07,1.54-1.4,.66-.34,1.44-.51,2.33-.51s1.68,.17,2.34,.51c.66,.34,1.18,.81,1.54,1.4,.37,.6,.55,1.28,.55,2.04,0,.71-.16,1.34-.47,1.9-.31,.56-.75,1.02-1.31,1.36l-.72-1.24c.36-.22,.64-.51,.84-.85,.2-.34,.3-.73,.3-1.17,0-.5-.13-.94-.38-1.31-.25-.38-.61-.67-1.07-.87-.46-.2-1-.31-1.62-.31s-1.15,.1-1.61,.31c-.46,.21-.82,.5-1.07,.87-.25,.38-.38,.81-.38,1.31,0,.44,.1,.83,.3,1.17,.2,.34,.48,.62,.84,.85l-.72,1.24c-.55-.35-.99-.8-1.3-1.36-.31-.56-.47-1.2-.47-1.9Z"/><path class="cls-1" d="M3.99,17.85H12.43v3.86c0,.79-.18,1.41-.55,1.87-.37,.46-.99,.69-1.87,.69-.74,0-1.3-.17-1.68-.51-.38-.34-.62-.8-.7-1.4l-3.63,1.81v-1.63l3.57-1.63v-1.69H3.99v-1.39Zm4.87,1.39v2.28c0,.41,.09,.73,.26,.95,.18,.22,.47,.34,.88,.34s.69-.11,.87-.34c.18-.23,.27-.54,.27-.95v-2.28h-2.28Z"/><path class="cls-1" d="M3.8,30.07c0-.76,.18-1.44,.54-2.04,.36-.6,.87-1.07,1.54-1.4,.66-.34,1.44-.51,2.33-.51s1.68,.17,2.34,.51c.66,.34,1.18,.81,1.54,1.4,.37,.6,.55,1.28,.55,2.04s-.18,1.44-.55,2.03c-.37,.59-.88,1.06-1.54,1.4s-1.44,.51-2.34,.51-1.67-.17-2.33-.51-1.17-.81-1.54-1.4c-.36-.59-.54-1.27-.54-2.03Zm1.35,0c0,.51,.13,.94,.38,1.31,.25,.37,.61,.66,1.07,.86s1,.31,1.61,.31,1.16-.1,1.62-.31c.46-.21,.82-.49,1.07-.86,.25-.37,.38-.81,.38-1.31s-.13-.94-.38-1.31c-.25-.38-.61-.67-1.07-.87-.46-.2-1-.31-1.62-.31s-1.15,.1-1.61,.31c-.46,.21-.82,.5-1.07,.87-.25,.38-.38,.81-.38,1.31Z"/><path class="cls-1" d="M3.99,36.26H12.43v1.39H5.28v4.4h-1.29v-5.78Z"/><path class="cls-1" d="M3.99,44.09H12.43v1.39H5.28v4.4h-1.29v-5.78Z"/></g><g><path class="cls-1" d="M3.83,3.36c0-.71,.15-1.36,.45-1.95,.3-.59,.8-1.06,1.51-1.42l.66,1.17c-.4,.24-.72,.53-.95,.88-.23,.35-.34,.8-.34,1.36s.1,.96,.31,1.19c.2,.23,.48,.34,.84,.34,.22,0,.42-.05,.58-.15,.16-.1,.31-.31,.45-.63,.14-.32,.28-.8,.43-1.46,.18-.78,.48-1.35,.88-1.73,.4-.37,.91-.56,1.53-.56,.49,0,.92,.12,1.3,.35,.37,.24,.66,.57,.87,1,.21,.43,.31,.93,.31,1.51,0,.76-.17,1.41-.5,1.93-.33,.52-.72,.92-1.17,1.19l-.84-1.1c.19-.14,.38-.3,.56-.48,.18-.19,.33-.4,.45-.65,.12-.25,.17-.55,.17-.9,0-.42-.09-.76-.27-1.02-.18-.26-.45-.39-.81-.39-.16,0-.32,.04-.46,.11-.15,.08-.29,.25-.43,.51-.14,.26-.27,.67-.4,1.21-.22,.96-.54,1.66-.98,2.08-.43,.43-.98,.64-1.64,.64-.8,0-1.42-.28-1.85-.84-.43-.56-.64-1.29-.64-2.21Z"/><path class="cls-1" d="M3.8,12.32c0-.76,.18-1.44,.54-2.04,.36-.6,.87-1.07,1.54-1.4,.66-.34,1.44-.51,2.33-.51s1.68,.17,2.34,.51c.66,.34,1.18,.81,1.54,1.4,.37,.6,.55,1.28,.55,2.04,0,.71-.16,1.34-.47,1.9-.31,.56-.75,1.02-1.31,1.36l-.72-1.24c.36-.22,.64-.51,.84-.85,.2-.34,.3-.73,.3-1.17,0-.5-.13-.94-.38-1.31-.25-.38-.61-.67-1.07-.87-.46-.2-1-.31-1.62-.31s-1.15,.1-1.61,.31c-.46,.21-.82,.5-1.07,.87-.25,.38-.38,.81-.38,1.31,0,.44,.1,.83,.3,1.17,.2,.34,.48,.62,.84,.85l-.72,1.24c-.55-.35-.99-.8-1.3-1.36-.31-.56-.47-1.2-.47-1.9Z"/><path class="cls-1" d="M3.99,17.85H12.43v3.86c0,.79-.18,1.41-.55,1.87-.37,.46-.99,.69-1.87,.69-.74,0-1.3-.17-1.68-.51-.38-.34-.62-.8-.7-1.4l-3.63,1.81v-1.63l3.57-1.63v-1.69H3.99v-1.39Zm4.87,1.39v2.28c0,.41,.09,.73,.26,.95,.18,.22,.47,.34,.88,.34s.69-.11,.87-.34c.18-.23,.27-.54,.27-.95v-2.28h-2.28Z"/><path class="cls-1" d="M3.8,30.07c0-.76,.18-1.44,.54-2.04,.36-.6,.87-1.07,1.54-1.4,.66-.34,1.44-.51,2.33-.51s1.68,.17,2.34,.51c.66,.34,1.18,.81,1.54,1.4,.37,.6,.55,1.28,.55,2.04s-.18,1.44-.55,2.03c-.37,.59-.88,1.06-1.54,1.4s-1.44,.51-2.34,.51-1.67-.17-2.33-.51-1.17-.81-1.54-1.4c-.36-.59-.54-1.27-.54-2.03Zm1.35,0c0,.51,.13,.94,.38,1.31,.25,.37,.61,.66,1.07,.86s1,.31,1.61,.31,1.16-.1,1.62-.31c.46-.21,.82-.49,1.07-.86,.25-.37,.38-.81,.38-1.31s-.13-.94-.38-1.31c-.25-.38-.61-.67-1.07-.87-.46-.2-1-.31-1.62-.31s-1.15,.1-1.61,.31c-.46,.21-.82,.5-1.07,.87-.25,.38-.38,.81-.38,1.31Z"/><path class="cls-1" d="M3.99,36.26H12.43v1.39H5.28v4.4h-1.29v-5.78Z"/><path class="cls-1" d="M3.99,44.09H12.43v1.39H5.28v4.4h-1.29v-5.78Z"/></g></g></g></g></svg>