<?xml version="1.0" encoding="UTF-8"?><svg id="_イヤー_2" xmlns="http://www.w3.org/2000/svg" viewBox="0 0 52.9 31.78"><defs><style>.cls-1{fill:#fff;}</style></defs><g id="_イヤー_1-2"><g><g><g><path class="cls-1" d="M3.41,31.78c-.66,0-1.24-.16-1.76-.47-.52-.31-.92-.75-1.21-1.32-.29-.57-.44-1.24-.44-2.01s.15-1.45,.44-2.02c.29-.57,.69-1.01,1.21-1.33,.52-.32,1.1-.47,1.76-.47,.61,0,1.16,.14,1.64,.41,.48,.27,.88,.65,1.17,1.13l-1.07,.62c-.19-.31-.44-.55-.73-.73-.29-.17-.63-.26-1.01-.26-.43,0-.81,.11-1.13,.33s-.58,.53-.75,.92c-.18,.4-.26,.86-.26,1.4s.09,.99,.26,1.39c.18,.4,.43,.71,.75,.92,.33,.22,.7,.33,1.13,.33,.38,0,.72-.09,1.01-.26,.29-.17,.54-.42,.73-.73l1.07,.62c-.3,.48-.69,.85-1.17,1.12-.49,.27-1.03,.41-1.64,.41Z"/><path class="cls-1" d="M11.32,31.78c-.66,0-1.24-.16-1.76-.47-.52-.31-.92-.75-1.21-1.32-.29-.57-.44-1.24-.44-2.01s.15-1.45,.44-2.02c.29-.57,.69-1.01,1.21-1.33,.52-.32,1.1-.47,1.76-.47s1.24,.16,1.75,.47c.51,.32,.91,.76,1.21,1.33,.29,.57,.44,1.24,.44,2.02s-.15,1.44-.44,2.01c-.29,.57-.7,1.01-1.21,1.32-.51,.31-1.09,.47-1.75,.47Zm0-1.16c.44,0,.81-.11,1.13-.33,.32-.22,.57-.53,.74-.92,.18-.4,.26-.86,.26-1.39s-.09-1-.26-1.4c-.18-.4-.42-.71-.74-.92-.32-.22-.7-.33-1.13-.33s-.81,.11-1.13,.33-.58,.53-.75,.92c-.18,.4-.26,.86-.26,1.4s.09,.99,.26,1.39c.18,.4,.43,.71,.75,.92,.33,.22,.7,.33,1.13,.33Z"/><path class="cls-1" d="M16.76,31.61v-7.27h1.19l3.43,5.16v-5.16h1.21v7.27h-1.15l-3.49-5.31v5.31h-1.19Z"/><path class="cls-1" d="M26.75,31.61v-6.16h-2.19v-1.11h5.59v1.11h-2.18v6.16h-1.21Z"/><path class="cls-1" d="M31.46,31.61l2.77-7.27h1.06l2.77,7.27h-1.36l-.56-1.6h-2.79l-.56,1.6h-1.33Zm2.29-2.71h2.01l-1-2.84-1.02,2.84Z"/><path class="cls-1" d="M42.88,31.78c-.66,0-1.24-.16-1.76-.47-.52-.31-.92-.75-1.21-1.32-.29-.57-.44-1.24-.44-2.01s.15-1.45,.44-2.02c.29-.57,.69-1.01,1.21-1.33,.52-.32,1.1-.47,1.76-.47,.61,0,1.16,.14,1.64,.41,.48,.27,.88,.65,1.17,1.13l-1.07,.62c-.19-.31-.44-.55-.73-.73-.29-.17-.63-.26-1.01-.26-.43,0-.81,.11-1.13,.33s-.58,.53-.75,.92c-.18,.4-.26,.86-.26,1.4s.09,.99,.26,1.39c.18,.4,.43,.71,.75,.92,.33,.22,.7,.33,1.13,.33,.38,0,.72-.09,1.01-.26,.29-.17,.54-.42,.73-.73l1.07,.62c-.3,.48-.69,.85-1.17,1.12-.49,.27-1.03,.41-1.64,.41Z"/><path class="cls-1" d="M49.5,31.61v-6.16h-2.19v-1.11h5.59v1.11h-2.18v6.16h-1.21Z"/></g><g><path d="M3.41,31.78c-.66,0-1.24-.16-1.76-.47-.52-.31-.92-.75-1.21-1.32-.29-.57-.44-1.24-.44-2.01s.15-1.45,.44-2.02c.29-.57,.69-1.01,1.21-1.33,.52-.32,1.1-.47,1.76-.47,.61,0,1.16,.14,1.64,.41,.48,.27,.88,.65,1.17,1.13l-1.07,.62c-.19-.31-.44-.55-.73-.73-.29-.17-.63-.26-1.01-.26-.43,0-.81,.11-1.13,.33s-.58,.53-.75,.92c-.18,.4-.26,.86-.26,1.4s.09,.99,.26,1.39c.18,.4,.43,.71,.75,.92,.33,.22,.7,.33,1.13,.33,.38,0,.72-.09,1.01-.26,.29-.17,.54-.42,.73-.73l1.07,.62c-.3,.48-.69,.85-1.17,1.12-.49,.27-1.03,.41-1.64,.41Z"/><path d="M11.32,31.78c-.66,0-1.24-.16-1.76-.47-.52-.31-.92-.75-1.21-1.32-.29-.57-.44-1.24-.44-2.01s.15-1.45,.44-2.02c.29-.57,.69-1.01,1.21-1.33,.52-.32,1.1-.47,1.76-.47s1.24,.16,1.75,.47c.51,.32,.91,.76,1.21,1.33,.29,.57,.44,1.24,.44,2.02s-.15,1.44-.44,2.01c-.29,.57-.7,1.01-1.21,1.32-.51,.31-1.09,.47-1.75,.47Zm0-1.16c.44,0,.81-.11,1.13-.33,.32-.22,.57-.53,.74-.92,.18-.4,.26-.86,.26-1.39s-.09-1-.26-1.4c-.18-.4-.42-.71-.74-.92-.32-.22-.7-.33-1.13-.33s-.81,.11-1.13,.33-.58,.53-.75,.92c-.18,.4-.26,.86-.26,1.4s.09,.99,.26,1.39c.18,.4,.43,.71,.75,.92,.33,.22,.7,.33,1.13,.33Z"/><path d="M16.76,31.61v-7.27h1.19l3.43,5.16v-5.16h1.21v7.27h-1.15l-3.49-5.31v5.31h-1.19Z"/><path d="M26.75,31.61v-6.16h-2.19v-1.11h5.59v1.11h-2.18v6.16h-1.21Z"/><path d="M31.46,31.61l2.77-7.27h1.06l2.77,7.27h-1.36l-.56-1.6h-2.79l-.56,1.6h-1.33Zm2.29-2.71h2.01l-1-2.84-1.02,2.84Z"/><path d="M42.88,31.78c-.66,0-1.24-.16-1.76-.47-.52-.31-.92-.75-1.21-1.32-.29-.57-.44-1.24-.44-2.01s.15-1.45,.44-2.02c.29-.57,.69-1.01,1.21-1.33,.52-.32,1.1-.47,1.76-.47,.61,0,1.16,.14,1.64,.41,.48,.27,.88,.65,1.17,1.13l-1.07,.62c-.19-.31-.44-.55-.73-.73-.29-.17-.63-.26-1.01-.26-.43,0-.81,.11-1.13,.33s-.58,.53-.75,.92c-.18,.4-.26,.86-.26,1.4s.09,.99,.26,1.39c.18,.4,.43,.71,.75,.92,.33,.22,.7,.33,1.13,.33,.38,0,.72-.09,1.01-.26,.29-.17,.54-.42,.73-.73l1.07,.62c-.3,.48-.69,.85-1.17,1.12-.49,.27-1.03,.41-1.64,.41Z"/><path d="M49.5,31.61v-6.16h-2.19v-1.11h5.59v1.11h-2.18v6.16h-1.21Z"/></g></g><g><path d="M26.88,8.95c.49,0,.95-.19,1.29-.53l1.81-1.81L35.71,.88c-.09-.5-.52-.88-1.05-.88h-15.56c-.52,0-.96,.38-1.05,.88l7.54,7.54c.35,.35,.8,.53,1.29,.53Z"/><polygon points="19.67 4.3 18.05 2.67 18.05 2.68 18.03 2.67 18.03 10.54 21.97 6.61 19.67 4.3"/><path d="M30.89,7.52h0l-1.81,1.8c-.59,.59-1.37,.91-2.2,.91s-1.61-.32-2.2-.91l-1.81-1.81-4.78,4.78c.15,.41,.54,.71,1.01,.71h15.56c.46,0,.86-.3,1.01-.71l-4.77-4.77h0Z"/><polygon points="35.72 2.69 35.72 2.67 31.81 6.58 31.79 6.6 31.79 6.6 31.79 6.61 35.72 10.54 35.72 5.92 35.73 2.68 35.72 2.69"/></g></g></g></svg>