<?xml version="1.0" encoding="UTF-8"?><svg id="_イヤー_2" xmlns="http://www.w3.org/2000/svg" viewBox="0 0 30.92 22.72"><defs><style>.cls-1{fill:#808045;}</style></defs><g id="_イヤー_1-2"><g><path class="cls-1" d="M15.45,15.64c.85,0,1.65-.33,2.25-.93l3.17-3.16L30.88,1.54c-.15-.88-.92-1.54-1.83-1.54H1.86C.95,0,.18,.66,.03,1.54L13.2,14.71c.6,.6,1.4,.93,2.26,.93Z"/><polygon class="cls-1" points="2.85 7.52 .02 4.67 .02 4.69 0 4.67 0 18.42 6.88 11.54 2.85 7.52"/><path class="cls-1" d="M22.46,13.14h-.01l-3.16,3.15c-1.03,1.02-2.39,1.59-3.84,1.59s-2.81-.57-3.84-1.59l-3.16-3.16L.1,21.48c.26,.72,.95,1.24,1.76,1.24H29.05c.81,0,1.5-.52,1.76-1.24l-8.34-8.34h0Z"/><polygon class="cls-1" points="30.91 4.69 30.91 4.67 24.07 11.5 24.04 11.53 24.04 11.53 24.03 11.54 30.91 18.42 30.91 10.35 30.92 4.68 30.91 4.69"/></g></g></svg>