<?xml version="1.0" encoding="UTF-8"?><svg id="_イヤー_2" xmlns="http://www.w3.org/2000/svg" viewBox="0 0 29.97 33.19"><defs><style>.cls-1{fill:#808045;}</style></defs><g id="_イヤー_1-2"><g><path class="cls-1" d="M11.49,25.02c1.3,0,3.01-1.25,6.53-5.43,3.52-4.17,5.5-7.24,4.57-8.02-.4-.34-1.18-.99-1.98-1.65l6.34-7.51,1.57,1.31c2.06,1.72,2.19,8.09-1.36,14.02-3.54,5.94-10.77,12.46-12.77,13.39-2.01,.93-7.6,3.37-10.25,1.15-.55-.46-1.02-.85-1.41-1.17l6.41-7.59c1.02,.81,1.65,1.5,2.36,1.5Z"/><path class="cls-1" d="M18.24,7.94c-.5-.42-.57-.89-.1-1.44,.47-.56,4.46-5.29,5.05-5.98s.8-.58,1.16-.28c.15,.13,.68,.57,1.34,1.12l-6.34,7.51c-.53-.44-.95-.79-1.11-.93Z"/><path class="cls-1" d="M5.43,21.5c.42-.36,.6-.57,1.1-.15,.17,.14,.69,.59,1.33,1.14L1.46,30.08c-.57-.47-.86-.75-1.13-1.09-.53-.68-.38-1.15,.09-1.7,.47-.56,4.58-5.43,5-5.78Z"/></g></g></svg>