<?xml version="1.0" encoding="UTF-8"?><svg id="_イヤー_2" xmlns="http://www.w3.org/2000/svg" viewBox="0 0 138.39 212"><defs><style>.cls-1{fill:#fff;}</style></defs><g id="_イヤー_1-2"><g><g><g><path class="cls-1" d="M19.81,169.84H7.44v-7.47h11.52c.56,0,1.02-.46,1.02-1.02v-3.92c0-.56-.46-1.02-1.02-1.02H7.44v-7.29h11.95c.56,0,1.02-.46,1.02-1.02v-3.9c0-.56-.46-1.02-1.02-1.02H2.03c-.56,0-1.02,.46-1.02,1.02v30.58c0,.56,.46,1.02,1.02,1.02H19.81c.56,0,1.02-.46,1.02-1.02v-3.9c0-.56-.46-1.02-1.02-1.02Z"/><path class="cls-1" d="M48.1,158.31c2.04-1.49,3.06-3.55,3.06-6.17,0-1.75-.43-3.32-1.27-4.67-.84-1.35-2.08-2.42-3.67-3.18-1.57-.75-3.65-1.12-6.36-1.12h-8.02c-.56,0-1.02,.46-1.02,1.02v30.62c0,.56,.46,1.02,1.02,1.02h10.37c2.49,0,4.61-.43,6.3-1.27,1.71-.85,3.04-1.98,3.94-3.36,.91-1.39,1.37-2.99,1.37-4.75,0-2.23-.76-4.18-2.26-5.78-.94-1.01-2.1-1.8-3.46-2.36Zm-10.85,3.9h3.08c2.04,0,3.53,.17,4.42,.5,.82,.31,1.43,.76,1.86,1.36,.43,.6,.64,1.25,.64,1.98s-.2,1.35-.61,1.98c-.41,.63-.94,1.07-1.62,1.37-.5,.22-1.67,.47-4.47,.47h-3.3v-7.67Zm6.19-7.02c-.79,.71-2.23,1.07-4.3,1.07h-1.89v-7.16h2.75c4.07,0,4.59,1.81,4.59,3.38,0,1.13-.37,2.01-1.14,2.71Z"/><rect class="cls-1" x="63.5" y="143.16" width="6.43" height="32.66" rx="1.02" ry="1.02"/><path class="cls-1" d="M93.72,157.47l-3.35-1.98c-1.4-.82-2.41-1.59-3.01-2.3-.52-.61-.77-1.24-.77-1.92s.3-1.25,.96-1.71c.74-.53,1.72-.8,2.93-.8,2.29,0,4.85,.81,6.88,2.76,.3,.28,.56,.49,.94,.33,.32-.13,.33-.53,.33-.94v-4.98c0-.34-.17-.66-.45-.85-2.29-1.54-4.85-2.33-7.61-2.33-2.92,0-5.34,.85-7.2,2.52-1.89,1.7-2.85,3.93-2.85,6.63,0,1.82,.51,3.45,1.52,4.86,.97,1.36,2.53,2.68,4.76,4.04l3.33,2.02c2.35,1.46,3.55,2.96,3.55,4.43,0,.85-.32,1.52-1,2.09-.73,.61-1.64,.91-2.77,.91-2.81,0-5.66-1.24-7.84-4.01-.27-.34-.56-.61-.98-.46-.41,.14-.42,.56-.42,.99v5.57c0,.32,.15,.62,.41,.82,2.65,1.99,5.64,2.99,8.88,2.99,2.89,0,5.28-.87,7.11-2.58,1.85-1.73,2.79-3.99,2.79-6.73,0-3.82-2.05-6.98-6.1-9.4Z"/><path class="cls-1" d="M136.35,143.16h-4.41c-.56,0-1.02,.46-1.02,1.02v17.38c0,2.83-.27,4.14-.5,4.74-.32,.84-.83,1.55-1.56,2.17-1.44,1.2-3.36,1.8-5.7,1.8-1.66,0-3.1-.31-4.29-.91-1.18-.59-2.02-1.35-2.58-2.31-.39-.66-.85-2.15-.85-5.49v-17.38c0-.56-.46-1.02-1.02-1.02h-4.41c-.56,0-1.02,.46-1.02,1.02v17.34c0,2.59,.17,4.46,.53,5.72,.36,1.25,.82,2.32,1.37,3.19,.56,.88,1.24,1.68,2.05,2.39,2.59,2.23,6.04,3.36,10.27,3.36s7.58-1.14,10.18-3.38c.8-.69,1.49-1.49,2.05-2.37,.55-.88,1.02-1.97,1.39-3.26,.37-1.3,.55-3.13,.55-5.61v-17.38c0-.56-.46-1.02-1.02-1.02Z"/></g><g><path class="cls-1" d="M50.39,208.89c-.46-.63-1.09-1.59-1.87-2.87-1.3-2.12-2.28-3.56-3-4.41-.31-.36-.62-.67-.94-.97,.3-.1,.59-.21,.83-.35,.83-.49,1.52-1.12,2.04-1.89,.75-1.09,1.13-2.4,1.13-3.87,0-2.17-.77-3.93-2.3-5.22-1.49-1.25-3.5-1.89-5.98-1.89h-6.87c-.42,0-.76,.34-.76,.76v22.78c0,.42,.34,.76,.76,.76h3.26c.42,0,.76-.34,.76-.76v-9.15h.08c1.22,0,1.73,.17,1.91,.27,.39,.21,.84,.57,1.34,1.07,.52,.52,1.12,1.24,1.74,2.09l2.13,3.48,.65,.91c.08,.11,.13,.18,.17,.24l.99,1.5c.14,.21,.38,.34,.64,.34h3.88c.29,0,.81,.02,.94-.23,.13-.26,.03-.42-.14-.65l-1.39-1.97Zm-8.23-11.85c-.35,.16-1.17,.36-3.08,.36h-1.64v-5.66h1.38c1.88,0,2.77,.17,3.18,.32,.53,.18,.93,.49,1.22,.93,.3,.46,.45,.96,.45,1.53s-.13,1.1-.41,1.56c-.26,.44-.62,.76-1.1,.98Z"/><path class="cls-1" d="M21.54,198.99h-7.65c-.42,0-.76,.34-.76,.76v2.9c0,.42,.34,.76,.76,.76h3.63v3.43c-1.64,.52-3.07,.79-4.23,.79-2.51,0-4.49-.74-6.06-2.25-1.57-1.51-2.33-3.4-2.33-5.8s.76-4.15,2.34-5.71c1.57-1.56,3.46-2.32,5.76-2.32,2.53,0,5.12,.76,7.71,2.26,.23,.14,.5,.31,.8,.19,.22-.09,.34-.31,.34-.54v-3.63c0-.31-.18-.58-.47-.7-1.79-.75-3.3-1.28-4.49-1.56-1.21-.29-2.5-.44-3.83-.44-3.71,0-6.85,1.21-9.32,3.61-2.48,2.4-3.74,5.44-3.74,9.05s1.22,6.35,3.61,8.69c2.39,2.34,5.62,3.52,9.58,3.52,2.85,0,5.77-.64,8.66-1.89,.28-.12,.46-.39,.46-.7v-9.66c0-.42-.34-.76-.76-.76Z"/><path class="cls-1" d="M70.03,187.1c-3.71,0-6.83,1.2-9.27,3.56-2.45,2.37-3.69,5.39-3.69,9s1.23,6.49,3.66,8.83c2.42,2.33,5.49,3.52,9.11,3.52s6.96-1.18,9.46-3.51c2.51-2.34,3.79-5.34,3.79-8.9s-1.26-6.57-3.75-8.94c-2.48-2.36-5.61-3.55-9.32-3.55Zm.03,20.38c-2.35,0-4.24-.73-5.79-2.23-1.54-1.5-2.29-3.32-2.29-5.59s.75-4.21,2.29-5.7c1.55-1.5,3.48-2.23,5.9-2.23,2.29,0,4.17,.74,5.74,2.26,1.56,1.51,2.32,3.33,2.32,5.55s-.76,4.14-2.32,5.67c-1.57,1.53-3.48,2.28-5.83,2.28Z"/><path class="cls-1" d="M111.9,187.43h-3.28c-.42,0-.76,.34-.76,.76v12.94c0,2.11-.2,3.08-.37,3.53-.24,.62-.62,1.15-1.16,1.61-1.07,.89-2.5,1.34-4.24,1.34-1.23,0-2.31-.23-3.2-.68-.86-.44-1.51-1.01-1.92-1.72-.29-.49-.63-1.6-.63-4.09v-12.94c0-.42-.34-.76-.76-.76h-3.28c-.42,0-.76,.34-.76,.76v12.9c0,1.93,.13,3.32,.4,4.25,.26,.92,.61,1.73,1.02,2.37,.41,.65,.92,1.25,1.52,1.78,1.93,1.66,4.5,2.5,7.64,2.5s5.64-.85,7.57-2.52c.6-.52,1.11-1.11,1.53-1.76,.41-.65,.76-1.47,1.03-2.42,.28-.97,.41-2.33,.41-4.17v-12.94c0-.42-.34-.76-.76-.76Z"/><path class="cls-1" d="M136.2,189.35c-1.43-1.3-3.35-1.96-5.72-1.96h-7.23c-.42,0-.76,.34-.76,.76v22.82c0,.42,.34,.76,.76,.76h3.28c.42,0,.76-.34,.76-.76v-9.13h1.65c2.27,0,3.99-.24,5.24-.75,1.3-.52,2.33-1.37,3.08-2.52,.74-1.14,1.12-2.47,1.12-3.94,0-2.19-.74-3.97-2.19-5.29Zm-8.9,2.47h2.62c3.17,0,3.58,1.47,3.58,2.75,0,.94-.27,1.63-.82,2.11-.57,.5-1.43,.75-2.57,.75h-2.81v-5.61Z"/></g></g><g><path class="cls-1" d="M69.19,0C39.78,0,15.85,23.93,15.85,53.34c0,13.31,4.93,26.05,13.88,35.89,.05,.05,.09,.1,.13,.14,8.9,8.93,19.42,12.2,27.45,8.54,6.37-2.91,9.83-9.47,9.25-17.55,0-.13-.07-.26-.17-.35-.1-.09-.23-.13-.37-.12l-7.61,.55c-.28,.02-.49,.26-.47,.54,.32,4.39-1.22,7.7-4.21,9.06-3.64,1.65-10.19,.76-17.66-6.7-7.46-8.23-11.57-18.89-11.57-30,0-24.65,20.05-44.7,44.7-44.7s44.7,20.05,44.7,44.7c0,16.89-9.35,32.15-24.41,39.84-.24,.12-.34,.42-.23,.66l1.69,3.63,1.65,3.25c.09,.18,.27,.28,.45,.28,.08,0,.16-.02,.23-.05,18.04-9.15,29.25-27.39,29.25-47.61C122.53,23.93,98.61,0,69.19,0Z"/><path class="cls-1" d="M89.32,23.36c-2.93-4.29-7.69-7.2-13.38-8.21-4.43-.78-9.66-.17-12.88,.79-2.57,.76-4.54,1.71-5.75,2.37-.23,.13-.33,.42-.22,.66l3.2,6.86c.06,.13,.17,.23,.31,.27,.14,.04,.28,.03,.41-.05,.45-.27,2.11-1.2,4.49-1.91,2.25-.67,6.05-1.08,8.96-.57,3.41,.6,6.19,2.24,7.81,4.61,1.25,1.83,1.69,3.9,1.27,6-1.29,6.49-7.99,7.7-13.33,6.75-2.26-.4-8.18-1.61-9.39-2.26-.13-.07-.3-.08-.44-.02-.14,.06-.25,.18-.29,.33l-1.68,5.98c-.06,.23,.04,.47,.25,.58,2.26,1.2,7.67,3.38,10.06,3.81,1.6,.28,3.18,.42,4.72,.42,9.54,0,16.8-5.47,18.48-13.93,.87-4.34-.06-8.78-2.6-12.5Z"/><path class="cls-1" d="M71.68,41.55c-1.18-.43-4.47-1.44-7.38-2.33-1.63-.5-3.16-.97-4.16-1.29-.13-.04-.28-.03-.4,.04-.12,.07-.21,.18-.25,.31l-2.02,7.67c-.04,.14-.01,.29,.07,.41,.08,.12,.21,.2,.35,.22,1.52,.21,8.7,2.32,10.82,3.09,13.24,4.82,17.86,14.87,15.48,21.88-1.22,3.6-3.6,6.21-7.09,7.75-2.96,1.31-6.72,1.78-10.64,1.37,.06-.09,.09-.2,.08-.31-.93-12.98-6.04-23.57-13-26.99-3.83-1.88-7.95-1.57-11.62,.85-3.63,2.41-5.41,6.26-5.01,10.85,.7,8.07,8.2,17.19,17.43,21.21,4.78,2.09,9.92,3.19,14.84,3.19,4.11,0,8.06-.78,11.42-2.27,5.7-2.52,9.77-6.98,11.77-12.88,4.34-12.81-4.56-26.9-20.71-32.78Zm-14.01,36.76c-6.79-3.03-11.75-9.65-12.13-13.98-.15-1.76,.51-2.45,1.17-2.9,.65-.43,1.21-.63,1.76-.63,.4,0,.82,.11,1.27,.33,3.09,1.52,6.74,7.87,7.93,17.18Z"/><path class="cls-1" d="M127.6,125.45l-.28-.86-2.91-6.24c-.1-.21-.33-.33-.56-.28-3.89,.81-8.63-1.38-18.47-6.96-10.89-6.17-16.64-3.95-26.18-.26l-.19,.07c-.95,.37-1.95,.75-3.03,1.16l-1.17,.44c-.91,.35-2.44,.93-2.66,.95-.37-.07-2.14-1.19-3.31-1.93-2.07-1.3-4.9-3.08-9.23-5.5-12.82-7.15-22.05-2.3-32.74,3.32-4.52,2.38-9.65,5.08-15.78,7.29-.13,.05-.23,.14-.29,.26s-.06,.26-.02,.39l3.24,6.98c.11,.24,.39,.35,.63,.26,6.46-2.38,11.65-5.12,16.24-7.53,9.83-5.17,15.76-8.29,24.5-3.42,4.13,2.3,6.85,4.02,8.84,5.27,5.92,3.73,7.33,4.15,13.66,1.74l1.13-.43c1.11-.42,2.16-.82,3.14-1.2l.14-.05c9.04-3.49,11.47-4.43,18.8-.28,8.53,4.83,15.03,8.25,21.17,8.25,1.72,0,3.35-.26,4.99-.79,.27-.09,.41-.37,.33-.64Z"/></g></g></g></svg>