<?xml version="1.0" encoding="UTF-8"?><svg id="_イヤー_2" xmlns="http://www.w3.org/2000/svg" viewBox="0 0 107.35 167.24"><defs><style>.cls-1{fill:#fff;}</style></defs><g id="_イヤー_1-2"><g><g><path class="cls-1" d="M53.68,0C30.52,0,11.68,18.84,11.68,41.99c0,10.48,3.88,20.51,10.92,28.25,.04,.04,.07,.08,.11,.11,7.01,7.03,15.29,9.61,21.61,6.73,5.02-2.29,7.74-7.45,7.28-13.82,0-.11-.06-.2-.14-.27-.08-.07-.18-.1-.29-.1l-5.99,.43c-.22,.02-.38,.21-.37,.43,.25,3.46-.96,6.06-3.31,7.14-2.86,1.3-8.02,.6-13.9-5.28-5.87-6.48-9.11-14.87-9.11-23.62,0-19.4,15.79-35.19,35.19-35.19s35.19,15.79,35.19,35.19c0,13.3-7.36,25.31-19.21,31.36-.19,.1-.27,.33-.18,.52l1.33,2.86,1.3,2.56c.07,.14,.21,.22,.35,.22,.06,0,.12-.01,.18-.04,14.21-7.2,23.03-21.56,23.03-37.48C95.67,18.84,76.83,0,53.68,0Z"/><path class="cls-1" d="M69.53,18.39c-2.31-3.38-6.05-5.67-10.54-6.46-3.49-.62-7.61-.13-10.14,.62-2.02,.6-3.58,1.35-4.53,1.87-.18,.1-.26,.33-.17,.52l2.52,5.4c.05,.1,.14,.18,.24,.21,.11,.03,.22,.02,.32-.04,.36-.21,1.66-.94,3.53-1.5,1.77-.53,4.77-.85,7.05-.45,2.69,.47,4.87,1.76,6.15,3.63,.98,1.44,1.33,3.07,1,4.72-1.02,5.11-6.29,6.06-10.49,5.32-1.78-.31-6.44-1.27-7.39-1.78-.11-.06-.23-.06-.34-.01-.11,.05-.19,.14-.23,.26l-1.33,4.71c-.05,.18,.03,.37,.2,.46,1.78,.95,6.04,2.66,7.92,3,1.26,.22,2.51,.33,3.72,.33,7.51,0,13.22-4.3,14.55-10.97,.68-3.42-.05-6.91-2.05-9.84Z"/><path class="cls-1" d="M55.64,32.71c-.93-.34-3.52-1.13-5.81-1.83-1.29-.39-2.49-.76-3.27-1.01-.1-.03-.22-.02-.31,.03-.1,.05-.17,.14-.19,.25l-1.59,6.04c-.03,.11,0,.23,.05,.32,.06,.1,.16,.16,.28,.17,1.19,.16,6.85,1.82,8.52,2.43,10.42,3.79,14.06,11.71,12.19,17.23-.96,2.84-2.84,4.89-5.58,6.1-2.33,1.03-5.29,1.4-8.38,1.08,.05-.07,.07-.16,.06-.24-.74-10.22-4.75-18.56-10.24-21.25-3.01-1.48-6.26-1.24-9.14,.67-2.86,1.89-4.26,4.93-3.94,8.54,.55,6.35,6.45,13.53,13.72,16.7,3.77,1.64,7.81,2.51,11.69,2.51,3.24,0,6.34-.62,8.99-1.79,4.49-1.99,7.7-5.49,9.27-10.14,3.42-10.08-3.59-21.18-16.3-25.81Zm-11.03,28.94c-5.35-2.38-9.25-7.59-9.55-11.01-.12-1.39,.4-1.93,.92-2.28,.51-.34,.95-.5,1.38-.5,.32,0,.64,.09,1,.26,2.43,1.19,5.31,6.19,6.24,13.52Z"/><path class="cls-1" d="M99.66,98.76l-.22-.68-2.29-4.91c-.08-.17-.26-.26-.44-.22-3.07,.64-6.79-1.09-14.54-5.48-8.57-4.86-13.1-3.11-20.61-.21l-.15,.06c-.75,.29-1.54,.59-2.38,.91l-.92,.35c-.72,.27-1.92,.73-2.09,.75-.29-.06-1.68-.94-2.61-1.52-1.63-1.02-3.85-2.43-7.27-4.33-10.09-5.63-17.36-1.81-25.77,2.62-3.56,1.87-7.6,4-12.42,5.74-.1,.04-.18,.11-.23,.21s-.05,.21-.01,.3l2.55,5.5c.09,.19,.3,.28,.5,.21,5.08-1.88,9.18-4.03,12.79-5.93,7.74-4.07,12.41-6.53,19.29-2.69,3.25,1.81,5.39,3.16,6.96,4.15,4.66,2.93,5.77,3.27,10.75,1.37l.89-.34c.88-.33,1.7-.65,2.48-.95l.11-.04c7.12-2.75,9.03-3.49,14.8-.22,6.71,3.8,11.84,6.49,16.67,6.49,1.35,0,2.63-.2,3.93-.62,.21-.07,.32-.29,.26-.5Z"/></g><g><g><path class="cls-1" d="M14.8,133.71H5.06v-5.88H14.13c.44,0,.8-.36,.8-.8v-3.09c0-.44-.36-.8-.8-.8H5.06v-5.74H14.47c.44,0,.8-.36,.8-.8v-3.07c0-.44-.36-.8-.8-.8H.8c-.44,0-.8,.36-.8,.8v24.07c0,.44,.36,.8,.8,.8H14.8c.44,0,.8-.36,.8-.8v-3.07c0-.44-.36-.8-.8-.8Z"/><path class="cls-1" d="M37.07,124.63c1.6-1.17,2.41-2.8,2.41-4.86,0-1.38-.34-2.62-1-3.68-.66-1.06-1.64-1.91-2.89-2.51-1.24-.59-2.88-.88-5.01-.88h-6.32c-.44,0-.8,.36-.8,.8v24.11c0,.44,.36,.8,.8,.8h8.16c1.96,0,3.63-.34,4.96-1,1.35-.67,2.39-1.56,3.1-2.64,.72-1.1,1.08-2.35,1.08-3.74,0-1.76-.6-3.29-1.78-4.55-.74-.8-1.65-1.42-2.72-1.86Zm-8.55,3.07h2.42c1.61,0,2.78,.13,3.48,.4,.65,.24,1.13,.6,1.46,1.07,.34,.48,.5,.99,.5,1.56s-.16,1.07-.48,1.56c-.32,.49-.74,.84-1.27,1.08-.39,.17-1.32,.37-3.52,.37h-2.6v-6.04Zm4.88-5.53c-.62,.56-1.76,.84-3.39,.84h-1.49v-5.64h2.16c3.2,0,3.61,1.42,3.61,2.66,0,.89-.29,1.58-.9,2.13Z"/><rect class="cls-1" x="49.19" y="112.71" width="5.06" height="25.72" rx=".8" ry=".8"/><path class="cls-1" d="M72.98,123.97l-2.64-1.56c-1.1-.64-1.9-1.25-2.37-1.81-.41-.48-.61-.98-.61-1.51s.24-.98,.75-1.35c.58-.42,1.36-.63,2.31-.63,1.8,0,3.82,.64,5.41,2.18,.23,.22,.44,.38,.74,.26,.25-.1,.26-.41,.26-.74v-3.92c0-.27-.13-.52-.36-.67-1.81-1.22-3.82-1.83-5.99-1.83-2.3,0-4.21,.67-5.67,1.98-1.49,1.34-2.24,3.1-2.24,5.22,0,1.43,.4,2.72,1.19,3.82,.77,1.07,1.99,2.11,3.75,3.18l2.62,1.59c1.85,1.15,2.79,2.33,2.79,3.49,0,.67-.25,1.19-.79,1.64-.57,.48-1.29,.71-2.18,.71-2.21,0-4.45-.98-6.17-3.16-.21-.27-.44-.48-.77-.36-.32,.11-.33,.44-.33,.78v4.38c0,.25,.12,.49,.32,.64,2.09,1.56,4.44,2.36,6.99,2.36,2.27,0,4.15-.68,5.6-2.03,1.46-1.36,2.2-3.14,2.2-5.3,0-3-1.62-5.49-4.81-7.4Z"/><path class="cls-1" d="M106.55,112.71h-3.47c-.44,0-.8,.36-.8,.8v13.68c0,2.23-.22,3.26-.4,3.73-.25,.66-.66,1.22-1.23,1.7-1.13,.94-2.64,1.42-4.49,1.42-1.3,0-2.44-.24-3.38-.72-.93-.47-1.59-1.06-2.03-1.82-.3-.52-.67-1.69-.67-4.32v-13.68c0-.44-.36-.8-.8-.8h-3.47c-.44,0-.8,.36-.8,.8v13.65c0,2.04,.14,3.51,.42,4.5,.28,.98,.64,1.83,1.08,2.51,.44,.69,.98,1.32,1.61,1.88,2.04,1.75,4.76,2.64,8.08,2.64s5.96-.9,8.01-2.66c.63-.54,1.17-1.17,1.61-1.86,.44-.69,.8-1.55,1.09-2.56,.29-1.02,.44-2.47,.44-4.41v-13.68c0-.44-.36-.8-.8-.8Z"/></g><g><path class="cls-1" d="M106.13,162.15c-.31-.43-.74-1.08-1.27-1.95-.88-1.44-1.55-2.42-2.04-3-.21-.25-.42-.45-.64-.66,.2-.07,.4-.14,.56-.24,.57-.33,1.03-.76,1.39-1.28,.51-.74,.77-1.63,.77-2.63,0-1.48-.53-2.67-1.57-3.55-1.01-.85-2.38-1.28-4.07-1.28h-4.67c-.29,0-.52,.23-.52,.52v15.49c0,.29,.23,.52,.52,.52h2.22c.29,0,.52-.23,.52-.52v-6.22h.06c.83,0,1.17,.12,1.3,.19,.26,.14,.57,.39,.91,.73,.36,.35,.76,.84,1.18,1.42l1.45,2.37,.44,.62c.05,.07,.09,.12,.12,.17l.68,1.02c.1,.14,.26,.23,.43,.23h2.64c.2,0,.55,.02,.64-.16,.09-.18,.02-.28-.09-.44l-.95-1.34Zm-5.59-8.06c-.24,.11-.8,.24-2.09,.24h-1.11v-3.85h.94c1.28,0,1.88,.12,2.16,.22,.36,.12,.63,.33,.83,.63,.2,.31,.3,.65,.3,1.04s-.09,.75-.28,1.06c-.18,.3-.42,.51-.75,.66Z"/><path class="cls-1" d="M9.72,161.09H3.2v-13.04c0-.27-.22-.49-.49-.49H.49c-.27,0-.49,.22-.49,.49v15.55c0,.27,.22,.49,.49,.49H9.72c.27,0,.49-.22,.49-.49v-2.03c0-.27-.22-.49-.49-.49Z"/><rect class="cls-1" x="16.2" y="147.56" width="3.2" height="16.53" rx=".49" ry=".49"/><path class="cls-1" d="M41.76,161.16c1.27-1.54,1.91-3.35,1.91-5.38,0-2.41-.85-4.45-2.54-6.05-1.68-1.59-3.81-2.4-6.33-2.4s-4.67,.81-6.34,2.42c-1.67,1.61-2.52,3.67-2.52,6.12,0,2.01,.66,3.81,1.96,5.35,1.28,1.51,2.91,2.47,4.86,2.84,1.28,.88,2.33,1.51,3.11,1.88,.81,.38,1.61,.68,2.39,.9,.79,.22,1.56,.35,2.29,.39h.03c.13,0,.25-.05,.34-.14l2.24-2.17c.16-.16,.24-.36,.13-.52s-.31-.13-.87-.08c-.86,.08-2.75,.04-4.14-.67,1.37-.52,2.53-1.35,3.48-2.5Zm-6.95-10.73c1.64,0,2.96,.5,4.02,1.53,1.06,1.03,1.57,2.29,1.57,3.87s-.53,2.8-1.61,3.85c-1.09,1.05-2.39,1.57-3.99,1.57s-2.92-.5-3.99-1.53c-1.06-1.02-1.57-2.27-1.57-3.82s.51-2.87,1.57-3.92c1.06-1.04,2.36-1.55,3.99-1.55Z"/><path class="cls-1" d="M63.55,147.56h-2.24c-.27,0-.49,.22-.49,.49v8.83c0,1.44-.14,2.11-.26,2.42-.16,.42-.43,.8-.8,1.11-.74,.61-1.72,.92-2.92,.92-.85,0-1.59-.16-2.2-.47-.59-.3-1.04-.7-1.32-1.18-.2-.34-.44-1.1-.44-2.8v-8.83c0-.27-.22-.49-.49-.49h-2.24c-.27,0-.49,.22-.49,.49v8.81c0,1.31,.09,2.26,.27,2.89,.18,.63,.41,1.17,.69,1.61,.28,.44,.63,.85,1.04,1.21,1.31,1.13,3.06,1.7,5.19,1.7s3.83-.57,5.15-1.71c.41-.35,.75-.75,1.04-1.19,.28-.44,.52-1,.7-1.65,.19-.66,.28-1.59,.28-2.84v-8.83c0-.27-.22-.49-.49-.49Z"/><path class="cls-1" d="M78.82,147.34c-2.52,0-4.64,.81-6.3,2.42-1.66,1.61-2.51,3.67-2.51,6.12s.84,4.41,2.49,6c1.65,1.59,3.73,2.39,6.2,2.39s4.74-.8,6.43-2.38c1.71-1.59,2.57-3.63,2.57-6.05s-.86-4.47-2.55-6.08c-1.68-1.6-3.82-2.42-6.34-2.42Zm.02,13.9c-1.61,0-2.91-.5-3.98-1.53-1.06-1.03-1.58-2.28-1.58-3.84s.51-2.89,1.57-3.91c1.06-1.03,2.38-1.53,4.05-1.53,1.57,0,2.86,.51,3.94,1.55,1.07,1.04,1.59,2.28,1.59,3.81s-.52,2.84-1.59,3.89c-1.08,1.05-2.38,1.56-4,1.56Z"/></g></g></g></g></svg>