<?xml version="1.0" encoding="UTF-8"?><svg id="_イヤー_2" xmlns="http://www.w3.org/2000/svg" viewBox="0 0 63.38 97.1"><defs><style>.cls-1{fill:#e6442b;}.cls-2{fill:#ab8700;}.cls-3{fill:#231815;}.cls-4{fill:#549826;}</style></defs><g id="_イヤー_1-2"><g><g><g><path class="cls-3" d="M9.07,77.79H3.41v-3.42h5.27c.26,0,.47-.21,.47-.47v-1.8c0-.26-.21-.47-.47-.47H3.41v-3.34h5.48c.26,0,.47-.21,.47-.47v-1.79c0-.26-.21-.47-.47-.47H.93c-.26,0-.47,.21-.47,.47v14c0,.26,.21,.47,.47,.47H9.07c.26,0,.47-.21,.47-.47v-1.79c0-.26-.21-.47-.47-.47Z"/><path class="cls-3" d="M22.03,72.51c.93-.68,1.4-1.63,1.4-2.83,0-.8-.2-1.52-.58-2.14-.39-.62-.95-1.11-1.68-1.46-.72-.35-1.67-.51-2.91-.51h-3.67c-.26,0-.47,.21-.47,.47v14.02c0,.26,.21,.47,.47,.47h4.75c1.14,0,2.11-.2,2.88-.58,.78-.39,1.39-.91,1.8-1.54,.42-.64,.63-1.37,.63-2.17,0-1.02-.35-1.91-1.03-2.65-.43-.46-.96-.82-1.58-1.08Zm-4.97,1.79h1.41c.94,0,1.62,.08,2.02,.23,.38,.14,.65,.35,.85,.63,.2,.28,.29,.57,.29,.9s-.09,.62-.28,.91c-.19,.29-.43,.49-.74,.63-.23,.1-.77,.22-2.05,.22h-1.51v-3.51Zm2.84-3.21c-.36,.33-1.02,.49-1.97,.49h-.87v-3.28h1.26c1.86,0,2.1,.83,2.1,1.55,0,.52-.17,.92-.52,1.24Z"/><rect class="cls-3" x="29.08" y="65.57" width="2.94" height="14.96" rx=".47" ry=".47"/><path class="cls-3" d="M42.92,72.12l-1.54-.91c-.64-.37-1.1-.73-1.38-1.05-.24-.28-.35-.57-.35-.88s.14-.57,.44-.79c.34-.24,.79-.37,1.34-.37,1.05,0,2.22,.37,3.15,1.27,.14,.13,.26,.22,.43,.15,.15-.06,.15-.24,.15-.43v-2.28c0-.16-.08-.3-.21-.39-1.05-.71-2.22-1.07-3.48-1.07-1.34,0-2.45,.39-3.3,1.15-.87,.78-1.3,1.8-1.3,3.04,0,.83,.23,1.58,.69,2.23,.45,.62,1.16,1.23,2.18,1.85l1.52,.93c1.08,.67,1.62,1.35,1.62,2.03,0,.39-.15,.69-.46,.96-.33,.28-.75,.42-1.27,.42-1.29,0-2.59-.57-3.59-1.84-.12-.16-.26-.28-.45-.21-.19,.07-.19,.25-.19,.45v2.55c0,.15,.07,.29,.19,.37,1.21,.91,2.58,1.37,4.07,1.37,1.32,0,2.42-.4,3.26-1.18,.85-.79,1.28-1.83,1.28-3.08,0-1.75-.94-3.2-2.8-4.3Z"/><path class="cls-3" d="M62.45,65.57h-2.02c-.26,0-.47,.21-.47,.47v7.96c0,1.3-.13,1.9-.23,2.17-.15,.38-.38,.71-.71,.99-.66,.55-1.54,.83-2.61,.83-.76,0-1.42-.14-1.97-.42-.54-.27-.93-.62-1.18-1.06-.18-.3-.39-.98-.39-2.51v-7.96c0-.26-.21-.47-.47-.47h-2.02c-.26,0-.47,.21-.47,.47v7.94c0,1.18,.08,2.04,.24,2.62,.16,.57,.37,1.06,.63,1.46,.25,.4,.57,.77,.94,1.09,1.19,1.02,2.77,1.54,4.7,1.54s3.47-.52,4.66-1.55c.37-.32,.68-.68,.94-1.08,.25-.4,.47-.9,.64-1.49,.17-.6,.25-1.44,.25-2.57v-7.96c0-.26-.21-.47-.47-.47Z"/></g><g><path class="cls-3" d="M23.08,95.67c-.21-.29-.5-.73-.86-1.31-.6-.97-1.05-1.63-1.38-2.02-.14-.17-.29-.31-.43-.44,.14-.05,.27-.1,.38-.16,.38-.23,.69-.51,.93-.86,.34-.5,.52-1.1,.52-1.77,0-.99-.35-1.8-1.05-2.39-.68-.57-1.6-.87-2.74-.87h-3.15c-.19,0-.35,.16-.35,.35v10.43c0,.19,.16,.35,.35,.35h1.49c.19,0,.35-.16,.35-.35v-4.19h.04c.56,0,.79,.08,.88,.13,.18,.1,.38,.26,.62,.49,.24,.24,.51,.57,.79,.96l.97,1.6,.3,.42s.06,.08,.08,.11l.46,.69c.06,.1,.17,.16,.29,.16h1.78c.13,0,.37,.01,.43-.11,.06-.12,.02-.19-.06-.3l-.64-.9Zm-3.77-5.43c-.16,.07-.54,.16-1.41,.16h-.75v-2.59h.63c.86,0,1.27,.08,1.46,.15,.24,.08,.43,.22,.56,.43,.14,.21,.2,.44,.2,.7s-.06,.5-.19,.71c-.12,.2-.28,.35-.5,.45Z"/><path class="cls-3" d="M9.87,91.14h-3.5c-.19,0-.35,.16-.35,.35v1.33c0,.19,.16,.35,.35,.35h1.66v1.57c-.75,.24-1.4,.36-1.94,.36-1.15,0-2.06-.34-2.78-1.03-.72-.69-1.07-1.56-1.07-2.66s.35-1.9,1.07-2.61c.72-.72,1.58-1.06,2.64-1.06,1.16,0,2.34,.35,3.53,1.04,.11,.06,.23,.14,.37,.09,.1-.04,.16-.14,.16-.25v-1.66c0-.14-.08-.27-.21-.32-.82-.34-1.51-.59-2.06-.72-.55-.13-1.14-.2-1.76-.2-1.7,0-3.14,.56-4.27,1.65-1.14,1.1-1.71,2.49-1.71,4.14s.56,2.91,1.66,3.98c1.1,1.07,2.57,1.61,4.39,1.61,1.31,0,2.64-.29,3.96-.87,.13-.06,.21-.18,.21-.32v-4.42c0-.19-.16-.35-.35-.35Z"/><path class="cls-3" d="M32.07,85.7c-1.7,0-3.13,.55-4.24,1.63-1.12,1.08-1.69,2.47-1.69,4.12s.56,2.97,1.68,4.04c1.11,1.07,2.51,1.61,4.17,1.61s3.19-.54,4.33-1.61c1.15-1.07,1.74-2.44,1.74-4.08s-.58-3.01-1.72-4.09c-1.13-1.08-2.57-1.63-4.27-1.63Zm.02,9.33c-1.08,0-1.94-.33-2.65-1.02-.71-.69-1.05-1.52-1.05-2.56s.34-1.93,1.05-2.61c.71-.69,1.59-1.02,2.7-1.02,1.05,0,1.91,.34,2.63,1.03,.71,.69,1.06,1.52,1.06,2.54s-.35,1.9-1.06,2.6c-.72,.7-1.59,1.04-2.67,1.04Z"/><path class="cls-3" d="M51.25,85.84h-1.5c-.19,0-.35,.16-.35,.35v5.93c0,.97-.09,1.41-.17,1.62-.11,.29-.28,.53-.53,.74-.49,.41-1.15,.61-1.94,.61-.56,0-1.06-.1-1.46-.31-.4-.2-.69-.46-.88-.79-.13-.23-.29-.73-.29-1.87v-5.93c0-.19-.16-.35-.35-.35h-1.5c-.19,0-.35,.16-.35,.35v5.91c0,.88,.06,1.52,.18,1.95,.12,.42,.28,.79,.47,1.09,.19,.3,.42,.57,.7,.81,.88,.76,2.06,1.15,3.5,1.15s2.58-.39,3.47-1.15c.27-.24,.51-.51,.7-.81,.19-.3,.35-.67,.47-1.11,.13-.44,.19-1.07,.19-1.91v-5.93c0-.19-.16-.35-.35-.35Z"/><path class="cls-3" d="M62.38,86.73c-.66-.59-1.54-.9-2.62-.9h-3.31c-.19,0-.35,.16-.35,.35v10.45c0,.19,.16,.35,.35,.35h1.5c.19,0,.35-.16,.35-.35v-4.18h.76c1.04,0,1.83-.11,2.4-.34,.59-.24,1.07-.63,1.41-1.15,.34-.52,.51-1.13,.51-1.8,0-1-.34-1.82-1-2.42Zm-4.08,1.13h1.2c1.45,0,1.64,.67,1.64,1.26,0,.43-.12,.75-.37,.97-.26,.23-.66,.34-1.18,.34h-1.29v-2.57Z"/></g></g><g><path class="cls-1" d="M31.69,0C18.22,0,7.26,10.96,7.26,24.43c0,6.09,2.26,11.93,6.36,16.44,.02,.02,.04,.05,.06,.06,4.08,4.09,8.89,5.59,12.57,3.91,2.92-1.33,4.5-4.34,4.23-8.04,0-.06-.03-.12-.08-.16-.05-.04-.1-.06-.17-.06l-3.49,.25c-.13,0-.22,.12-.21,.25,.15,2.01-.56,3.53-1.93,4.15-1.67,.76-4.67,.35-8.09-3.07-3.42-3.77-5.3-8.65-5.3-13.74C11.22,13.14,20.4,3.96,31.69,3.96s20.47,9.18,20.47,20.47c0,7.73-4.28,14.73-11.18,18.25-.11,.06-.16,.19-.1,.3l.78,1.66,.76,1.49c.04,.08,.12,.13,.21,.13,.04,0,.07,0,.1-.03,8.26-4.19,13.4-12.54,13.4-21.8C56.12,10.96,45.16,0,31.69,0Z"/><path class="cls-4" d="M40.91,10.7c-1.34-1.96-3.52-3.3-6.13-3.76-2.03-.36-4.43-.08-5.9,.36-1.18,.35-2.08,.78-2.63,1.09-.11,.06-.15,.19-.1,.3l1.46,3.14c.03,.06,.08,.1,.14,.12,.06,.02,.13,.01,.19-.02,.21-.12,.97-.55,2.06-.87,1.03-.31,2.77-.49,4.1-.26,1.56,.28,2.83,1.03,3.58,2.11,.57,.84,.77,1.79,.58,2.75-.59,2.97-3.66,3.52-6.1,3.09-1.04-.18-3.75-.74-4.3-1.03-.06-.03-.14-.04-.2,0-.06,.03-.11,.08-.13,.15l-.77,2.74c-.03,.1,.02,.22,.11,.27,1.04,.55,3.51,1.55,4.61,1.74,.73,.13,1.46,.19,2.16,.19,4.37,0,7.69-2.5,8.46-6.38,.4-1.99-.03-4.02-1.19-5.72Z"/><path class="cls-2" d="M32.83,19.03c-.54-.2-2.05-.66-3.38-1.07-.75-.23-1.45-.44-1.91-.59-.06-.02-.13-.01-.18,.02-.06,.03-.1,.08-.11,.14l-.93,3.51c-.02,.06,0,.13,.03,.19,.04,.06,.1,.09,.16,.1,.7,.09,3.99,1.06,4.96,1.41,6.06,2.21,8.18,6.81,7.09,10.02-.56,1.65-1.65,2.85-3.25,3.55-1.36,.6-3.08,.81-4.87,.63,.03-.04,.04-.09,.04-.14-.43-5.94-2.77-10.8-5.96-12.36-1.75-.86-3.64-.72-5.32,.39-1.66,1.1-2.48,2.87-2.29,4.97,.32,3.7,3.75,7.87,7.98,9.72,2.19,.96,4.54,1.46,6.8,1.46,1.88,0,3.69-.36,5.23-1.04,2.61-1.16,4.48-3.2,5.39-5.9,1.99-5.87-2.09-12.32-9.48-15.01Zm-6.42,16.84c-3.11-1.39-5.38-4.42-5.55-6.4-.07-.81,.23-1.12,.54-1.33,.3-.2,.55-.29,.81-.29,.18,0,.37,.05,.58,.15,1.41,.69,3.09,3.6,3.63,7.87Z"/><path class="cls-1" d="M58.44,57.46l-.13-.39-1.33-2.86c-.04-.1-.15-.15-.26-.13-1.78,.37-3.95-.63-8.46-3.19-4.99-2.82-7.62-1.81-11.99-.12l-.09,.03c-.44,.17-.9,.35-1.39,.53l-.54,.2c-.42,.16-1.12,.43-1.22,.44-.17-.03-.98-.55-1.52-.88-.95-.6-2.24-1.41-4.23-2.52-5.87-3.27-10.1-1.05-15,1.52-2.07,1.09-4.42,2.32-7.23,3.34-.06,.02-.11,.06-.13,.12s-.03,.12,0,.18l1.48,3.2c.05,.11,.18,.16,.29,.12,2.96-1.09,5.34-2.34,7.44-3.45,4.5-2.37,7.22-3.8,11.22-1.57,1.89,1.05,3.14,1.84,4.05,2.41,2.71,1.71,3.36,1.9,6.26,.8l.52-.2c.51-.19,.99-.38,1.44-.55l.06-.02c4.14-1.6,5.26-2.03,8.61-.13,3.9,2.21,6.89,3.78,9.7,3.78,.79,0,1.53-.12,2.28-.36,.12-.04,.19-.17,.15-.29Z"/></g></g></g></svg>