<?xml version="1.0" encoding="UTF-8"?><svg id="_イヤー_2" xmlns="http://www.w3.org/2000/svg" viewBox="0 0 154.02 62"><defs><style>.cls-1{fill:#345b91;}</style></defs><g id="_イヤー_1-2"><g><g><g><g><path class="cls-1" d="M79.99,20.38h-7.74v-4.67h7.2c.35,0,.64-.29,.64-.64v-2.45c0-.35-.29-.64-.64-.64h-7.2V7.41h7.48c.35,0,.64-.29,.64-.64v-2.44c0-.35-.29-.64-.64-.64h-10.86c-.35,0-.64,.29-.64,.64V23.46c0,.35,.29,.64,.64,.64h11.12c.35,0,.64-.29,.64-.64v-2.44c0-.35-.29-.64-.64-.64Z"/><path class="cls-1" d="M97.69,13.17c1.27-.93,1.92-2.22,1.92-3.86,0-1.1-.27-2.08-.8-2.92-.53-.85-1.3-1.52-2.3-1.99-.98-.47-2.29-.7-3.98-.7h-5.02c-.35,0-.64,.29-.64,.64V23.49c0,.35,.29,.64,.64,.64h6.49c1.56,0,2.88-.27,3.94-.79,1.07-.53,1.9-1.24,2.46-2.1,.57-.87,.86-1.87,.86-2.97,0-1.4-.48-2.61-1.41-3.62-.59-.63-1.31-1.13-2.16-1.47Zm-6.79,2.44h1.93c1.28,0,2.21,.11,2.76,.32,.51,.19,.89,.47,1.16,.85,.27,.38,.4,.78,.4,1.24s-.12,.85-.38,1.24c-.26,.39-.59,.67-1.01,.86-.31,.14-1.05,.3-2.8,.3h-2.06v-4.8Zm3.88-4.39c-.49,.45-1.4,.67-2.69,.67h-1.18V7.41h1.72c2.54,0,2.87,1.13,2.87,2.12,0,.7-.23,1.26-.72,1.69Z"/><rect class="cls-1" x="107.32" y="3.7" width="4.02" height="20.44" rx=".64" ry=".64"/><path class="cls-1" d="M126.22,12.65l-2.1-1.24c-.87-.51-1.51-1-1.88-1.44-.33-.38-.48-.78-.48-1.2s.19-.78,.6-1.07c.46-.33,1.08-.5,1.83-.5,1.43,0,3.03,.51,4.3,1.73,.18,.18,.35,.31,.59,.21,.2-.08,.21-.33,.21-.59v-3.11c0-.21-.11-.41-.28-.53-1.44-.97-3.04-1.46-4.76-1.46-1.83,0-3.34,.53-4.51,1.58-1.18,1.06-1.78,2.46-1.78,4.15,0,1.14,.32,2.16,.95,3.04,.61,.85,1.58,1.68,2.98,2.53l2.08,1.26c1.47,.92,2.22,1.85,2.22,2.77,0,.53-.2,.95-.63,1.31-.46,.38-1.02,.57-1.74,.57-1.76,0-3.54-.78-4.91-2.51-.17-.21-.35-.38-.61-.29-.26,.09-.27,.35-.27,.62v3.48c0,.2,.09,.39,.26,.51,1.66,1.24,3.53,1.87,5.55,1.87,1.81,0,3.3-.54,4.45-1.61,1.16-1.08,1.75-2.5,1.75-4.21,0-2.39-1.28-4.37-3.82-5.88Z"/><path class="cls-1" d="M152.9,3.7h-2.76c-.35,0-.64,.29-.64,.64V15.21c0,1.77-.17,2.59-.31,2.97-.2,.52-.52,.97-.98,1.35-.9,.75-2.1,1.13-3.57,1.13-1.04,0-1.94-.19-2.69-.57-.74-.37-1.26-.85-1.62-1.45-.24-.41-.53-1.34-.53-3.43V4.33c0-.35-.29-.64-.64-.64h-2.76c-.35,0-.64,.29-.64,.64V15.18c0,1.62,.11,2.79,.33,3.58,.22,.78,.51,1.45,.86,2,.35,.55,.78,1.05,1.28,1.49,1.62,1.39,3.78,2.1,6.42,2.1s4.74-.71,6.37-2.11c.5-.43,.93-.93,1.28-1.48,.35-.55,.64-1.23,.87-2.04,.23-.81,.35-1.96,.35-3.51V4.33c0-.35-.29-.64-.64-.64Z"/></g><g><path class="cls-1" d="M152.56,42.99c-.25-.34-.59-.86-1.01-1.55-.7-1.14-1.23-1.92-1.62-2.38-.17-.2-.34-.36-.51-.52,.16-.05,.32-.11,.45-.19,.45-.27,.82-.61,1.1-1.02,.4-.59,.61-1.29,.61-2.09,0-1.17-.42-2.12-1.24-2.82-.8-.68-1.89-1.02-3.23-1.02h-3.71c-.23,0-.41,.18-.41,.41v12.31c0,.23,.18,.41,.41,.41h1.76c.23,0,.41-.18,.41-.41v-4.94h.05c.66,0,.93,.09,1.03,.15,.21,.11,.45,.31,.73,.58,.28,.28,.61,.67,.94,1.13l1.15,1.88,.35,.49c.04,.06,.07,.1,.09,.13l.54,.81c.08,.11,.21,.18,.34,.18h2.1c.16,0,.44,.01,.51-.13,.07-.14,.02-.22-.07-.35l-.75-1.06Zm-4.44-6.4c-.19,.09-.63,.19-1.66,.19h-.89v-3.06h.74c1.01,0,1.49,.09,1.72,.17,.29,.1,.5,.26,.66,.5,.16,.25,.24,.52,.24,.83s-.07,.59-.22,.84c-.14,.24-.34,.41-.59,.53Z"/><path class="cls-1" d="M75.95,42.14h-5.18v-10.36c0-.21-.17-.39-.39-.39h-1.77c-.21,0-.39,.17-.39,.39v12.36c0,.21,.17,.39,.39,.39h7.33c.21,0,.39-.17,.39-.39v-1.61c0-.21-.17-.39-.39-.39Z"/><rect class="cls-1" x="81.1" y="31.4" width="2.54" height="13.13" rx=".39" ry=".39"/><path class="cls-1" d="M101.41,42.2c1.01-1.22,1.52-2.66,1.52-4.27,0-1.92-.68-3.53-2.02-4.81-1.33-1.27-3.02-1.91-5.03-1.91s-3.71,.65-5.03,1.92c-1.33,1.28-2,2.92-2,4.86,0,1.6,.52,3.03,1.55,4.25,1.01,1.2,2.31,1.96,3.86,2.26,1.02,.7,1.85,1.2,2.47,1.5,.64,.3,1.28,.54,1.9,.72,.63,.17,1.24,.28,1.82,.31h.02c.1,0,.2-.04,.27-.11l1.78-1.73c.13-.13,.19-.28,.1-.41s-.24-.1-.69-.06c-.69,.06-2.18,.04-3.29-.53,1.09-.41,2.01-1.08,2.76-1.99Zm-5.52-8.53c1.3,0,2.35,.4,3.2,1.22,.84,.82,1.25,1.82,1.25,3.07s-.42,2.22-1.28,3.06c-.86,.84-1.9,1.24-3.17,1.24s-2.32-.4-3.17-1.21c-.84-.81-1.25-1.81-1.25-3.03s.41-2.28,1.25-3.11c.84-.83,1.88-1.23,3.17-1.23Z"/><path class="cls-1" d="M118.72,31.4h-1.78c-.21,0-.39,.17-.39,.39v7.02c0,1.15-.11,1.68-.2,1.92-.13,.34-.35,.64-.64,.88-.59,.49-1.37,.73-2.32,.73-.67,0-1.26-.12-1.75-.37-.47-.24-.83-.56-1.05-.94-.16-.27-.35-.88-.35-2.23v-7.02c0-.21-.17-.39-.39-.39h-1.78c-.21,0-.39,.17-.39,.39v7c0,1.04,.07,1.8,.21,2.3,.14,.5,.33,.93,.55,1.28,.22,.35,.5,.67,.82,.96,1.04,.9,2.43,1.35,4.13,1.35s3.05-.46,4.09-1.36c.32-.28,.6-.6,.82-.95,.22-.35,.41-.79,.56-1.31,.15-.52,.22-1.26,.22-2.26v-7.02c0-.21-.17-.39-.39-.39Z"/><path class="cls-1" d="M130.86,31.22c-2.01,0-3.69,.65-5.01,1.92-1.32,1.28-1.99,2.92-1.99,4.86s.67,3.5,1.98,4.77c1.31,1.26,2.97,1.9,4.92,1.9s3.76-.64,5.11-1.9c1.36-1.27,2.05-2.88,2.05-4.81s-.68-3.55-2.03-4.83c-1.34-1.27-3.03-1.92-5.04-1.92Zm.02,11.05c-1.28,0-2.31-.4-3.16-1.22-.84-.82-1.25-1.81-1.25-3.05s.41-2.29,1.25-3.11c.84-.82,1.9-1.22,3.22-1.22,1.25,0,2.27,.4,3.13,1.23,.85,.82,1.27,1.81,1.27,3.03s-.41,2.26-1.27,3.09c-.85,.84-1.89,1.24-3.18,1.24Z"/></g></g><g><path class="cls-1" d="M72.37,51.92c-1.32,0-2.44,.43-3.31,1.27-.87,.84-1.32,1.93-1.32,3.21s.44,2.31,1.31,3.15c.86,.83,1.96,1.25,3.25,1.25s2.48-.42,3.38-1.25c.9-.84,1.35-1.9,1.35-3.18s-.45-2.34-1.34-3.19c-.88-.84-2-1.27-3.32-1.27Zm.01,7.27c-.84,0-1.51-.26-2.07-.8-.55-.53-.82-1.18-.82-1.99s.27-1.5,.82-2.03c.55-.54,1.24-.8,2.1-.8,.82,0,1.49,.26,2.05,.8,.56,.54,.83,1.19,.83,1.98s-.27,1.48-.83,2.02c-.56,.55-1.24,.81-2.08,.81Z"/><path class="cls-1" d="M86.7,52.04h-1.11c-.15,0-.27,.12-.27,.27v5.58l-5-5.76c-.05-.06-.13-.09-.21-.09h-.94c-.15,0-.27,.12-.27,.27v8.13c0,.15,.12,.27,.27,.27h1.09c.15,0,.27-.12,.27-.27v-5.53l4.95,5.71c.05,.06,.13,.09,.21,.09h1c.15,0,.27-.12,.27-.27v-8.13c0-.15-.12-.27-.27-.27Z"/><path class="cls-1" d="M94.46,59.11h-3.39v-6.8c0-.15-.12-.27-.27-.27h-1.16c-.15,0-.27,.12-.27,.27v8.13c0,.15,.12,.27,.27,.27h4.82c.15,0,.27-.12,.27-.27v-1.06c0-.15-.12-.27-.27-.27Z"/><rect class="cls-1" x="96.41" y="52.04" width="1.71" height="8.67" rx=".27" ry=".27"/><path class="cls-1" d="M108.4,52.04h-1.11c-.15,0-.27,.12-.27,.27v5.58l-5-5.76c-.05-.06-.13-.09-.21-.09h-.94c-.15,0-.27,.12-.27,.27v8.13c0,.15,.12,.27,.27,.27h1.09c.15,0,.27-.12,.27-.27v-5.53l4.95,5.71c.05,.06,.13,.09,.21,.09h1c.15,0,.27-.12,.27-.27v-8.13c0-.15-.12-.27-.27-.27Z"/><path class="cls-1" d="M116.05,59.12h-3.28v-1.98h3.05c.15,0,.27-.12,.27-.27v-1.04c0-.15-.12-.27-.27-.27h-3.05v-1.93h3.17c.15,0,.27-.12,.27-.27v-1.04c0-.15-.12-.27-.27-.27h-4.61c-.15,0-.27,.12-.27,.27v8.12c0,.15,.12,.27,.27,.27h4.72c.15,0,.27-.12,.27-.27v-1.04c0-.15-.12-.27-.27-.27Z"/><path class="cls-1" d="M124.46,55.84l-.89-.53c-.37-.22-.64-.42-.8-.61-.14-.16-.21-.33-.21-.51s.08-.33,.25-.45c.2-.14,.46-.21,.78-.21,.61,0,1.16,.25,1.7,.77,.08,.08,.2,.1,.3,.05,.1-.04,.17-.14,.17-.25v-1.32c0-.09-.04-.18-.12-.23-.61-.41-1.29-.62-2.02-.62-.78,0-1.42,.23-1.91,.67-.5,.45-.76,1.04-.76,1.76,0,.48,.14,.92,.4,1.29,.26,.36,.67,.71,1.26,1.07l.88,.54c.62,.39,.94,.78,.94,1.18,0,.23-.08,.4-.27,.55-.19,.16-.44,.24-.74,.24-.74,0-1.39-.36-1.97-1.09-.07-.09-.19-.13-.3-.09-.11,.04-.18,.14-.18,.26v1.48c0,.09,.04,.17,.11,.22,.7,.53,1.5,.79,2.36,.79,.77,0,1.4-.23,1.89-.68,.49-.46,.74-1.06,.74-1.79,0-1.01-.54-1.85-1.62-2.5Z"/><path class="cls-1" d="M135.18,52.04h-1.16c-.15,0-.27,.12-.27,.27v3.24h-4.02v-3.24c0-.15-.12-.27-.27-.27h-1.16c-.15,0-.27,.12-.27,.27v8.13c0,.15,.12,.27,.27,.27h1.16c.15,0,.27-.12,.27-.27v-3.26h4.02v3.26c0,.15,.12,.27,.27,.27h1.16c.15,0,.27-.12,.27-.27v-8.13c0-.15-.12-.27-.27-.27Z"/><path class="cls-1" d="M141.91,51.92c-1.32,0-2.44,.43-3.31,1.27-.87,.84-1.32,1.93-1.32,3.21s.44,2.31,1.31,3.15c.86,.83,1.96,1.25,3.25,1.25s2.48-.42,3.38-1.25c.9-.84,1.35-1.9,1.35-3.18s-.45-2.34-1.34-3.19c-.88-.84-2-1.27-3.32-1.27Zm.01,7.27c-.84,0-1.51-.26-2.07-.8-.55-.53-.82-1.18-.82-1.99s.27-1.5,.82-2.03c.55-.54,1.24-.8,2.1-.8,.82,0,1.49,.26,2.05,.8,.56,.54,.83,1.19,.83,1.98s-.27,1.48-.83,2.02c-.56,.55-1.24,.81-2.08,.81Z"/><path class="cls-1" d="M153.24,52.73c-.51-.46-1.2-.7-2.04-.7h-2.58c-.15,0-.27,.12-.27,.27v8.14c0,.15,.12,.27,.27,.27h1.17c.15,0,.27-.12,.27-.27v-3.25h.59c.81,0,1.42-.09,1.87-.27,.46-.19,.83-.49,1.1-.9,.26-.41,.4-.88,.4-1.41,0-.78-.26-1.42-.78-1.89Zm-3.17,.88h.93c1.13,0,1.27,.52,1.27,.98,0,.34-.09,.58-.29,.75-.2,.18-.51,.27-.91,.27h-1v-2Z"/></g></g><g><path class="cls-1" d="M28.55,0C14.18,0,2.49,11.69,2.49,26.06c0,6.5,2.41,12.73,6.78,17.54,.02,.02,.04,.05,.07,.07,4.35,4.36,9.49,5.96,13.41,4.17,3.11-1.42,4.8-4.63,4.52-8.58,0-.07-.04-.13-.08-.17-.05-.04-.11-.06-.18-.06l-3.72,.27c-.14,0-.24,.13-.23,.26,.15,2.15-.59,3.76-2.06,4.43-1.78,.81-4.98,.37-8.63-3.27-3.64-4.02-5.65-9.23-5.65-14.66C6.71,14.02,16.51,4.22,28.55,4.22s21.84,9.8,21.84,21.84c0,8.25-4.57,15.71-11.93,19.47-.12,.06-.17,.2-.11,.32l.83,1.77,.81,1.59c.04,.09,.13,.14,.22,.14,.04,0,.08,0,.11-.03,8.82-4.47,14.29-13.38,14.29-23.26C54.62,11.69,42.92,0,28.55,0Z"/><path class="cls-1" d="M38.39,11.41c-1.43-2.1-3.76-3.52-6.54-4.01-2.16-.38-4.72-.08-6.29,.39-1.25,.37-2.22,.84-2.81,1.16-.11,.06-.16,.2-.11,.32l1.56,3.35c.03,.06,.08,.11,.15,.13,.07,.02,.14,.01,.2-.02,.22-.13,1.03-.59,2.19-.93,1.1-.33,2.96-.53,4.38-.28,1.67,.29,3.02,1.09,3.82,2.25,.61,.89,.82,1.91,.62,2.93-.63,3.17-3.9,3.76-6.51,3.3-1.11-.2-4-.79-4.59-1.1-.07-.04-.15-.04-.21,0-.07,.03-.12,.09-.14,.16l-.82,2.92c-.03,.11,.02,.23,.12,.29,1.1,.59,3.75,1.65,4.92,1.86,.78,.14,1.56,.21,2.31,.21,4.66,0,8.21-2.67,9.03-6.81,.42-2.12-.03-4.29-1.27-6.11Z"/><path class="cls-1" d="M29.77,20.3c-.58-.21-2.18-.7-3.6-1.14-.8-.24-1.55-.47-2.03-.63-.06-.02-.13-.01-.19,.02-.06,.03-.1,.09-.12,.15l-.99,3.75c-.02,.07,0,.14,.03,.2,.04,.06,.1,.1,.17,.11,.74,.1,4.25,1.13,5.29,1.51,6.47,2.35,8.72,7.27,7.56,10.69-.6,1.76-1.76,3.04-3.46,3.79-1.45,.64-3.28,.87-5.2,.67,.03-.04,.04-.1,.04-.15-.46-6.34-2.95-11.52-6.35-13.19-1.87-.92-3.89-.77-5.68,.42-1.77,1.18-2.64,3.06-2.45,5.3,.34,3.94,4,8.4,8.51,10.37,2.34,1.02,4.85,1.56,7.25,1.56,2.01,0,3.94-.38,5.58-1.11,2.79-1.23,4.78-3.41,5.75-6.29,2.12-6.26-2.23-13.15-10.12-16.02Zm-6.85,17.96c-3.32-1.48-5.74-4.71-5.93-6.83-.08-.86,.25-1.2,.57-1.42,.32-.21,.59-.31,.86-.31,.2,0,.4,.05,.62,.16,1.51,.74,3.29,3.84,3.87,8.39Z"/><path class="cls-1" d="M57.09,61.3l-.14-.42-1.42-3.05c-.05-.1-.16-.16-.27-.14-1.9,.4-4.22-.68-9.02-3.4-5.32-3.01-8.13-1.93-12.79-.13l-.09,.04c-.46,.18-.96,.37-1.48,.57l-.57,.22c-.45,.17-1.19,.46-1.3,.47-.18-.04-1.04-.58-1.62-.94-1.01-.64-2.39-1.51-4.51-2.69-6.26-3.49-10.77-1.12-16,1.62-2.21,1.16-4.72,2.48-7.71,3.56-.06,.02-.11,.07-.14,.13s-.03,.13,0,.19l1.58,3.41c.05,.12,.19,.17,.31,.13,3.16-1.17,5.69-2.5,7.94-3.68,4.8-2.53,7.7-4.05,11.97-1.67,2.02,1.13,3.35,1.96,4.32,2.57,2.89,1.82,3.58,2.03,6.67,.85l.55-.21c.54-.2,1.05-.4,1.54-.59l.07-.03c4.42-1.71,5.61-2.16,9.19-.14,4.17,2.36,7.35,4.03,10.34,4.03,.84,0,1.64-.13,2.44-.39,.13-.04,.2-.18,.16-.31Z"/></g></g></g></svg>