<?xml version="1.0" encoding="UTF-8"?><svg id="_イヤー_2" xmlns="http://www.w3.org/2000/svg" viewBox="0 0 95.92 146.77"><defs><style>.cls-1{fill:#910017;}</style></defs><g id="_イヤー_1-2"><g><g><g><path class="cls-1" d="M13.22,119.46H4.52v-5.25H12.62c.4,0,.72-.32,.72-.72v-2.76c0-.4-.32-.72-.72-.72H4.52v-5.13H12.93c.4,0,.72-.32,.72-.72v-2.74c0-.4-.32-.72-.72-.72H.72c-.4,0-.72,.32-.72,.72v21.51c0,.4,.32,.72,.72,.72H13.22c.4,0,.72-.32,.72-.72v-2.74c0-.4-.32-.72-.72-.72Z"/><path class="cls-1" d="M33.12,111.36c1.43-1.05,2.16-2.5,2.16-4.34,0-1.23-.3-2.34-.9-3.29-.59-.95-1.46-1.7-2.58-2.24-1.11-.53-2.57-.79-4.47-.79h-5.64c-.4,0-.72,.32-.72,.72v21.54c0,.4,.32,.72,.72,.72h7.29c1.75,0,3.24-.3,4.43-.89,1.2-.6,2.14-1.39,2.77-2.36,.64-.98,.97-2.1,.97-3.34,0-1.57-.53-2.94-1.59-4.07-.66-.71-1.48-1.27-2.43-1.66Zm-7.64,2.74h2.16c1.44,0,2.48,.12,3.11,.35,.58,.22,1.01,.53,1.31,.96,.3,.43,.45,.88,.45,1.39s-.14,.95-.43,1.39c-.29,.44-.66,.75-1.14,.96-.35,.15-1.18,.33-3.14,.33h-2.32v-5.39Zm4.36-4.94c-.55,.5-1.57,.75-3.02,.75h-1.33v-5.04h1.93c2.86,0,3.23,1.27,3.23,2.38,0,.79-.26,1.41-.8,1.9Z"/><rect class="cls-1" x="43.95" y="100.7" width="4.52" height="22.98" rx=".72" ry=".72"/><path class="cls-1" d="M65.21,110.77l-2.36-1.4c-.98-.57-1.69-1.12-2.12-1.62-.37-.43-.54-.87-.54-1.35s.21-.88,.67-1.21c.52-.37,1.21-.56,2.06-.56,1.61,0,3.41,.57,4.84,1.94,.21,.2,.39,.34,.66,.23,.23-.09,.23-.37,.23-.66v-3.5c0-.24-.12-.46-.32-.6-1.61-1.09-3.41-1.64-5.35-1.64-2.05,0-3.76,.6-5.07,1.77-1.33,1.2-2,2.77-2,4.67,0,1.28,.36,2.43,1.07,3.42,.68,.96,1.78,1.89,3.35,2.85l2.34,1.42c1.65,1.03,2.49,2.08,2.49,3.12,0,.6-.22,1.07-.71,1.47-.51,.43-1.15,.64-1.95,.64-1.97,0-3.98-.87-5.52-2.82-.19-.24-.4-.43-.69-.32-.29,.1-.3,.39-.3,.7v3.92c0,.23,.11,.44,.29,.58,1.87,1.4,3.97,2.1,6.24,2.1,2.03,0,3.71-.61,5-1.81,1.3-1.22,1.96-2.81,1.96-4.74,0-2.68-1.44-4.91-4.29-6.61Z"/><path class="cls-1" d="M95.2,100.7h-3.1c-.4,0-.72,.32-.72,.72v12.23c0,1.99-.19,2.91-.35,3.34-.23,.59-.59,1.09-1.1,1.52-1.01,.84-2.36,1.27-4.01,1.27-1.17,0-2.18-.21-3.02-.64-.83-.42-1.42-.95-1.82-1.63-.27-.46-.6-1.51-.6-3.86v-12.23c0-.4-.32-.72-.72-.72h-3.1c-.4,0-.72,.32-.72,.72v12.2c0,1.82,.12,3.14,.37,4.02,.25,.88,.57,1.63,.96,2.25,.39,.62,.87,1.18,1.44,1.68,1.82,1.57,4.25,2.36,7.22,2.36s5.33-.8,7.16-2.38c.56-.49,1.05-1.05,1.44-1.66,.39-.62,.72-1.39,.98-2.29,.26-.92,.39-2.21,.39-3.94v-12.23c0-.4-.32-.72-.72-.72Z"/></g><g><path class="cls-1" d="M9.81,132.74c-1.16-.6-2.73-.9-4.69-.9H.44c-.24,0-.44,.2-.44,.44v13.88c0,.24,.2,.44,.44,.44H4.83c1.27,0,2.11-.04,2.57-.11,.47-.07,.98-.22,1.53-.44,.95-.36,1.79-.9,2.51-1.6,.7-.68,1.25-1.48,1.63-2.38,.38-.9,.57-1.85,.57-2.84,0-1.37-.35-2.66-1.04-3.82-.69-1.17-1.63-2.06-2.8-2.67Zm-6.95,1.74h2.05c.93,0,1.6,.04,2.01,.1,.39,.07,.81,.2,1.26,.41,.44,.2,.83,.47,1.17,.79,.92,.86,1.37,1.95,1.37,3.33s-.44,2.55-1.34,3.46c-.28,.28-.59,.51-.92,.7-.33,.19-.76,.35-1.27,.47-.51,.13-1.26,.19-2.21,.19H2.86v-9.46Z"/><rect class="cls-1" x="20.24" y="131.84" width="2.86" height="14.77" rx=".44" ry=".44"/><path class="cls-1" d="M43.98,131.84h-1.89c-.24,0-.44,.2-.44,.44v9.63l-8.61-9.91c-.08-.1-.2-.15-.33-.15h-1.61c-.24,0-.44,.2-.44,.44v13.9c0,.24,.2,.44,.44,.44h1.87c.24,0,.44-.2,.44-.44v-9.53l8.53,9.82c.08,.1,.2,.15,.33,.15h1.71c.24,0,.44-.2,.44-.44v-13.9c0-.24-.2-.44-.44-.44Z"/><rect class="cls-1" x="51.83" y="131.84" width="2.86" height="14.77" rx=".44" ry=".44"/><path class="cls-1" d="M75.57,131.84h-1.89c-.24,0-.44,.2-.44,.44v9.63l-8.61-9.91c-.08-.1-.2-.15-.33-.15h-1.61c-.24,0-.44,.2-.44,.44v13.9c0,.24,.2,.44,.44,.44h1.87c.24,0,.44-.2,.44-.44v-9.53l8.53,9.82c.08,.1,.2,.15,.33,.15h1.71c.24,0,.44-.2,.44-.44v-13.9c0-.24-.2-.44-.44-.44Z"/><path class="cls-1" d="M95.48,138.9h-4.67c-.24,0-.44,.2-.44,.44v1.77c0,.24,.2,.44,.44,.44h2.24v2.14c-1.01,.32-1.89,.49-2.61,.49-1.53,0-2.75-.45-3.72-1.38-.96-.92-1.43-2.09-1.43-3.55s.47-2.54,1.43-3.5c.97-.96,2.12-1.43,3.53-1.43,1.55,0,3.13,.47,4.71,1.38,.13,.08,.3,.08,.44,0,.14-.08,.22-.22,.22-.38v-2.03c0-.18-.11-.33-.27-.4-1.09-.46-2.01-.78-2.73-.95-.73-.18-1.52-.27-2.33-.27-2.25,0-4.16,.74-5.67,2.19-1.51,1.46-2.27,3.31-2.27,5.5s.74,3.86,2.2,5.28c1.45,1.42,3.41,2.14,5.82,2.14,1.74,0,3.51-.39,5.27-1.15,.16-.07,.26-.23,.26-.4v-5.89c0-.24-.2-.44-.44-.44Z"/></g></g><g><path class="cls-1" d="M47.96,0C27.27,0,10.44,16.83,10.44,37.52c0,9.36,3.47,18.32,9.76,25.24,.03,.04,.06,.07,.09,.1,6.26,6.28,13.66,8.58,19.31,6.01,4.48-2.04,6.91-6.66,6.5-12.35,0-.09-.05-.18-.12-.24-.07-.06-.16-.09-.26-.09l-5.35,.39c-.2,.01-.34,.18-.33,.38,.22,3.09-.86,5.42-2.96,6.38-2.56,1.16-7.17,.53-12.42-4.71-5.25-5.79-8.14-13.28-8.14-21.11,0-17.34,14.1-31.44,31.44-31.44s31.44,14.1,31.44,31.44c0,11.88-6.58,22.62-17.17,28.02-.17,.09-.24,.29-.16,.47l1.19,2.55,1.16,2.29c.06,.12,.19,.2,.32,.2,.05,0,.11-.01,.16-.04,12.69-6.43,20.58-19.26,20.58-33.49C85.48,16.83,68.65,0,47.96,0Z"/><path class="cls-1" d="M62.12,16.43c-2.06-3.02-5.41-5.07-9.41-5.77-3.12-.55-6.8-.12-9.06,.56-1.81,.54-3.2,1.2-4.05,1.67-.16,.09-.23,.29-.15,.46l2.25,4.82c.04,.09,.12,.16,.22,.19,.1,.03,.2,.02,.29-.03,.32-.19,1.48-.84,3.16-1.34,1.58-.47,4.26-.76,6.3-.4,2.4,.42,4.35,1.58,5.49,3.25,.88,1.28,1.19,2.74,.89,4.22-.91,4.57-5.62,5.41-9.37,4.75-1.59-.28-5.75-1.14-6.6-1.59-.09-.05-.21-.05-.31-.01-.1,.04-.17,.13-.2,.23l-1.18,4.21c-.05,.16,.03,.33,.18,.41,1.59,.84,5.39,2.38,7.08,2.68,1.12,.2,2.24,.3,3.32,.3,6.71,0,11.81-3.85,13-9.8,.61-3.06-.04-6.18-1.83-8.79Z"/><path class="cls-1" d="M49.71,29.22c-.83-.3-3.14-1.01-5.19-1.64-1.15-.35-2.22-.68-2.93-.91-.09-.03-.19-.02-.28,.03-.09,.05-.15,.13-.17,.22l-1.42,5.39c-.03,.1,0,.2,.05,.29,.06,.08,.15,.14,.25,.15,1.07,.14,6.12,1.63,7.61,2.17,9.31,3.39,12.56,10.46,10.89,15.39-.86,2.54-2.54,4.37-4.98,5.45-2.08,.92-4.73,1.25-7.49,.96,.04-.06,.06-.14,.06-.22-.66-9.13-4.25-16.58-9.15-18.99-2.69-1.32-5.59-1.11-8.17,.6-2.55,1.69-3.8,4.4-3.52,7.63,.5,5.68,5.76,12.09,12.26,14.92,3.36,1.47,6.98,2.24,10.44,2.24,2.89,0,5.67-.55,8.03-1.6,4.01-1.77,6.88-4.91,8.28-9.06,3.05-9.01-3.21-18.92-14.57-23.06Zm-9.86,25.85c-4.78-2.13-8.26-6.79-8.53-9.83-.11-1.24,.36-1.73,.83-2.04,.46-.3,.85-.44,1.24-.44,.28,0,.57,.08,.89,.23,2.17,1.07,4.74,5.53,5.58,12.08Z"/><path class="cls-1" d="M89.04,88.24l-.2-.6-2.05-4.39c-.07-.15-.23-.23-.39-.2-2.74,.57-6.07-.97-12.99-4.89-7.66-4.34-11.71-2.78-18.41-.19l-.13,.05c-.67,.26-1.38,.53-2.13,.81l-.82,.31c-.64,.25-1.72,.66-1.87,.67-.26-.05-1.5-.84-2.33-1.36-1.45-.92-3.44-2.17-6.49-3.87-9.02-5.03-15.51-1.62-23.03,2.34-3.18,1.67-6.79,3.57-11.1,5.12-.09,.03-.16,.1-.2,.18s-.04,.18-.01,.27l2.28,4.91c.08,.17,.27,.25,.45,.18,4.54-1.68,8.2-3.6,11.42-5.3,6.91-3.64,11.09-5.83,17.23-2.41,2.9,1.62,4.82,2.83,6.22,3.71,4.16,2.62,5.16,2.92,9.61,1.22l.8-.3c.78-.29,1.52-.58,2.21-.85l.1-.04c6.36-2.46,8.07-3.12,13.23-.2,6,3.4,10.57,5.8,14.89,5.8,1.21,0,2.35-.18,3.51-.56,.19-.06,.29-.26,.23-.45Z"/></g></g></g></svg>