<?xml version="1.0" encoding="UTF-8"?><svg id="_イヤー_2" xmlns="http://www.w3.org/2000/svg" viewBox="0 0 114.97 146.61"><defs><style>.cls-1{fill:#825a17;}</style></defs><g id="_イヤー_1-2"><g><g><path class="cls-1" d="M57.48,0C36.85,0,20.06,16.79,20.06,37.42c0,9.33,3.46,18.28,9.73,25.17,.03,.03,.06,.07,.09,.1,6.25,6.26,13.62,8.56,19.25,5.99,4.47-2.04,6.89-6.64,6.49-12.31,0-.09-.05-.18-.12-.24-.07-.06-.16-.09-.26-.09l-5.34,.39c-.2,.01-.34,.18-.33,.38,.22,3.08-.85,5.4-2.95,6.36-2.55,1.16-7.15,.53-12.39-4.7-5.23-5.77-8.11-13.25-8.11-21.05,0-17.29,14.07-31.36,31.36-31.36s31.36,14.07,31.36,31.36c0,11.85-6.56,22.55-17.12,27.94-.17,.09-.24,.29-.16,.47l1.19,2.55,1.16,2.28c.06,.12,.19,.19,.32,.19,.05,0,.11-.01,.16-.04,12.66-6.42,20.52-19.21,20.52-33.4C94.9,16.79,78.12,0,57.48,0Z"/><path class="cls-1" d="M71.6,16.39c-2.06-3.01-5.39-5.05-9.39-5.76-3.11-.55-6.78-.12-9.04,.56-1.8,.54-3.19,1.2-4.03,1.66-.16,.09-.23,.29-.15,.46l2.24,4.81c.04,.09,.12,.16,.22,.19,.1,.03,.2,.02,.29-.03,.32-.19,1.48-.84,3.15-1.34,1.58-.47,4.25-.76,6.28-.4,2.39,.42,4.34,1.57,5.48,3.24,.88,1.28,1.18,2.74,.89,4.21-.91,4.55-5.6,5.4-9.35,4.74-1.59-.28-5.74-1.13-6.58-1.58-.09-.05-.21-.05-.31-.01-.1,.04-.17,.13-.2,.23l-1.18,4.2c-.05,.16,.03,.33,.18,.41,1.59,.84,5.38,2.37,7.06,2.67,1.12,.2,2.23,.3,3.31,.3,6.69,0,11.78-3.84,12.96-9.77,.61-3.05-.04-6.16-1.82-8.77Z"/><path class="cls-1" d="M59.23,29.14c-.83-.3-3.14-1.01-5.17-1.63-1.15-.35-2.22-.68-2.92-.9-.09-.03-.19-.02-.28,.03-.09,.05-.15,.13-.17,.22l-1.42,5.38c-.03,.1,0,.2,.05,.29,.06,.08,.15,.14,.25,.15,1.06,.14,6.11,1.63,7.59,2.17,9.29,3.38,12.53,10.43,10.86,15.35-.86,2.53-2.53,4.36-4.97,5.44-2.08,.92-4.72,1.25-7.47,.96,.04-.06,.06-.14,.06-.22-.66-9.1-4.24-16.54-9.12-18.94-2.68-1.32-5.58-1.1-8.15,.6-2.55,1.69-3.79,4.39-3.51,7.61,.49,5.66,5.75,12.06,12.22,14.88,3.36,1.46,6.96,2.24,10.41,2.24,2.88,0,5.65-.55,8.01-1.59,4-1.77,6.86-4.89,8.26-9.04,3.05-8.99-3.2-18.87-14.53-22.99Zm-9.83,25.78c-4.77-2.12-8.24-6.77-8.51-9.81-.11-1.24,.36-1.72,.82-2.03,.45-.3,.85-.44,1.23-.44,.28,0,.57,.08,.89,.23,2.17,1.06,4.73,5.52,5.56,12.05Z"/><path class="cls-1" d="M98.46,88l-.2-.6-2.04-4.38c-.07-.15-.23-.23-.39-.2-2.73,.57-6.05-.97-12.95-4.88-7.64-4.33-11.67-2.77-18.36-.19l-.13,.05c-.67,.26-1.37,.53-2.12,.81l-.82,.31c-.64,.24-1.71,.65-1.87,.67-.26-.05-1.5-.83-2.32-1.35-1.45-.91-3.44-2.16-6.48-3.86-8.99-5.02-15.47-1.61-22.97,2.33-3.17,1.67-6.77,3.56-11.07,5.11-.09,.03-.16,.1-.2,.18s-.04,.18-.01,.27l2.27,4.9c.08,.17,.27,.25,.44,.18,4.53-1.67,8.18-3.59,11.39-5.28,6.9-3.63,11.06-5.82,17.19-2.4,2.9,1.62,4.81,2.82,6.2,3.7,4.15,2.61,5.14,2.91,9.58,1.22l.79-.3c.78-.29,1.51-.58,2.21-.84l.1-.04c6.34-2.45,8.05-3.11,13.19-.19,5.98,3.39,10.55,5.78,14.85,5.78,1.2,0,2.35-.18,3.5-.56,.19-.06,.29-.26,.23-.45Z"/></g><g><path class="cls-1" d="M77.72,139.82c-.24-.03-.46,.05-.75,.24-2.34,1.53-4.78,2.28-7.23,2.28-2.32,0-4.16-.68-5.63-2.08-1.46-1.39-2.17-3.11-2.17-5.28s.72-3.89,2.21-5.31c1.49-1.43,3.34-2.13,5.62-2.13s4.61,.69,7,2.05c.22,.13,.46,.23,.7,.19,.27-.04,.38-.22,.38-.48v-3.64c0-.29-.17-.55-.44-.66-7.01-3-12.58-2.21-16.54,1.57-2.37,2.26-3.57,5.09-3.57,8.4,0,2.08,.52,4.05,1.55,5.85,1.03,1.79,2.46,3.22,4.23,4.24,1.77,1.02,3.95,1.54,6.46,1.54,3.06,0,5.8-.65,8.15-1.93,.23-.13,.38-.37,.38-.63v-3.82c0-.22-.18-.38-.36-.41Z"/><path class="cls-1" d="M34.92,123.76c-.12-.26-.37-.43-.66-.43h-2.15c-.29,0-.55,.17-.66,.44l-9.29,21.76c-.09,.22-.1,.43,.04,.61,.13,.17,.47,.17,.71,.17h3.15c.29,0,.55-.17,.66-.44l1.91-4.53h9.4l2,4.45,.06,.14c.11,.27,.37,.44,.66,.44h3.15c.24,0,.58,0,.71-.17,.14-.18,.14-.39,.04-.61l-9.74-21.83Zm-4.47,13.42l2.74-6.6,2.94,6.6h-5.68Z"/><path class="cls-1" d="M97.4,100.5c-.07-.15-.22-.25-.39-.25h-1.28c-.17,0-.33,.1-.39,.26l-5.54,12.98c-.06,.13-.06,.26,.03,.36,.08,.1,.28,.1,.43,.1h1.88c.17,0,.33-.1,.4-.26l1.14-2.7h5.61l1.19,2.65,.03,.08c.07,.16,.22,.26,.4,.26h1.88c.14,0,.35,0,.43-.1,.08-.11,.08-.23,.03-.36l-5.81-13.02Zm-2.67,8l1.63-3.93,1.76,3.93h-3.39Z"/><g><path class="cls-1" d="M15.22,124.85c-1.8-.93-4.24-1.39-7.26-1.39H.72c-.4,0-.72,.32-.72,.72v21.45c0,.4,.32,.72,.72,.72H7.51c1.96,0,3.27-.06,3.99-.17,.72-.11,1.52-.34,2.37-.67,1.47-.56,2.78-1.39,3.89-2.48,1.09-1.06,1.94-2.3,2.53-3.69,.59-1.4,.89-2.88,.89-4.4,0-2.13-.54-4.12-1.61-5.93-1.07-1.81-2.53-3.2-4.35-4.14Zm-10.71,2.78h3.13c1.43,0,2.47,.05,3.09,.16,.6,.1,1.25,.31,1.93,.63,.67,.31,1.27,.72,1.79,1.21,1.42,1.33,2.11,3,2.11,5.12s-.68,3.91-2.07,5.32c-.42,.42-.9,.79-1.41,1.08-.51,.29-1.17,.53-1.95,.73-.79,.2-1.94,.29-3.41,.29h-3.22v-14.54Z"/><rect class="cls-1" x="48.09" y="123.46" width="4.51" height="22.91" rx=".72" ry=".72"/><path class="cls-1" d="M102.2,123.46h-3.08c-.4,0-.72,.32-.72,.72v8.57h-10.64v-8.57c0-.4-.32-.72-.72-.72h-3.08c-.4,0-.72,.32-.72,.72v21.48c0,.4,.32,.72,.72,.72h3.08c.4,0,.72-.32,.72-.72v-8.63h10.64v8.63c0,.4,.32,.72,.72,.72h3.08c.4,0,.72-.32,.72-.72v-21.48c0-.4-.32-.72-.72-.72Z"/><rect class="cls-1" x="109.08" y="123.46" width="4.51" height="22.91" rx=".72" ry=".72"/></g><g><path class="cls-1" d="M74.87,100.34h-1.72c-.12,0-.24,.06-.31,.15l-3.93,4.89-3.96-4.89c-.08-.09-.19-.15-.31-.15h-1.74c-.22,0-.4,.18-.4,.4v12.86c0,.22,.18,.4,.4,.4h1.84c.22,0,.4-.18,.4-.4v-8.86l3.28,4.08c.08,.1,.19,.15,.31,.15h.34c.12,0,.24-.06,.32-.15l3.23-4.07v8.85c0,.22,.18,.4,.4,.4h1.85c.22,0,.4-.18,.4-.4v-12.86c0-.22-.18-.4-.4-.4Z"/><path class="cls-1" d="M87.37,111.54h-5.22v-3.19h4.86c.22,0,.4-.18,.4-.4v-1.65c0-.22-.18-.4-.4-.4h-4.86v-3.11h5.05c.22,0,.4-.18,.4-.4v-1.64c0-.22-.18-.4-.4-.4h-7.29c-.22,0-.4,.18-.4,.4v12.84c0,.22,.18,.4,.4,.4h7.46c.22,0,.4-.18,.4-.4v-1.64c0-.22-.18-.4-.4-.4Z"/><path class="cls-1" d="M114.56,100.32h-10.74c-.22,0-.4,.18-.4,.4v1.64c0,.22,.18,.4,.4,.4h4.01v10.83c0,.22,.18,.4,.4,.4h1.85c.22,0,.4-.18,.4-.4v-10.83h4.08c.22,0,.4-.18,.4-.4v-1.64c0-.22-.18-.4-.4-.4Z"/></g><g><path class="cls-1" d="M7.86,111.5H2.69v-3.12H7.51c.24,0,.43-.19,.43-.43v-1.64c0-.24-.19-.43-.43-.43H2.69v-3.05H7.69c.24,0,.43-.19,.43-.43v-1.63c0-.24-.19-.43-.43-.43H.43c-.24,0-.43,.19-.43,.43v12.79c0,.24,.19,.43,.43,.43H7.86c.24,0,.43-.19,.43-.43v-1.63c0-.24-.19-.43-.43-.43Z"/><path class="cls-1" d="M18.94,106.68c.85-.62,1.28-1.49,1.28-2.58,0-.73-.18-1.39-.53-1.96-.35-.57-.87-1.01-1.53-1.33-.66-.32-1.53-.47-2.66-.47h-3.36c-.24,0-.43,.19-.43,.43v12.81c0,.24,.19,.43,.43,.43h4.34c1.04,0,1.93-.18,2.63-.53,.72-.36,1.27-.83,1.65-1.4,.38-.58,.57-1.25,.57-1.99,0-.93-.32-1.75-.94-2.42-.4-.42-.88-.75-1.45-.99Zm-4.54,1.63h1.29c.86,0,1.48,.07,1.85,.21,.34,.13,.6,.32,.78,.57,.18,.25,.27,.52,.27,.83s-.08,.57-.26,.83c-.17,.26-.39,.45-.68,.57-.21,.09-.7,.2-1.87,.2h-1.38v-3.21Zm2.59-2.94c-.33,.3-.93,.45-1.8,.45h-.79v-3h1.15c1.7,0,1.92,.76,1.92,1.42,0,.47-.16,.84-.48,1.13Z"/><rect class="cls-1" x="24.6" y="100.34" width="2.69" height="13.66" rx=".43" ry=".43"/><path class="cls-1" d="M36.44,106.33l-1.4-.83c-.58-.34-1.01-.67-1.26-.96-.22-.26-.32-.52-.32-.8s.13-.52,.4-.72c.31-.22,.72-.34,1.23-.34,.96,0,2.03,.34,2.88,1.16,.12,.12,.23,.2,.39,.14,.13-.05,.14-.22,.14-.39v-2.08c0-.14-.07-.28-.19-.35-.96-.65-2.03-.97-3.18-.97-1.22,0-2.24,.35-3.01,1.05-.79,.71-1.19,1.65-1.19,2.78,0,.76,.21,1.44,.63,2.03,.41,.57,1.06,1.12,1.99,1.69l1.39,.85c.98,.61,1.48,1.24,1.48,1.85,0,.36-.13,.63-.42,.87-.31,.26-.68,.38-1.16,.38-1.17,0-2.37-.52-3.28-1.68-.11-.14-.24-.25-.41-.19-.17,.06-.18,.23-.18,.41v2.33c0,.13,.06,.26,.17,.34,1.11,.83,2.36,1.25,3.71,1.25,1.21,0,2.21-.36,2.97-1.08,.77-.72,1.17-1.67,1.17-2.82,0-1.6-.86-2.92-2.55-3.93Z"/><path class="cls-1" d="M53.63,100.34h-1.84c-.24,0-.43,.19-.43,.43v7.27c0,1.18-.11,1.73-.21,1.98-.13,.35-.35,.65-.65,.91-.6,.5-1.41,.75-2.39,.75-.69,0-1.3-.13-1.8-.38-.49-.25-.85-.57-1.08-.97-.16-.28-.35-.9-.35-2.3v-7.27c0-.24-.19-.43-.43-.43h-1.84c-.24,0-.43,.19-.43,.43v7.25c0,1.08,.07,1.86,.22,2.39,.15,.52,.34,.97,.57,1.34,.23,.37,.52,.7,.86,1,1.08,.93,2.53,1.41,4.29,1.41s3.17-.48,4.26-1.41c.34-.29,.62-.62,.86-.99,.23-.37,.43-.82,.58-1.36,.16-.54,.23-1.31,.23-2.35v-7.27c0-.24-.19-.43-.43-.43Z"/></g></g></g></g></svg>