<?xml version="1.0" encoding="UTF-8"?><svg id="_イヤー_2" xmlns="http://www.w3.org/2000/svg" viewBox="0 0 60.63 32.74"><defs><style>.cls-1{fill:#fff;}.cls-2{fill:#231815;}</style></defs><g id="_イヤー_1-2"><g><g><g><path class="cls-1" d="M3.95,8.84c-.76,0-1.44-.18-2.04-.54-.6-.36-1.07-.87-1.4-1.54-.34-.66-.51-1.44-.51-2.33s.17-1.68,.51-2.34c.34-.66,.81-1.18,1.4-1.54,.6-.37,1.28-.55,2.04-.55,.71,0,1.34,.16,1.9,.47,.56,.31,1.02,.75,1.36,1.31l-1.24,.72c-.22-.36-.51-.64-.85-.84-.34-.2-.73-.3-1.17-.3-.5,0-.94,.13-1.31,.38-.38,.25-.67,.61-.87,1.07-.2,.46-.31,1-.31,1.62s.1,1.15,.31,1.61c.21,.46,.5,.82,.87,1.07,.38,.25,.81,.38,1.31,.38,.44,0,.83-.1,1.17-.3,.34-.2,.62-.48,.85-.84l1.24,.72c-.35,.55-.8,.99-1.36,1.3-.56,.31-1.2,.47-1.9,.47Z"/><path class="cls-1" d="M13.01,8.84c-.76,0-1.44-.18-2.04-.54-.6-.36-1.07-.87-1.4-1.54-.34-.66-.51-1.44-.51-2.33s.17-1.68,.51-2.34c.34-.66,.81-1.18,1.4-1.54,.6-.37,1.28-.55,2.04-.55s1.44,.18,2.03,.55c.59,.37,1.06,.88,1.4,1.54s.51,1.44,.51,2.34-.17,1.67-.51,2.33-.81,1.17-1.4,1.54c-.59,.36-1.27,.54-2.03,.54Zm0-1.35c.51,0,.94-.13,1.31-.38s.66-.61,.86-1.07c.21-.46,.31-1,.31-1.61s-.1-1.16-.31-1.62c-.21-.46-.49-.82-.86-1.07-.37-.25-.81-.38-1.31-.38s-.94,.13-1.31,.38c-.38,.25-.67,.61-.87,1.07-.2,.46-.31,1-.31,1.62s.1,1.15,.31,1.61c.21,.46,.5,.82,.87,1.07,.38,.25,.81,.38,1.31,.38Z"/><path class="cls-1" d="M19.2,8.65V.22h1.39l3.98,5.99V.22h1.41V8.65h-1.34l-4.05-6.16v6.16h-1.39Z"/><path class="cls-1" d="M30.66,8.65V1.51h-2.54V.22h6.48V1.51h-2.53v7.14h-1.41Z"/><path class="cls-1" d="M36.01,8.65L39.22,.22h1.23l3.22,8.43h-1.58l-.65-1.86h-3.24l-.65,1.86h-1.54Zm2.65-3.14h2.34l-1.16-3.29-1.18,3.29Z"/><path class="cls-1" d="M49.14,8.84c-.76,0-1.44-.18-2.04-.54-.6-.36-1.07-.87-1.4-1.54-.34-.66-.51-1.44-.51-2.33s.17-1.68,.51-2.34c.34-.66,.81-1.18,1.4-1.54,.6-.37,1.28-.55,2.04-.55,.71,0,1.34,.16,1.9,.47,.56,.31,1.02,.75,1.36,1.31l-1.24,.72c-.22-.36-.51-.64-.85-.84-.34-.2-.73-.3-1.17-.3-.5,0-.94,.13-1.31,.38-.38,.25-.67,.61-.87,1.07-.2,.46-.31,1-.31,1.62s.1,1.15,.31,1.61c.21,.46,.5,.82,.87,1.07,.38,.25,.81,.38,1.31,.38,.44,0,.83-.1,1.17-.3,.34-.2,.62-.48,.85-.84l1.24,.72c-.35,.55-.8,.99-1.36,1.3-.56,.31-1.2,.47-1.9,.47Z"/><path class="cls-1" d="M56.69,8.65V1.51h-2.54V.22h6.48V1.51h-2.53v7.14h-1.41Z"/></g><g><path class="cls-2" d="M3.95,8.84c-.76,0-1.44-.18-2.04-.54-.6-.36-1.07-.87-1.4-1.54-.34-.66-.51-1.44-.51-2.33s.17-1.68,.51-2.34c.34-.66,.81-1.18,1.4-1.54,.6-.37,1.28-.55,2.04-.55,.71,0,1.34,.16,1.9,.47,.56,.31,1.02,.75,1.36,1.31l-1.24,.72c-.22-.36-.51-.64-.85-.84-.34-.2-.73-.3-1.17-.3-.5,0-.94,.13-1.31,.38-.38,.25-.67,.61-.87,1.07-.2,.46-.31,1-.31,1.62s.1,1.15,.31,1.61c.21,.46,.5,.82,.87,1.07,.38,.25,.81,.38,1.31,.38,.44,0,.83-.1,1.17-.3,.34-.2,.62-.48,.85-.84l1.24,.72c-.35,.55-.8,.99-1.36,1.3-.56,.31-1.2,.47-1.9,.47Z"/><path class="cls-2" d="M13.01,8.84c-.76,0-1.44-.18-2.04-.54-.6-.36-1.07-.87-1.4-1.54-.34-.66-.51-1.44-.51-2.33s.17-1.68,.51-2.34c.34-.66,.81-1.18,1.4-1.54,.6-.37,1.28-.55,2.04-.55s1.44,.18,2.03,.55c.59,.37,1.06,.88,1.4,1.54s.51,1.44,.51,2.34-.17,1.67-.51,2.33-.81,1.17-1.4,1.54c-.59,.36-1.27,.54-2.03,.54Zm0-1.35c.51,0,.94-.13,1.31-.38s.66-.61,.86-1.07c.21-.46,.31-1,.31-1.61s-.1-1.16-.31-1.62c-.21-.46-.49-.82-.86-1.07-.37-.25-.81-.38-1.31-.38s-.94,.13-1.31,.38c-.38,.25-.67,.61-.87,1.07-.2,.46-.31,1-.31,1.62s.1,1.15,.31,1.61c.21,.46,.5,.82,.87,1.07,.38,.25,.81,.38,1.31,.38Z"/><path class="cls-2" d="M19.2,8.65V.22h1.39l3.98,5.99V.22h1.41V8.65h-1.34l-4.05-6.16v6.16h-1.39Z"/><path class="cls-2" d="M30.66,8.65V1.51h-2.54V.22h6.48V1.51h-2.53v7.14h-1.41Z"/><path class="cls-2" d="M36.01,8.65L39.22,.22h1.23l3.22,8.43h-1.58l-.65-1.86h-3.24l-.65,1.86h-1.54Zm2.65-3.14h2.34l-1.16-3.29-1.18,3.29Z"/><path class="cls-2" d="M49.14,8.84c-.76,0-1.44-.18-2.04-.54-.6-.36-1.07-.87-1.4-1.54-.34-.66-.51-1.44-.51-2.33s.17-1.68,.51-2.34c.34-.66,.81-1.18,1.4-1.54,.6-.37,1.28-.55,2.04-.55,.71,0,1.34,.16,1.9,.47,.56,.31,1.02,.75,1.36,1.31l-1.24,.72c-.22-.36-.51-.64-.85-.84-.34-.2-.73-.3-1.17-.3-.5,0-.94,.13-1.31,.38-.38,.25-.67,.61-.87,1.07-.2,.46-.31,1-.31,1.62s.1,1.15,.31,1.61c.21,.46,.5,.82,.87,1.07,.38,.25,.81,.38,1.31,.38,.44,0,.83-.1,1.17-.3,.34-.2,.62-.48,.85-.84l1.24,.72c-.35,.55-.8,.99-1.36,1.3-.56,.31-1.2,.47-1.9,.47Z"/><path class="cls-2" d="M56.69,8.65V1.51h-2.54V.22h6.48V1.51h-2.53v7.14h-1.41Z"/></g></g><g><path d="M30.74,28.7c.49,0,.95-.19,1.29-.53l1.81-1.81,5.73-5.73c-.09-.5-.52-.88-1.05-.88h-15.56c-.52,0-.96,.38-1.05,.88l7.54,7.54c.35,.35,.8,.53,1.29,.53Z"/><polygon points="23.53 24.05 21.91 22.42 21.91 22.43 21.9 22.42 21.9 30.29 25.83 26.35 23.53 24.05"/><path d="M34.75,27.26h0l-1.81,1.8c-.59,.59-1.37,.91-2.2,.91s-1.61-.32-2.2-.91l-1.81-1.81-4.78,4.78c.15,.41,.54,.71,1.01,.71h15.56c.46,0,.86-.3,1.01-.71l-4.77-4.77h0Z"/><polygon points="39.58 22.43 39.58 22.42 35.67 26.33 35.66 26.34 35.66 26.34 35.65 26.35 39.58 30.29 39.58 25.67 39.59 22.42 39.58 22.43"/></g></g></g></svg>